<svg xmlns="http://www.w3.org/2000/svg" width="16" height="16" viewBox="0 0 16 16"><g><path d="M8 .264c-3.33 0-6.025 1.97-6.025 4.404v7.008C5.159 13.055 8 15.736 8 15.736s2.84-2.681 6.025-4.06V4.668C14.025 2.233 11.331.264 8 .264zm0 .582c.756 0 1.487.108 2.174.32a5.889 5.889 0 0 1 1.744.857c.983.72 1.525 1.659 1.525 2.645v6.63c-1.261.586-2.599 1.413-3.978 2.462-.636.483-1.141.91-1.465 1.193-.324-.283-.829-.71-1.465-1.193-1.38-1.049-2.717-1.876-3.978-2.461V4.668c0-.986.542-1.926 1.525-2.645a5.889 5.889 0 0 1 1.744-.857A7.354 7.354 0 0 1 8 .846z"/><path d="M8 1.298c-1.54 0-2.938.41-3.963 1.088-1.025.677-1.685 1.636-1.685 2.713 0 1.077.66 2.038 1.685 2.715S6.46 8.902 8 8.902s2.938-.411 3.963-1.088 1.685-1.638 1.685-2.715-.66-2.036-1.685-2.713S9.54 1.298 8 1.298zm0 .414c1.466 0 2.79.394 3.734 1.018.945.624 1.502 1.46 1.502 2.369 0 .908-.557 1.747-1.502 2.37C10.79 8.095 9.466 8.488 8 8.488c-1.466 0-2.79-.393-3.734-1.017-.945-.624-1.502-1.463-1.502-2.371 0-.908.557-1.745 1.502-2.37C5.21 2.107 6.534 1.713 8 1.713z" style="line-height:normal;text-indent:0;text-align:start;text-decoration-line:none;text-decoration-style:solid;text-decoration-color:#000;text-transform:none;block-progression:tb;isolation:auto;mix-blend-mode:normal" color="#000" font-weight="400" font-family="sans-serif" white-space="normal" overflow="visible"/><path d="M6.762 2.977v.01H5.217a.799.799 0 0 0-.535.173h-.004a.693.693 0 0 0-.225.426l-.459 2.568c-.055.318-.035.556.06.748h.003c.104.196.267.305.459.305H6.08l.024-.121.195-.982.037-.182H6.15l-.578.012c-.045 0-.064-.012-.1-.051a.132.132 0 0 1-.029-.078l.295-1.414c.017-.08.123-.096.21-.096h.72l.023-.12.217-1.019.037-.18h-.183zM10.74 2.973l-.967.011-.287 1.475v.012l-.232 1.22-.307 1.573h.955l.149-.758.154.748 1.004.01.287-1.467v-.01l.252-1.297v-.013l.287-1.504h-.955l-.178.804-.162-.804zM7.293 2.943l-.75 4.313h1.498c.327 0 .602-.291.656-.604l.532-3.066c.056-.324-.134-.643-.479-.643H7.293zm.613 1.155h.178c.096 0 .16.087.14.195l-.023.127-.236 1.36-.026.14a.25.25 0 0 1-.074.139.202.202 0 0 1-.135.058H7.56l.056-.338.237-1.36.054-.321zM7.354 11.172l-.851.191-.263-.835-.262.835-.851-.19.592.642-.592.642.85-.19.263.834.263-.835.851.191-.593-.642.593-.643zM5.121 8.752l-.851.191-.263-.835-.262.835-.851-.191.592.642-.592.643.85-.191.263.835.263-.835.851.19-.593-.642.593-.642zM13.106 8.752l-.851.191-.262-.835-.263.835-.851-.191.593.642-.593.643.851-.191.263.835.262-.835.851.19-.592-.642.592-.642zM10.77 11.172l-.851.191-.263-.835-.262.835-.851-.19.592.642-.592.642.85-.19.263.834.263-.835.851.191-.593-.642.593-.643z"/></g></svg>