<svg xmlns="http://www.w3.org/2000/svg" width="16" height="16" viewBox="0 0 16 16"><g color="#000" font-weight="400" font-family="sans-serif" white-space="normal"><path d="M3.795 0l-.08.111-2.48 3.434.097.1c1.113 1.133 1.235 1.863 1.336 2.88.106 1.063-.307 2.184-.047 3.364.84 3.809 4.07 5.37 5.272 6.064l.084.047.082-.047c1.313-.758 4.48-2.257 5.32-6.064.26-1.18-.15-2.3-.045-3.364.101-1.018.221-1.747 1.334-2.88l.098-.1L12.206 0l-.124.059C10.856.635 10 1.383 8.004 1.352h-.006c-1.997.03-2.853-.717-4.08-1.293L3.795 0zM3.9.418c1.127.55 2.093 1.295 4.104 1.264 1.626.024 2.569-.459 3.467-.936l-2.5 2.297A3.878 3.878 0 0 0 3.96 6.75c.002.275.032.548.092.816L2.896 8.631c.05-.693.173-1.402.1-2.139-.099-.993-.303-1.85-1.346-2.96L3.9.417zm9.79 3.95c-.477.737-.612 1.395-.684 2.124-.116 1.163.285 2.266.05 3.326-.794 3.601-3.703 5.01-5.08 5.795-.822-.47-2.35-1.266-3.544-2.736l2.552-2.348c.28.065.567.098.854.1a3.878 3.878 0 0 0 3.877-3.879 3.878 3.878 0 0 0-.041-.53l2.015-1.853z" style="line-height:normal;text-indent:0;text-align:start;text-decoration-line:none;text-decoration-style:solid;text-decoration-color:#000;text-transform:none;block-progression:tb;isolation:auto;mix-blend-mode:normal" overflow="visible"/><path d="M6.988 3.222l.084 7.08.412-.012-.038-3.238h.888v3.269l.447-.011-.085-7.117c-.619-.279-1.246-.16-1.707.024zm-.261.01c-1.61.837-2.45 2.246-2.392 3.571.074 1.701 1.108 2.912 2.412 3.378v-3.45h-.872v.412h.46v2.29c-1.03-.58-1.5-1.643-1.588-2.63-.107-1.2.507-2.361 1.998-3.136zm2.262.106v6.863l.412-.2V7.056h.642v-.412h-.642V3.982c.188.114.387.223.612.481.314.362.596.8.71 1.092l.384-.152c-.146-.367-.443-.818-.784-1.21-.34-.392-.699-.73-1.088-.806zm-.655 3.308H7.44l-.037-3.11c.037-.113.814-.098.93 0z" style="line-height:normal;text-indent:0;text-align:start;text-decoration-line:none;text-decoration-style:solid;text-decoration-color:#000;text-transform:none;block-progression:tb;isolation:auto;mix-blend-mode:normal" overflow="visible"/></g></svg>