<svg xmlns="http://www.w3.org/2000/svg" width="16" height="16" viewBox="0 0 16 16"><path d="M3.832 10.218c.724-.19 1.121-.97 1.367-1.645.202-.665.256-1.398.064-2.071-.15-.462-.584-.826-1.08-.834-.462-.037-.927-.017-1.39-.022-.332 1.572-.766 3.144-1.096 4.716.756.033 1.538.013 2.135-.144zM.1 11.487l1.484-6.99c.928.01 1.856-.015 2.782.019.569.07 1.169.193 1.597.604.755.667.937 1.746.865 2.708-.092 1.233-.712 2.46-1.758 3.145-.684.428-1.506.539-2.298.53-.93.01-1.902 0-2.672-.016zM11.438 11.486H9.975l-.271-5.84-1.192 5.84H7.12l1.566-6.988h2.2l.23 4.895 2.558-4.895H15.9l-1.571 6.988h-1.407l1.479-5.797-2.963 5.797z"/></svg>