<svg xmlns="http://www.w3.org/2000/svg" width="16" height="16" viewBox="0 0 16 16"><path d="M11.171 8.503a2.301 2.301 0 0 0-.483-.703 3.025 3.025 0 0 0-.682-.505 7.594 7.594 0 0 0-.781-.37c-.267-.11-.527-.21-.781-.305a5.428 5.428 0 0 1-.682-.305c-.2-.108-.362-.23-.483-.367a.708.708 0 0 1-.182-.488c0-.152.028-.29.086-.415a.759.759 0 0 1 .278-.315c.128-.086.291-.153.49-.201.198-.049.44-.073.728-.073.163 0 .335.01.516.028a6.29 6.29 0 0 1 1.523.353V3.279a9.35 9.35 0 0 0-.996-.197 10.86 10.86 0 0 0-.557-.062 6.383 6.383 0 0 0-.524-.024v-.93h-.98v1.01a3.67 3.67 0 0 0-.538.13c-.415.141-.754.33-1.02.568a2.16 2.16 0 0 0-.582.834 2.774 2.774 0 0 0-.185 1.011c0 .388.06.719.182.994.121.274.281.51.48.71.198.198.425.364.679.498.253.134.511.254.774.36.262.106.52.205.774.298.254.092.48.196.679.311.198.115.358.249.48.398.121.15.182.336.182.558 0 .161-.031.309-.093.443a.874.874 0 0 1-.298.346 1.597 1.597 0 0 1-.53.228 3.23 3.23 0 0 1-.787.083c-.208 0-.421-.013-.642-.041a7.447 7.447 0 0 1-.665-.114 10.056 10.056 0 0 1-1.3-.377l-.001 1.682c.414.129.834.221 1.258.277.318.041.646.067.982.078v.879h.98v-.91c.27-.028.528-.072.772-.138a3.193 3.193 0 0 0 1.118-.529 2.44 2.44 0 0 0 .732-.903c.174-.365.261-.794.261-1.288 0-.37-.06-.69-.182-.959"/><path d="M8.478.503A7.239 7.239 0 0 0 4.769 1.52l-.169.407.255.066a5.818 5.818 0 0 1 3.076-.88c3.399 0 6.154 2.937 6.154 6.56 0 3.623-2.755 6.56-6.153 6.56-3.399 0-6.154-2.937-6.154-6.56 0-.636.087-1.25.245-1.832l.734.866 1.437-4.056-.63.402-1.177.75-.545.349-1.399.966v.534h1.078A7.272 7.272 0 1 0 8.478.502"/><path d="M.978 6.076s-3.624 7.17 5.301 9.421c0 0-6.903-2.365-5.301-9.42"/></svg>