<svg xmlns="http://www.w3.org/2000/svg" width="16" height="16" viewBox="0 0 16 16"><path d="M12.538.1c-.988 1.073-1.817 2.658-2.423 3.987-.244.537-.418.973-.578 1.374H4.388s-1.764 3.958-1.603 5.798c.16 1.84 1.073 3.11 2.112 3.8.19.127.402.222.618.303a3.617 3.617 0 0 0-.558.538h5.355a2.95 2.95 0 0 0-.592-.542 3.03 3.03 0 0 0 .611-.298c1.039-.691 1.956-1.96 2.116-3.8.16-1.84-1.605-5.799-1.605-5.799h-.29c.132-.32.24-.6.415-.985.587-1.288 1.41-2.82 2.259-3.742L12.538.1z" style="isolation:auto;mix-blend-mode:normal" color="#000" overflow="visible"/></svg>