<svg xmlns="http://www.w3.org/2000/svg" width="16" height="16" viewBox="0 0 16 16"><path d="M8 2.533C3.637 2.533.102 4.853.102 7.7L.1 8.002c0 3.02 3.092 5.465 7.9 5.465 4.837 0 7.9-2.445 7.9-5.465v-.303c0-2.846-3.537-5.166-7.9-5.166zm.002.305c4.195 0 7.596 2.176 7.596 4.86 0 2.683-3.401 4.859-7.596 4.859S.406 10.38.406 7.697c0-2.683 3.4-4.86 7.596-4.86z"/><path d="M7.418 10.985a.614.614 0 0 1-.618-.59c-.001-.03-.004-.104-.068-.104-.026 0-.049.015-.075.039a.434.434 0 0 1-.304.137.53.53 0 0 1-.2-.043c-.352-.143-.357-.385-.343-.483.004-.026.006-.053-.012-.074l-.022-.02h-.022c-.018 0-.037.008-.061.026a.515.515 0 0 1-.3.106.467.467 0 0 1-.167-.032c-.464-.181-.427-.62-.405-.751.003-.027-.003-.048-.02-.061l-.033-.027-.03.029a.483.483 0 1 1-.333-.829c.24 0 .445.18.475.42l.017.13.071-.11c.008-.012.203-.307.561-.306.068 0 .138.01.21.032.285.088.333.346.34.454.006.063.05.066.06.066.024 0 .042-.015.055-.029a.487.487 0 0 1 .355-.15.68.68 0 0 1 .266.06c.454.195.248.772.245.778-.039.095-.04.137-.004.162l.018.008h.013c.021 0 .047-.009.088-.023a.778.778 0 0 1 .243-.053c.341.004.62.282.62.62a.62.62 0 0 1-.62.618zm4.807-2.78c-.749-.653-2.48-2.16-2.95-2.511-.268-.202-.45-.308-.611-.356a1.017 1.017 0 0 0-.3-.047c-.12 0-.248.022-.382.064-.303.096-.605.336-.897.569l-.015.011c-.272.217-.553.44-.766.488a1.291 1.291 0 0 1-.284.032c-.238 0-.452-.07-.533-.172-.013-.017-.004-.044.027-.084l.004-.005.659-.71c.516-.517 1.004-1.004 2.127-1.03h.056c.699 0 1.397.313 1.475.349.656.32 1.332.482 2.012.482.708 0 1.44-.175 2.208-.529a5.952 5.952 0 0 0-.267-.211c-.675.292-1.319.44-1.94.44a4.28 4.28 0 0 1-1.882-.453c-.032-.015-.803-.379-1.606-.38l-.063.002c-.943.022-1.474.356-1.832.65-.347.008-.647.092-.914.167-.237.066-.443.123-.643.123-.083 0-.232-.008-.245-.008-.23-.007-1.392-.292-2.315-.642a5.98 5.98 0 0 0-.274.206c.965.396 2.14.702 2.51.726.103.007.213.018.323.018.245 0 .49-.068.727-.135.14-.039.294-.081.456-.113l-.13.13L5.29 6c-.052.053-.167.195-.091.37.03.07.09.138.176.196.16.107.446.18.71.18.102 0 .197-.01.285-.03.28-.063.575-.297.887-.545.248-.198.602-.449.872-.522a.992.992 0 0 1 .243-.034c.022 0 .043.001.063.004.179.023.351.084.66.315.55.413 2.983 2.541 3.006 2.562a.468.468 0 0 1 .146.358.39.39 0 0 1-.194.31.592.592 0 0 1-.32.1.527.527 0 0 1-.281-.081c-.01-.008-.843-.772-1.15-1.029-.048-.04-.096-.077-.144-.077a.08.08 0 0 0-.064.03c-.048.06.006.142.07.196l.974.979a.46.46 0 0 1 .134.264c.008.162-.07.298-.23.403a.627.627 0 0 1-.346.114.5.5 0 0 1-.278-.084l-.14-.137c-.255-.252-.518-.511-.711-.672-.047-.04-.098-.076-.146-.076a.083.083 0 0 0-.06.026c-.023.025-.038.069.017.142.022.03.049.055.049.055l.71.798c.006.007.147.174.016.34l-.025.032a.732.732 0 0 1-.066.064.568.568 0 0 1-.443.102c-.07-.013-.117-.032-.14-.06l-.009-.008c-.038-.04-.397-.406-.693-.653-.039-.033-.088-.074-.138-.074a.084.084 0 0 0-.064.028c-.059.064.03.16.066.196l.606.668a.14.14 0 0 1-.023.04c-.021.03-.095.104-.314.132a.616.616 0 0 1-.081.005c-.227 0-.468-.11-.593-.176a.905.905 0 0 0-.85-1.288c.016-.228-.016-.66-.459-.85a.951.951 0 0 0-.378-.083.77.77 0 0 0-.277.05.76.76 0 0 0-.443-.375.99.99 0 0 0-.324-.058A.855.855 0 0 0 5 8.31a.766.766 0 0 0-.595-.287.768.768 0 0 0-.54.223c-.188-.144-.937-.619-2.94-1.074-.097-.022-.32-.086-.456-.125a3.23 3.23 0 0 0-.05.328s.368.089.441.105c2.046.454 2.722.927 2.837 1.016a.768.768 0 0 0 .848 1.049c.063.311.267.547.578.668.09.035.183.053.273.053a.7.7 0 0 0 .175-.022c.057.146.186.328.475.445.102.041.203.062.302.062a.68.68 0 0 0 .234-.041.904.904 0 0 0 1.483.286c.146.081.454.228.765.228.04 0 .079-.002.116-.007.31-.039.453-.16.52-.254a.381.381 0 0 0 .031-.052.867.867 0 0 0 .246.038c.168 0 .33-.057.494-.176.161-.116.276-.283.292-.425v-.006a.82.82 0 0 0 .166.017.92.92 0 0 0 .509-.161c.315-.207.37-.477.364-.653a.829.829 0 0 0 .168.017c.163 0 .323-.05.476-.146a.696.696 0 0 0 .33-.54.728.728 0 0 0-.104-.434c.528-.227 1.734-.668 3.156-.988a3.188 3.188 0 0 0-.044-.327c-1.72.381-3.003.936-3.325 1.08"/></svg>