<svg xmlns="http://www.w3.org/2000/svg" width="16" height="16" viewBox="0 0 16 16"><path d="M8 3.688C3.638 3.688.1 5.617.1 8c0 2.381 3.538 4.313 7.9 4.313S15.9 10.38 15.9 8 12.362 3.687 8 3.687zm-.074.351c4.044 0 7.324 1.682 7.324 3.758 0 1.175-.934 2.01-2.4 2.787-.069.036-.131.052-.178.072-.104.046-.14-.018-.068-.066.56-.372 1.01-.8 1.359-1.192.582-.654.508-1.82.508-1.82l-.528.016c-.093.002-1.291.18-1.619.31-.245.027-1.061.323-1.441.5-.155.073-.2.067-.29-.047-.038-.05-.08-.1-.118-.15l-.606-.486-1.092-.903a2.245 2.245 0 0 0-.59-.28c-.35-.06-.886.11-.826.146.078-.092.862-.09.918 0 .784.573 1.562 1.164 2.278 1.941.12.129.08.299-.024.42-.101.117-.323.07-.53-.084-.107-.081-1.202-.854-1.202-.854.203.35.646.652.902.875.183.125.319.432.145.604-.137.135-.423.042-.551-.063-.242-.141-.453-.373-.736-.476 0 0 .405.4.513.494.108.094.156.302.102.396-.054.095-.183.143-.278.143-.258 0-.316-.202-.525-.324.07.161.257.25.203.418 0 .108-.448.184-.601.097-.173-.143.214-.642-.557-.863-.023-.592-.458-.615-.68-.615 0 0-.133.064-.18-.059-.096-.17-.388-.232-.585-.158-.175.065-.229.203-.336.203-.053 0-.063-.084-.076-.14-.192-.314-.53-.165-.668-.182-.14-.017-.886-.355-1.215-.459-.33-.104-1.474-.4-1.664-.469-.207-.075-.492-.162-.535-.062-.037.179-.268 1.668 1.722 3.066.181.132.217.223-.088.096-1.538-.69-2.51-1.702-2.51-2.832 0-2.075 3.279-3.758 7.323-3.758zm.369.291c-1.697-.056-3.465.258-5.004 1.037.648.404 1.475 1.023 2.254 1.078.17.012.648 0 .723.016.074.016.128.226.128.226s.153-.414.573-.638c.394-.275 1.518-.177 1.896.02.362.175 1.244.378 1.905.279.717.035 2.127-.795 2.109-.832-1.26-.702-2.887-1.13-4.584-1.186zM5.14 8.592c.164 0 .416.167.416.324s-.034.205-.198.205-.416-.167-.416-.324.034-.205.198-.205zm1.064.164a.322.322 0 0 1 .145.056c.059.045.099.11.119.184.184-.093.41-.099.547.002.194.145.221.438.046.674-.174.235-.48.34-.675.195a.548.548 0 0 1-.198-.312c-.13.06-.277.061-.378-.014a.443.443 0 0 1-.079-.594.523.523 0 0 1 .473-.191zm1.229.828c.059 0 .12.018.183.055.25.148.236.445.135.593-.101.149-.407.197-.586.075-.18-.123-.244-.333-.143-.48.076-.112.232-.246.41-.243z"/></svg>