<svg xmlns="http://www.w3.org/2000/svg" width="16" height="16" viewBox="0 0 16 16"><path d="M12.943 3.723l-1.431 8.058h4.054l.334-1.86h-2.146l1.144-6.198h-1.955zm-7.54 1.195c-1.053.02-1.657.467-2.21 1.059.005-.003-.098.04-.093 0 0-.314-.012-.63-.012-.944H1.297s.056.439.012.707c-.045.269-1.21 6.041-1.21 6.041h2.003c.191-1.168.816-5.332 2.316-5.295.435.009.74.383.598 1.371-.27 1.308-.487 2.616-.754 3.924H6.24c.206-1.152.728-5.466 2.256-5.29.398-.002.802.334.656 1.341-.27 1.317-.49 2.632-.76 3.95h2.003c.428-1.886.662-3.833.857-5.468.011-.5-.528-1.382-1.604-1.367-.867-.063-1.807.303-2.363 1.016-.093.037-.142.061-.234 0-.353-.602-.661-1.031-1.649-1.045z"/></svg>