<svg xmlns="http://www.w3.org/2000/svg" width="16" height="16" viewBox="0 0 16 16"><path d="M13.355 4.388c-.191.006-.37.108-.379.255v.774c-.094-.277-.4-.334-.592-.323-.727.042-.928.58-.928 1.191 0 .801.405 1.072 1.062 1.072.837 0 1.026-.68 1.026-.89v-2.05a.532.532 0 0 0-.189-.029z"/><path d="M12.48 5.58c.315 0 .51.318.51.678 0 .36-.18.634-.485.634-.304 0-.47-.236-.47-.667 0-.43.162-.646.446-.646z"/><path d="M10.376 5.032c-.245 0-.46.109-.648.23-.175.113-.258.327-.284.53l.547.053c.005-.233.261-.314.465-.296.16.013.356.17.235.323-.115.143-.32.12-.484.144-.278.039-.6.104-.749.37-.17.306-.082.775.262.916.302.124.645.093.956.024.288-.062.552-.292.593-.598.037-.282.02-.56.018-.848-.003-.344-.128-.531-.277-.642a1.122 1.122 0 0 0-.634-.206z"/><path d="M10.684 6.269c.046.13.054.188.046.259-.041.349-.308.451-.492.438-.21-.015-.383-.221-.261-.411.18-.282.507-.23.707-.286z"/><path d="M14.805 5.077c-.665 0-1.104.42-1.094 1.142.01.722.378 1.142 1.094 1.142.716 0 1.097-.415 1.095-1.142-.002-.726-.43-1.141-1.095-1.142z"/><path d="M14.805 5.55c.317 0 .509.314.509.67 0 .355-.175.67-.509.67-.333 0-.512-.268-.512-.67 0-.405.195-.67.512-.67z"/><path d="M1.006 5.087c-.55 0-.906.405-.906.94v1.285h.515V6.015c0-.237.16-.4.391-.4.34 0 .374.281.374.4v1.297h.517V6.015c0-.237.163-.4.39-.4.34 0 .379.281.379.4v1.297h.515V6.028c0-.552-.332-.94-.894-.94a.819.819 0 0 0-.64.298.793.793 0 0 0-.64-.299zM8.195 5.098c-.811-.01-1.049.52-1.068 1.165-.024.764.467 1.091 1.06 1.1.663.011.946-.305 1.019-.85h-.604c.01.324-.276.383-.4.382-.364 0-.447-.393-.458-.646-.021-.46.26-.677.468-.677.306 0 .374.179.394.346h.605c-.053-.648-.476-.814-1.016-.82zM4.472 5.114c-.64 0-1.07.518-1.062 1.15.01.763.436 1.117 1.083 1.12.617 0 .989-.361 1.002-.637h-.6c-.07.161-.259.169-.39.173-.404.013-.534-.361-.53-.52h1.56c.05-.88-.424-1.286-1.063-1.286z"/><path d="M4.472 5.566c.36.01.479.338.482.455h-.965c.015-.33.326-.458.483-.455z"/><path d="M7.036 5.082c-1.114-.05-1.213.64-1.244 1.097v1.117h.564V6.248c0-.58.304-.593.68-.592zM2.89 7.907h.195v3.91h-.742V8.386c0-.112.23-.478.548-.478M4.624 8.583h-.742v-.676h.742v.676zM4.624 11.818h-.742V8.923h.742v2.895zM12.16 8.633c-.896 0-1.499.727-1.488 1.612.013 1.07.611 1.567 1.518 1.573.865 0 1.387-.508 1.405-.895h-.84c-.099.227-.364.237-.548.243-.566.018-.749-.506-.744-.73h2.19c.07-1.232-.596-1.802-1.492-1.803z"/><path d="M12.16 9.267c.505.015.672.474.676.638h-1.353c.022-.463.457-.642.678-.638z"/><path d="M10.309 8.713c-1.562-.07-1.7.897-1.745 1.537v1.568h.792v-1.47c0-.813.426-.832.953-.83zM5.606 8.045c.252.007.489.142.5.337v1.021c.125-.365.528-.441.782-.426.96.055 1.226.766 1.226 1.573 0 1.058-.535 1.416-1.402 1.416-1.107 0-1.356-.898-1.356-1.177V8.083a.703.703 0 0 1 .25-.038z"/><path d="M6.76 9.618c-.415 0-.673.421-.673.897 0 .475.239.836.64.836.403 0 .623-.312.623-.88 0-.568-.216-.853-.59-.853z"/></svg>