<svg xmlns="http://www.w3.org/2000/svg" width="16" height="16" viewBox="0 0 16 16"><path d="M12.975 5.244c-.095-.276-.4-.333-.592-.322-.727.042-.928.58-.928 1.191 0 .801.405 1.07 1.061 1.07.838 0 1.027-.678 1.027-.89V4.245c-.24-.084-.557.028-.568.225zM9.69 5.037c-.184.119-.273.345-.3.56l.58.057c.004-.246.275-.333.491-.314.169.015.377.18.248.341-.121.152-.338.128-.512.153-.295.04-.634.11-.792.392-.18.324-.087.818.277.967.32.132.683.1 1.012.027.304-.066.583-.309.626-.633.04-.297.021-.592.019-.896-.003-.364-.134-.562-.292-.68a1.185 1.185 0 0 0-.67-.218c-.26 0-.487.115-.687.244zm5.115-.132c-.666 0-1.104.421-1.095 1.143.01.722.379 1.14 1.095 1.14s1.097-.413 1.095-1.14c-.002-.727-.43-1.143-1.095-1.143zm-13.799.01c-.55 0-.906.405-.906.94v1.284h.515V5.842c0-.237.16-.4.391-.4.34 0 .374.282.374.4V7.14h.517V5.842c0-.237.163-.4.39-.4.34 0 .379.282.379.4V7.14h.515V5.855c0-.552-.332-.94-.894-.94a.818.818 0 0 0-.64.298.793.793 0 0 0-.64-.298zm3.463.01c-.639 0-1.07.52-1.062 1.152.01.763.436 1.116 1.082 1.12.617 0 .99-.362 1.002-.637h-.598c-.07.16-.26.167-.392.171-.404.013-.533-.36-.53-.52h1.561c.05-.879-.423-1.285-1.063-1.285zm3.726 0c-.812-.01-1.05.52-1.069 1.165-.023.765.467 1.092 1.06 1.101.663.01.947-.305 1.019-.85h-.603c.009.323-.277.382-.401.381-.364 0-.446-.393-.458-.645-.021-.46.261-.677.469-.677.306-.001.373.178.393.345h.606c-.054-.647-.477-.814-1.016-.82zm-1.156 0c-1.114-.05-1.213.64-1.244 1.097V7.14h.564V6.09c0-.58.304-.593.68-.591zm7.765.453c.317 0 .508.314.508.67 0 .354-.175.67-.508.67s-.512-.268-.512-.67c0-.405.195-.67.512-.67zm-10.335 0c.36.01.478.337.481.455h-.965c.016-.33.327-.458.484-.455zm8.521.708c0 .36-.181.634-.486.634-.304 0-.47-.236-.47-.667 0-.43.163-.646.446-.646.315 0 .51.319.51.679zm-2.24.29c-.043.369-.325.476-.52.462-.223-.016-.405-.233-.276-.434.19-.297.536-.243.748-.302.048.138.057.2.048.274zM5.273 8.14c-.261.169-.388.49-.426.793l.82.08c.008-.348.393-.471.7-.445.238.021.533.255.35.484-.171.215-.48.181-.726.216-.417.058-.899.158-1.122.557-.256.459-.123 1.16.392 1.37.454.187.969.14 1.435.04.431-.094.826-.437.887-.897.057-.421.03-.84.027-1.27-.004-.516-.19-.798-.415-.964-.265-.197-.604-.28-.948-.267a1.96 1.96 0 0 0-.974.302zm7.664-.29c-.9 0-1.614.697-1.614 1.818 0 1.122.818 1.65 1.616 1.638.797-.013 1.668-.612 1.668-1.715 0-1.103-.77-1.74-1.67-1.74zM7.92 9.436c-.021.536.097 1.103.503 1.486.285.269.666.364 1.042.393.28.022.52-.152.69-.292.18.155-.086.842-.882.804a1.462 1.462 0 0 1-.726-.31c-.153-.138-.535.034-.423.361.302.875 1.674.974 2.365.385.473-.404.504-1.049.503-1.646-.002-.695.028-1.682-.204-2.086-.28-.487-.91-.695-1.28-.695-.283 0-.501.067-.891.197s-.672.8-.697 1.403zm-6.503-.438l-.026 2.546c-.003.246-.055.774.132.786.298.016.713-.05.716-.422l.008-1.02s.32.302.54.358c.568.144 1.2-.068 1.478-.579.33-.607.352-1.386.061-2.017-.218-.475-.7-.704-1.033-.736a3.092 3.092 0 0 0-.875.023c-.373.052-.995.466-1 1.06zm11.542-.444c.541 0 .795.506.795 1.057 0 .552-.313.984-.8.994-.487.012-.776-.432-.77-.965.006-.533.233-1.086.775-1.086zm-10.013.05c.516 0 .727.56.717 1.002-.01.428-.183.95-.69.965-.539.017-.746-.564-.737-1.02.01-.434.203-.947.71-.947zm6.644.017c.376-.025.56.459.568.79.012.496-.1 1.063-.603 1.166-.507.104-.875-.414-.799-.97.077-.554.181-.942.834-.986zM6.766 9.68c.022.158.021.295.002.411-.078.486-.461.63-.73.61-.315-.022-.574-.33-.392-.614.27-.422.818-.335 1.12-.407z"/></svg>