<svg xmlns="http://www.w3.org/2000/svg" width="16" height="16" viewBox="0 0 16 16"><path d="M13.378 3.791c-.2 0-.395.1-.403.254v.774c-.095-.277-.4-.334-.592-.323-.727.042-.928.58-.928 1.192 0 .8.405 1.07 1.061 1.07.838 0 1.027-.679 1.027-.89V3.819a.539.539 0 0 0-.165-.028z"/><path d="M12.48 4.981c.315 0 .51.32.51.68 0 .36-.181.634-.486.634-.304 0-.47-.237-.47-.667 0-.43.163-.647.446-.647z"/><path d="M10.377 4.368c-.26 0-.487.115-.687.243-.184.12-.273.346-.3.56l.58.058c.004-.247.275-.333.491-.314.169.015.377.18.248.34-.121.153-.338.129-.512.153-.295.041-.634.112-.792.393-.18.324-.087.818.277.967.32.131.683.1 1.012.027.304-.066.583-.31.626-.634.04-.297.021-.592.019-.896-.003-.363-.134-.561-.292-.679a1.185 1.185 0 0 0-.67-.218z"/><path d="M10.702 5.677c.048.137.057.199.048.274-.043.368-.325.476-.52.462-.223-.016-.405-.233-.276-.434.19-.298.536-.244.748-.302z"/><path d="M14.805 4.48c-.666 0-1.104.42-1.095 1.142.01.722.379 1.14 1.095 1.14s1.097-.413 1.095-1.14c-.002-.726-.43-1.142-1.095-1.143z"/><path d="M14.804 4.953c.317 0 .508.314.508.669 0 .355-.175.67-.508.67s-.512-.268-.512-.67c0-.405.195-.67.512-.67z"/><path d="M1.006 4.49c-.55 0-.906.404-.906.94v1.284h.515V5.417c0-.237.16-.4.391-.4.34 0 .374.281.374.4v1.297h.517V5.417c0-.237.163-.4.39-.4.34 0 .379.281.379.4v1.297h.515V5.43c0-.552-.332-.94-.894-.94a.818.818 0 0 0-.64.298.793.793 0 0 0-.64-.299zM4.47 4.5c-.64 0-1.07.52-1.063 1.151.01.763.436 1.117 1.082 1.12.617 0 .99-.361 1.002-.637h-.599c-.07.161-.26.167-.391.172-.404.013-.533-.361-.53-.52h1.561C5.582 4.905 5.11 4.5 4.47 4.5z"/><path d="M4.47 4.953c.359.01.477.337.48.454h-.965c.016-.33.327-.458.484-.454z"/><path d="M8.195 4.5c-.812-.01-1.05.52-1.069 1.165-.023.764.467 1.091 1.06 1.101.663.01.947-.306 1.019-.85h-.603c.009.323-.277.382-.401.38-.364 0-.446-.392-.458-.645-.021-.46.261-.676.469-.677.306 0 .373.179.393.346h.606c-.054-.648-.477-.814-1.016-.82zM7.039 4.5c-1.114-.05-1.213.64-1.244 1.096v1.118h.564V5.666c0-.58.304-.593.68-.592zM6.312 7.41h-.065a1.96 1.96 0 0 0-.974.302c-.261.169-.388.49-.426.793l.82.081c.008-.35.393-.472.7-.445.238.02.533.254.35.483-.171.216-.48.181-.726.216-.417.058-.899.158-1.122.557-.256.46-.123 1.16.392 1.37.454.187.969.14 1.435.04.431-.094.826-.437.887-.897.057-.421.03-.839.027-1.27-.004-.516-.19-.798-.415-.964a1.473 1.473 0 0 0-.883-.268z"/><path d="M6.766 9.255c.022.159.021.295.002.412-.078.486-.461.629-.73.61-.315-.022-.574-.33-.392-.615.27-.421.818-.335 1.12-.407z"/><path d="M12.937 7.424c-.9 0-1.614.697-1.614 1.818s.818 1.65 1.616 1.637c.797-.013 1.668-.611 1.668-1.714s-.77-1.741-1.67-1.741z"/><path d="M12.959 8.128c.541 0 .795.506.795 1.058s-.313.982-.8.993c-.487.011-.777-.432-.77-.965.006-.532.233-1.086.775-1.086z"/><path d="M9.507 7.41c-.282 0-.5.068-.89.198s-.672.8-.697 1.402c-.021.536.097 1.104.503 1.487.285.269.666.363 1.042.393.28.022.52-.152.69-.292.18.155-.086.842-.882.804a1.462 1.462 0 0 1-.726-.311c-.153-.138-.535.035-.423.362.302.874 1.674.973 2.365.385.473-.404.504-1.05.503-1.646-.002-.696.028-1.683-.204-2.086-.28-.487-.91-.695-1.28-.695z"/><path d="M9.625 8.194c.352.01.525.47.533.792.012.495-.1 1.063-.603 1.166-.507.103-.875-.415-.799-.97.077-.554.181-.943.834-.987h.035z"/><path d="M2.919 7.467c-.147.001-.292.014-.501.044-.373.052-.995.467-1 1.062l-.027 2.545c-.003.247-.055.774.132.786.298.016.713-.05.716-.421l.008-1.02s.32.302.54.358c.568.144 1.2-.068 1.477-.579.33-.607.353-1.386.062-2.017-.218-.475-.7-.704-1.033-.737a3.83 3.83 0 0 0-.374-.02z"/><path d="M2.946 8.178c.516 0 .727.56.717 1.003-.01.428-.183.949-.69.965-.539.017-.746-.564-.737-1.02.01-.434.203-.948.71-.948z"/></svg>