<svg xmlns="http://www.w3.org/2000/svg" width="16" height="16" viewBox="0 0 16 16"><path d="M12.723 5.372c-.09-.263-.38-.317-.562-.306-.69.04-.88.55-.88 1.13 0 .761.383 1.017 1.007 1.017.795 0 .974-.645.974-.845V4.423c-.227-.08-.529.027-.54.214zM9.64 5.225c-.166.107-.246.31-.27.502l.52.052c.005-.221.248-.299.442-.282.15.013.338.161.222.306-.109.137-.303.115-.46.137-.264.037-.569.1-.71.352-.163.291-.078.734.248.868.288.118.613.09.909.024.273-.059.523-.277.562-.568.035-.267.019-.531.016-.805-.002-.326-.12-.503-.262-.609-.168-.124-.41-.199-.601-.196-.233 0-.437.103-.616.219zm4.82-.176c-.631 0-1.048.4-1.039 1.086.01.685.36 1.082 1.04 1.082.679 0 1.041-.393 1.039-1.082-.002-.69-.408-1.085-1.04-1.086zm-13.1.01c-.523 0-.86.385-.86.893v1.22h.49V5.94c0-.225.151-.38.37-.38.323 0 .356.267.356.38V7.17h.49V5.94c0-.225.155-.38.37-.38.322 0 .36.267.36.38V7.17h.489V5.952c0-.524-.315-.893-.85-.893a.777.777 0 0 0-.606.284.753.753 0 0 0-.609-.284zm3.288.01c-.607 0-1.016.494-1.008 1.093.009.724.413 1.06 1.027 1.064.586 0 .94-.344.951-.606H5.05c-.067.154-.247.16-.372.163-.384.012-.505-.342-.502-.494h1.481c.048-.834-.402-1.22-1.009-1.22zm3.537 0c-.77-.01-.996.494-1.015 1.106-.022.726.444 1.036 1.007 1.045.63.01.898-.29.967-.807h-.573c.009.307-.262.363-.38.362-.345 0-.424-.373-.435-.613-.02-.436.248-.642.445-.643.29 0 .354.17.374.329h.575c-.051-.615-.453-.773-.965-.779zm-1.097 0c-1.058-.047-1.152.607-1.182 1.04v1.062h.536v-.995c0-.55.289-.563.646-.562zm7.371.43c.301 0 .483.298.483.635s-.166.637-.483.637c-.316 0-.485-.255-.485-.637 0-.384.184-.635.485-.635zm-9.81 0c.34.01.453.32.456.431h-.916c.014-.313.31-.434.46-.431zm8.089.672c0 .342-.173.602-.462.602-.289 0-.447-.225-.447-.633 0-.408.156-.614.424-.614.3 0 .485.303.485.645zm-2.147.256c-.039.331-.292.427-.467.415-.2-.014-.363-.21-.248-.39.17-.267.482-.218.671-.27.043.123.052.178.044.245zm-3.96 1.406c-.268.01-.54.094-.76.236-.205.132-.304.382-.334.62l.641.063c.006-.273.307-.369.546-.348.187.016.417.2.274.378-.134.168-.374.141-.567.168-.326.046-.702.124-.876.436-.2.358-.097.905.306 1.07.354.145.756.11 1.12.03.337-.073.645-.34.693-.7.044-.33.024-.656.02-.993-.002-.402-.148-.622-.323-.752a1.169 1.169 0 0 0-.74-.208zm5.225.01c-.703 0-1.261.544-1.261 1.42 0 .875.639 1.288 1.262 1.279.623-.01 1.303-.478 1.303-1.34 0-.861-.601-1.36-1.304-1.36zm-3.202.086c-.477.16-.697.682-.716 1.153-.017.419.075.862.392 1.16.223.21.52.285.814.308.218.017.407-.119.538-.228.141.12-.066.657-.688.627a1.14 1.14 0 0 1-.567-.242c-.12-.108-.418.028-.33.282.235.683 1.307.76 1.847.3.37-.314.394-.818.392-1.285-.001-.543.023-1.314-.159-1.629-.219-.38-.71-.542-1-.542-.22 0-.391.052-.523.096zm-4.85-.04c-.455.063-.94.386-.945.85l-.02 1.99c-.003.191-.044.603.102.613.233.012.557-.039.56-.33l.006-.796s.25.236.422.28c.443.112.937-.053 1.153-.452a1.8 1.8 0 0 0 .049-1.576c-.17-.37-.547-.55-.808-.575-.26-.025-.392-.023-.519 0zm8.069.504c.423 0 .621.395.621.826 0 .43-.244.768-.625.776-.38.01-.606-.338-.602-.754.005-.416.183-.848.606-.848zm-7.82.039c.403 0 .567.438.56.783-.008.334-.143.741-.539.753-.42.013-.583-.44-.575-.796.006-.339.158-.74.554-.74zm5.189.013c.293-.02.437.358.443.618.01.386-.078.83-.47.91-.396.081-.684-.324-.624-.757.06-.433.14-.737.65-.771zm-2.206.828c.018.124.017.23.002.321a.53.53 0 0 1-.57.477c-.247-.017-.449-.258-.307-.48.21-.33.64-.262.875-.318z"/></svg>