<svg xmlns="http://www.w3.org/2000/svg" width="16" height="16" viewBox="0 0 16 16"><path d="M15.703 11.792l-2.265-3.394 1.735-2.555c.204-.3.158-.632-.101-.741-.26-.107-.668.027-.906.302l-1.544 1.773-1.067-1.6c-.201-.302-.643-.46-.98-.352a.596.596 0 0 0-.364.808l1.242 2.522-1.786 2.02a.943.943 0 0 0-.08 1.055l.445.707c.194.307.521.312.724.012l1.5-2.211 1.217 2.232a.767.767 0 0 0 .886.438l1.074-.294c.35-.096.471-.42.27-.722M3.215 4.14C1.549 4.14.199 5.732.199 7.694c0 1.964 1.35 3.555 3.016 3.555 1.665 0 3.015-1.591 3.015-3.555 0-1.962-1.35-3.552-3.015-3.552zm0 1.14c.775 0 1.404 1.08 1.404 2.413 0 1.336-.63 2.418-1.404 2.418-.775 0-1.402-1.082-1.402-2.418 0-1.333.627-2.414 1.402-2.414z"/><path d="M7.149 3.172c-.418 0-.562.342-.536.696v4.557c.014.428.225.691.706.698H9.83c.398.012.614-.085.651-.411v-.79c-.004-.366-.376-.364-.63-.358H8.82c-.41 0-.504-.071-.52-.476l.004-3.237c.008-.378-.123-.68-.542-.682H7.15"/></svg>