<svg xmlns="http://www.w3.org/2000/svg" width="16" height="16" viewBox="0 0 16 16"><path d="M15.703 11.792l-2.265-3.393 1.735-2.556c.204-.3.158-.632-.101-.741-.26-.107-.668.027-.906.302l-1.544 1.773-1.067-1.6c-.201-.302-.643-.46-.98-.352a.596.596 0 0 0-.364.808l1.242 2.522-1.786 2.02a.943.943 0 0 0-.08 1.055l.445.707c.194.307.521.312.724.012l1.5-2.212 1.217 2.233a.767.767 0 0 0 .886.437l1.074-.293c.35-.097.471-.42.27-.723M3.215 10.111c-.775 0-1.403-1.082-1.403-2.417 0-1.334.628-2.415 1.403-2.415S4.62 6.36 4.62 7.694c0 1.335-.629 2.417-1.404 2.417m0-5.97C1.55 4.14.2 5.73.2 7.694c0 1.963 1.35 3.555 3.015 3.555S6.23 9.657 6.23 7.694 4.88 4.14 3.215 4.14"/><path d="M7.149 3.172c-.418 0-.562.342-.536.696v4.557c.014.428.225.691.706.698H9.83c.398.012.614-.084.651-.411v-.79c-.004-.366-.376-.364-.63-.358H8.82c-.41 0-.504-.071-.52-.476l.004-3.237c.008-.378-.123-.68-.542-.682H7.15"/></svg>