<svg xmlns="http://www.w3.org/2000/svg" width="16" height="16" viewBox="0 0 16 16"><path d="M.643 3.662C.29 3.662 0 4.15 0 4.74v6.52c0 .591.29 1.078.643 1.078h14.714c.353 0 .643-.487.643-1.078V4.74c0-.591-.29-1.078-.643-1.078H.643zM.574 6.211h14.951v5.049c0 .253-.116.447-.267.447H.844c-.151 0-.275-.194-.27-.447V6.21z" style="line-height:normal;text-indent:0;text-align:start;text-decoration-line:none;text-decoration-style:solid;text-decoration-color:#000;text-transform:none;block-progression:tb;isolation:auto;mix-blend-mode:normal" color="#000" font-weight="400" font-family="sans-serif" white-space="normal" overflow="visible"/><path d="M1.539 10.616h-.441l.689-3.46h.525l.686 3.46h-.473l-.151-.858h-.68l-.155.858zm.508-2.772h-.02L1.78 9.215h.505l-.24-1.371zM3.235 10.616v-3.46h.887q.284 0 .453.227.172.223.172.62 0 .214-.052.379-.05.16-.129.252t-.18.13v.03q.198.033.329.256.134.218.134.587 0 .46-.204.722-.204.257-.52.257h-.89zm.438-2.923v.887h.262q.377 0 .377-.45 0-.141-.038-.238-.038-.102-.105-.15-.064-.049-.152-.049h-.344zm0 1.386v.999h.295q.432 0 .432-.49 0-.164-.044-.276-.041-.116-.123-.174-.079-.059-.192-.059h-.368zM6.617 10.616h-.435V7.848h-.017l-.228.243q-.19.203-.248.276v-.678q.064-.073.254-.277.19-.208.248-.257h.426v3.46zM7.411 8.202h-.417v-.039q0-.203.044-.387.046-.19.131-.344.088-.155.228-.247.143-.097.324-.097.321 0 .52.276.201.276.201.698 0 .092-.012.179-.008.087-.02.15-.009.063-.04.15l-.045.131q-.011.04-.058.131-.044.092-.058.117-.012.024-.07.126l-.065.116-.452.838v.024h.858v.592H7.023v-.456l.75-1.337q.076-.131.114-.209.038-.077.08-.213.04-.136.04-.267 0-.203-.085-.33-.084-.13-.213-.13-.134 0-.216.14-.082.141-.082.345v.044zM9.253 9.113v-.557h.216q.143 0 .23-.13.088-.132.088-.335 0-.194-.088-.315-.087-.126-.224-.126-.144 0-.225.14-.082.136-.088.32H8.75q.01-.446.202-.732.196-.29.537-.29.315 0 .52.256.207.252.21.65.003.334-.117.547-.12.209-.257.243v.029q.059.005.117.044.061.033.12.101.058.068.102.165.047.092.073.228.03.136.03.295.002.46-.234.752-.237.286-.578.286-.187 0-.336-.083-.146-.087-.237-.232-.09-.146-.14-.33-.047-.184-.05-.397h.406q.012.208.108.339.1.13.257.13.17 0 .266-.14.1-.14.096-.363 0-.218-.096-.354-.096-.14-.269-.14h-.227zM11.59 8.697v.392q0 .485.114.732.117.242.324.242.19 0 .295-.184.105-.184.105-.465h.423v.073q0 .499-.225.848-.221.349-.604.349-.417 0-.651-.422-.23-.422-.23-1.178v-.387q0-.761.233-1.183.233-.426.648-.426.377 0 .602.353.227.354.227.878v.072h-.423q0-.286-.108-.484-.105-.2-.295-.2-.131 0-.23.108-.097.106-.152.334-.053.223-.053.548zM13.189 7.155h.78q.248 0 .429.126.18.122.289.354.11.233.163.543.053.305.053.698 0 .392-.053.703-.052.31-.16.547-.108.233-.292.364-.181.126-.43.126h-.78v-3.46zm.44.592v2.277h.275q.269 0 .406-.261.14-.262.14-.873 0-.203-.017-.368-.015-.165-.056-.31-.038-.15-.1-.247-.06-.102-.157-.16-.093-.058-.216-.058h-.274z" style="line-height:125%;-inkscape-font-specification:'San Francisco Display Bold';text-align:center" font-weight="700" font-family="San Francisco Display" letter-spacing="0" word-spacing="0" text-anchor="middle"/></svg>