<svg xmlns="http://www.w3.org/2000/svg" width="16" height="16" viewBox="0 0 16 16"><path d="M.643 0C.29 0 0 .49 0 1.087v13.826C0 15.51.29 16 .643 16h14.714c.353 0 .643-.49.643-1.087V1.087C16 .49 15.71 0 15.357 0zM.574 2.569h14.951v12.344c0 .256-.116.451-.267.451H.844c-.151 0-.275-.195-.27-.45z" style="line-height:normal;text-indent:0;text-align:start;text-decoration-line:none;text-decoration-style:solid;text-decoration-color:#000;text-transform:none;block-progression:tb;isolation:auto;mix-blend-mode:normal" color="#000" font-weight="400" font-family="sans-serif" white-space="normal" overflow="visible"/><g font-weight="700" font-family="San Francisco Display" letter-spacing="0" word-spacing="0" text-anchor="middle"><path d="M4.666 8.483h-.633l.99-4.975h.756l.986 4.975h-.68L5.867 7.25h-.978l-.223 1.233zm.73-3.985h-.029l-.352 1.971h.726l-.344-1.971zM7.105 8.483V3.508H8.38q.407 0 .65.328.248.32.248.892 0 .306-.076.543-.071.23-.184.362-.114.133-.26.188v.042q.285.049.474.37.193.313.193.842 0 .662-.294 1.038-.294.37-.747.37h-1.28zm.63-4.201v1.275h.377q.541 0 .541-.648 0-.202-.054-.342-.055-.146-.151-.216-.093-.069-.219-.069h-.495zm0 1.992V7.71h.423q.621 0 .621-.703 0-.237-.063-.397-.058-.167-.176-.251-.113-.084-.277-.084h-.529zM11.967 8.483h-.625V4.505h-.025q-.055.056-.327.348-.273.293-.357.397v-.975q.092-.105.365-.397.273-.3.357-.37h.612v4.975z" style="line-height:125%;-inkscape-font-specification:'San Francisco Display Bold';text-align:center"/></g><g font-weight="700" font-family="San Francisco Display" letter-spacing="0" word-spacing="0" text-anchor="middle"><path d="M2.916 11.163h-.6v-.056q0-.292.062-.557.067-.272.19-.495.125-.223.327-.355.205-.14.465-.14.462 0 .748.398.29.397.29 1.003 0 .132-.018.258-.012.125-.029.216-.013.09-.059.216l-.063.188q-.017.056-.084.188-.063.132-.084.167-.016.034-.1.181-.08.146-.093.167l-.65 1.206v.034h1.234v.85H2.357v-.655l1.079-1.923q.11-.188.164-.3.054-.111.113-.306.059-.195.059-.383 0-.293-.122-.474-.122-.188-.306-.188-.193 0-.31.202-.118.202-.118.495v.062zM5.562 12.473v-.801h.31q.207 0 .332-.188.126-.188.126-.48 0-.28-.126-.454-.125-.18-.323-.18-.205 0-.323.201-.117.195-.126.46H4.84q.013-.64.29-1.052.281-.418.772-.418.454 0 .747.37.298.362.303.933.004.48-.168.787-.172.3-.37.348v.042q.084 0 .168.063.088.05.172.147.084.098.147.237.067.132.105.327.042.195.042.425.004.662-.336 1.08-.34.411-.83.411-.27 0-.483-.118-.21-.125-.34-.334-.13-.21-.202-.474-.067-.265-.071-.571h.583q.017.3.156.487.142.188.369.188.243 0 .382-.202.143-.202.138-.522 0-.314-.138-.509-.139-.202-.386-.202h-.328zM8.922 11.874v.564q0 .697.164 1.052.168.349.466.349.273 0 .424-.265.15-.265.15-.669h.61v.105q0 .718-.324 1.22-.319.501-.868.501-.6 0-.936-.606-.332-.606-.332-1.693v-.557q0-1.094.336-1.7.336-.613.932-.613.541 0 .864.508.328.509.328 1.261v.105h-.61q0-.411-.154-.697-.151-.285-.424-.285-.19 0-.332.153-.138.153-.218.48-.076.321-.076.788zM11.22 9.659h1.122q.356 0 .617.18.26.175.415.51.16.334.235.78.076.438.076 1.003 0 .564-.076 1.01-.075.446-.23.787-.156.335-.42.523-.26.18-.617.18H11.22V9.66zm.635.85v3.274h.394q.386 0 .584-.376.201-.376.201-1.254 0-.293-.025-.53-.021-.237-.08-.446-.054-.216-.143-.355-.088-.146-.226-.23-.135-.083-.31-.083h-.395z" style="line-height:125%;-inkscape-font-specification:'San Francisco Display Bold';text-align:center"/></g></svg>