<svg xmlns="http://www.w3.org/2000/svg" width="16" height="16" viewBox="0 0 16 16"><path d="M3.699 2.949c-.614.12-.798.37-.868.625l-.185 1.254h3.338c.386-.04.737-.141.883-.626l.174-1.253H3.699zm5.6 0c-.606.08-.655.201-.799.809L7.29 13.05h2.056l.543-3.636h2.506c2.089-.244 3.245-1.84 3.342-3.139.138-1.846-.85-3.328-2.163-3.327H9.299zm1.189 2.092h2.319c.613.115.738.865.646 1.385-.09.502-.442 1.075-1.316 1.229h-2.02l.371-2.614zM1.301 7.06c-.614.12-.798.371-.867.627L.25 8.941h5.217c.386-.04.738-.143.884-.628l.173-1.253H1.301zm1.27 4.113c-.614.12-.798.37-.868.625l-.184 1.253h3.336c.387-.039.738-.14.884-.625l.174-1.253H2.57z" style="isolation:auto;mix-blend-mode:normal" color="#000" overflow="visible"/></svg>