<svg xmlns="http://www.w3.org/2000/svg" width="16" height="16" viewBox="0 0 16 16"><path d="M8 .5A7.506 7.506 0 0 0 .5 8c0 4.138 3.363 7.5 7.5 7.5 4.137 0 7.5-3.362 7.5-7.5S12.137.5 8 .5zm0 5.22A2.274 2.274 0 0 1 10.28 8 2.274 2.274 0 0 1 8 10.28 2.274 2.274 0 0 1 5.72 8 2.274 2.274 0 0 1 8 5.72zM1.29 8.24h3.6A3.127 3.127 0 0 0 8 11.12a3.127 3.127 0 0 0 3.11-2.88h3.6A6.708 6.708 0 0 1 8 14.714 6.708 6.708 0 0 1 1.29 8.24z" style="line-height:normal;text-indent:0;text-align:start;text-decoration-line:none;text-decoration-style:solid;text-decoration-color:#000;text-transform:none;block-progression:tb;isolation:auto;mix-blend-mode:normal" color="#000" font-weight="400" font-family="sans-serif" white-space="normal" overflow="visible"/></svg>