<svg xmlns="http://www.w3.org/2000/svg" width="16" height="16" viewBox="0 0 16 16"><path d="M12.158.004l-.123.059a1.745 1.745 0 0 0-.59.453 1.851 1.851 0 0 0-.357.664 1.854 1.854 0 0 0-.072.717 1.783 1.783 0 0 0-.717-.584l-.125-.055-.07.12c-.044.121-.103.237-.155.356a7.212 7.212 0 0 0-2.428-.25l-.12-.226a1.645 1.645 0 0 0-.489-.504L6.8.68l-.09.105a1.637 1.637 0 0 0-.37.918c.002-.013 0-.028 0-.04a7.216 7.216 0 0 0-2.48 1.103c.01.01.018.016.028.022a1.44 1.44 0 0 0-.225-.117l-.129-.05-.062.124-.14.427c-.467.393-.88.842-1.233 1.334C1.048 5.972.426 7.844.852 9.866c.866 4.11 4.13 6.382 8.27 6.025 4.091-.352 6.575-4.437 6.05-8.159-.273-1.923-1.177-3.413-2.416-4.485-.003 0-.009.01-.012.012.065-.083.127-.168.176-.258.12-.225.19-.469.205-.713l.008-.137-.135-.025a1.745 1.745 0 0 0-.941.1c.152-.185.271-.405.345-.651.077-.254.097-.508.069-.75a1.74 1.74 0 0 0-.24-.703z"/><path d="M8.553 3.426c.303.03.6.089.888.17l-.002.03a1.853 1.853 0 0 0 .135.881c-.106-.065-.2-.096-.312-.149-.18.243-.214.568-.29.801-.129.01-.23.033-.312.045.292-.586.217-1.09.072-1.602l-.132.035a1.688 1.688 0 0 0-.168.057l.039-.072c.025-.066.054-.131.082-.197zM6.107 4.026h-.263c-.04.641.293 1.307.533 1.511h-.309c.032-.13-.191-.656-.326-.79-.073.03-.146.08-.21.114.118-.295.045-.614-.018-.85.134-.07.304-.17.377-.208 0 0 .163.16.216.223zM12.213 5.39l-.006.06c.247.316.46.664.633 1.037l-1.196.086c.151-.141.272-.302.364-.473.12-.224.19-.466.205-.709zM3.404 6.027l.166.356a1.7 1.7 0 0 0 .438.46c.181.133.339.2.498.243L2.89 7.2l-.004.01v-.01h.004c.124-.412.297-.807.513-1.174zM9.105 6.068c.082.197.193.372.327.522.042.048.084.09.127.133l-.705.05c.027-.047.054-.095.08-.148.09-.18.147-.369.171-.556zM13.113 10.268c-.17.567-.434 1.1-.775 1.576a5.314 5.314 0 0 1-3.297 2.12c.107-.275.185-.487.299-.779.232-.595.464-1.189.639-1.654l.457 1.658c.013.057.064.101.125.1.07 0 .125-.059.125-.128l-.016-1.932c-.001-.11.057-.437-.115-.442l-.59.035h-.047c-.092.025-.126.191-.154.27-.178.496-.464 1.219-.754 1.96l-.336.86a40.185 40.185 0 0 1 .588-3.367zM8.895 10.57a40.71 40.71 0 0 0-.547 3.115c-.01-.457-.03-.948-.055-1.435a47.185 47.185 0 0 0-.107-1.629zM7.832 10.647a50.667 50.667 0 0 1 .164 3.226 18.826 18.826 0 0 0-1.07-3.162zM6.55 10.738a18.246 18.246 0 0 1 1.125 3.322h-.01l-.825-1.62a.124.124 0 0 0-.04-.067.124.124 0 0 0-.046-.023H6.74l-.525-.209a.13.13 0 0 0-.164.07c-.188.411-.379.821-.569 1.231a5.318 5.318 0 0 1-2.322-2.457z"/><path d="M6.617 12.785l.623 1.23a5.299 5.299 0 0 1-1.353-.38zM2.14 8.453c.15-.104.331-.164.55-.172.22-.01.328.015.428.06.178.08.167.28.153.427l-.461.03c.061-.147-.076-.194-.204-.186-.255.016-.206.18-.206.18.012.045.047.09.138.112.42.097.635.144.69.35a.473.473 0 0 1-.171.51c-.161.134-.34.215-.624.236-.246.018-.397-.028-.49-.094-.18-.126-.132-.271-.133-.428l.458-.035c-.031.255.14.246.27.225.174-.028.215-.132.19-.215-.06-.197-.296-.18-.489-.232-.23-.062-.289-.206-.289-.364 0-.15.04-.3.19-.404zm1.2 1.444l.164-1.188.443-.032L3.8 9.863l-.46.033zm.187-1.365l.05-.289.442-.032-.049.288-.443.032zm.476 1.317l.11-.728c.021-.151.034-.297.037-.438l.443-.034-.01.125a.525.525 0 0 1 .396-.187c.232 0 .364.14.361.258-.007.321-.07.616-.116.915l-.443.032c.048-.255.091-.528.102-.78.005-.106-.05-.113-.13-.107-.066.01-.127.024-.143.076-.078.262-.119.54-.164.828-.142 0-.316.029-.443.04zm2.52-.182l.19-1.331-.495.036.047-.322 1.47-.106-.031.321-.513.037-.189 1.331-.479.035zm.644-.046l.037-.304.362-.026-.038.304zm.506-.036l.857-1.698.567-.04.418 1.606L9 9.49l-.075-.316-.638.046-.153.332-.46.033zm1.192-.743l-.12-.685-.305.715.425-.03zm.776.602l.038-.305.361-.026-.037.305zm.472-.622a1.625 1.625 0 0 1-.001-.198 1.113 1.113 0 0 1 .292-.704c.133-.15.346-.238.64-.266H11.273c.115.01.222.037.322.087.1.05.155.14.164.269a.543.543 0 0 1-.006.127l-.495.033.002-.024v-.021c-.005-.054-.023-.093-.056-.116a.249.249 0 0 0-.103-.044H10.995c-.013 0-.027 0-.04.01-.013 0-.027.01-.04.01a.417.417 0 0 0-.184.169c-.096.143-.087.286-.127.417-.046.144.043.293.061.418.038.058.104.083.197.076H10.913c.015 0 .03 0 .046-.01.016 0 .032-.012.05-.02a.383.383 0 0 0 .114-.099.233.233 0 0 0 .056-.14l.476-.037c.002 0 .004.01.005.012l.002.012a.325.325 0 0 1-.021.114.596.596 0 0 1-.084.158.875.875 0 0 1-.256.224.984.984 0 0 1-.449.125h-.038c-.252.018-.424-.021-.517-.119a.624.624 0 0 1-.179-.392 1.658 1.658 0 0 1-.005-.06zm1.554.476l.038-.305.36-.026-.037.305-.361.026zm.457-.62a1.622 1.622 0 0 1-.001-.198 1.113 1.113 0 0 1 .292-.704c.133-.15.346-.24.64-.266H13.284c.115.01.223.037.323.088.1.05.154.139.164.268a.59.59 0 0 1-.007.127l-.495.033.002-.024V7.98c-.004-.054-.023-.093-.055-.116a.249.249 0 0 0-.104-.044H13.006c-.013.001-.026 0-.04.01-.013 0-.026.01-.04.011a.417.417 0 0 0-.184.168.937.937 0 0 0-.127.417 1.179 1.179 0 0 0-.005.204.44.44 0 0 0 .067.215c.038.058.103.083.196.076H12.925c.015 0 .03 0 .045-.01.016 0 .032-.012.05-.021a.383.383 0 0 0 .115-.098.233.233 0 0 0 .055-.141l.477-.037.004.012.002.012a.328.328 0 0 1-.021.115.596.596 0 0 1-.084.157.876.876 0 0 1-.256.224.984.984 0 0 1-.449.125h-.038c-.252.018-.424-.02-.517-.119a.625.625 0 0 1-.179-.392 1.658 1.658 0 0 1-.005-.06zm1.664.467l.038-.304.361-.026-.037.304zM6.84.969c-.53.942-.347 1.66.313 2.103.589-.93.3-1.509-.312-2.103zM8.34 2.41c-1.008.348-1.107.996-.914 1.835.948-.403.993-1.014.914-1.836zM5.826 2.773c.066 1.07.614 1.35 1.424 1.507-.18-1.017-.515-1.43-1.424-1.507zM3.686 3.02c-.36.838-.064 1.19.558 1.468.394-.867.028-1.16-.558-1.469zM9.863 3.197c-.39.895-.15 1.414.631 1.922.358-.99.216-1.44-.63-1.922zM4.77 5.463c.639-.417.623-.845.379-1.49-.743.456-.634.856-.38 1.49zM10.77 5.203c1.156.061 1.499-.503 1.61-1.238-.928-.145-1.5.312-1.61 1.238zM8.578 3.906c-.953.369-1.137 1.158-.91 1.821.92-.381 1.068-.965.91-1.821zM6.086 4.284c.063.986.57 1.31 1.385 1.465-.127-1.088-.56-1.343-1.385-1.465zM3.207 4.68c.185.862.634.968 1.3.885-.215-.716-.518-1.006-1.3-.885zM9.395 4.756c-.34.887-.157 1.443.63 1.922.447-1.097.19-1.462-.63-1.922zM5.639 5.16c-.736.432-.715.942-.385 1.524.63-.425.693-.872.385-1.524zM4.992 6.783c-.205-.98-.789-.91-1.286-.881.19.762.589.946 1.286.881zM8.766 5.494c.202.595-.017.998-.319 1.309l-.57.04c-.102-.79.262-1.047.889-1.349zM11.047 6.615l-.727.053c.22-.954.79-1.22 1.636-1.218-.057.605-.39.953-.91 1.165zM6.36 5.779c.681.066 1.258.377 1.32 1.08l-.738.053c-.412-.295-.536-.62-.583-1.133zM6.232 6.96l-.656.042c.011-.262.312-.659.543-.734.16.108.195.498.113.693zM10.272 1.662c-.39.895-.15 1.413.63 1.921.36-.99.217-1.439-.63-1.921zM11.178 3.668c1.157.06 1.5-.503 1.611-1.239-.929-.144-1.5.312-1.61 1.239zM12.077.365c.358 1.02.052 1.695-.675 2.016-.417-1.018-.031-1.538.675-2.016z"/></svg>