<svg xmlns="http://www.w3.org/2000/svg" width="16" height="16" viewBox="0 0 16 16"><path d="M.957 1.314A.955.955 0 0 0 0 2.271V13.73c0 .53.427.957.957.957h14.086c.53 0 .957-.427.957-.957V2.27a.955.955 0 0 0-.957-.957H.957zM7.982 2.52c4.898-.017 5.982 4.83 5.877 5.785h-1.716s.111-3.87-4.16-4.127C3.678 4.595 3.84 8.305 3.84 8.305l-1.703.015c-.073-1.148.9-5.752 5.845-5.8zm.079 2.058c3.17-.01 3.872 3.126 3.804 3.744h-1.748c-.048-.546-.335-2.056-2.129-2.07-1.646.037-2.124 1.573-2.056 2.07l-1.657.01c-.046-.743.584-3.723 3.786-3.754zM7.994 6.65a1.718 1.71 0 0 1 .02 0 1.718 1.71 0 0 1 1.718 1.711 1.718 1.71 0 1 1-1.738-1.71zM3.24 10.42l.766.002.445 1.81.03.004.46-1.816h.737l.146 2.34H5.367l-.078-1.967c-.006.002-.043-.008-.045 0l-.55 1.99H4.16l-.521-1.978c-.005-.017-.03-.007-.04-.01l-.093 1.678-.024.287h-.396l.154-2.34zm3.69.553c.39-.03.816.136.816.484v1.322l-.42.026h-.53c-.379 0-.685-.17-.685-.553 0-.44.42-.55.862-.55h.287v-.09c0-.255-.179-.34-.444-.321l-.572.078v-.332l.319-.04.367-.024zm1.965 0c.242-.002.45.009.595.043.042.065.022.228.022.334l-.088-.026c-.415 0-.904-.008-.904.399v.332c0 .252.296.396.574.396l.22.006.198-.027.002.332-.354.043h-.244c-.469 0-.904-.339-.904-.795v-.266c0-.428.454-.771.883-.771zm3.091 0c.508 0 .928.305.928.795v.197c0 .443-.393.84-.818.84h-.176c-.528 0-.883-.377-.883-.907 0-.587.358-.925.95-.925zm-1.148.021h.133v.397h-.2a.916.916 0 0 0-.44.111v1.258h-.466v-1.744h.399v.158l.045-.026c.151-.08.296-.154.529-.154zm1.103.309c-.306 0-.396.244-.396.552v.133c0 .3.117.485.418.485h.045c.347 0 .42-.255.42-.596v-.022c0-.28-.121-.552-.399-.552h-.088zm-5.056.707c-.144 0-.266.09-.266.22 0 .176.067.266.244.266h.242c.077 0 .086-.018.155-.023v-.463h-.375z" style="isolation:auto;mix-blend-mode:normal" color="#000" overflow="visible"/></svg>