<svg xmlns="http://www.w3.org/2000/svg" width="16" height="16" viewBox="0 0 16 16"><path d="M14.15 0c-.21.001-.45.028-.72.088C10.785.669 1.732 2.529 1.732 2.529S.275 2.727.275 3.85v8.337s-.107 1.011 1.457 1.32c1.565.309 12.336 2.47 12.336 2.47s1.659.333 1.659-1.486V1.238S15.627-.008 14.15 0zM1.268 8.406h.86l1.165 2.2-.006-2.2h.615v3.016h-.81L1.939 9.168h-.01v2.254l-.347.012-.314-3.028zm3.746.74c.678 0 .959.282.959.938v.285c0 .225.005.393.01.557a9.7 9.7 0 0 0 .025.496h-.186c-.279 0-.345-.263-.35-.332h-.01c-.133.246-.421.385-.685.385a.89.89 0 0 1-.533-.168l-.135-.899a.673.673 0 0 1 .27-.23c.22-.108.506-.13.748-.13h.318c0-.358-.159-.48-.5-.48-.246 0-.493.096-.687.243l-.018-.497c.225-.103.528-.168.774-.168zm2.322 0c.056 0 .117 0 .178.018v.582a.593.593 0 0 0-.26-.047c-.471 0-.47.587-.47.906v.817h-.58V9.197l.607.014.052.291s.128-.356.473-.356zm1.146 0c.679 0 .96.282.96.938v.285c0 .225.003.393.007.557.005.168.015.323.028.496h-.17c-.266 0-.363-.263-.368-.332h-.007c-.135.246-.424.385-.688.385-.393 0-.777-.239-.777-.662 0-.333.16-.527.38-.635.221-.108.507-.13.749-.13h.318c0-.358-.159-.48-.5-.48-.246 0-.493.096-.687.243l-.018-.497a1.99 1.99 0 0 1 .773-.168zm2.555 0c.527 0 .756.372.756.874v1.402h-.578v-1.188c0-.272-.004-.638-.375-.638-.42 0-.51.453-.51.738l.006 1.082-.283.004-.522-2.223h.768V9.5h.008c.182-.255.428-.354.73-.354zm2.87 0c.677 0 .958.282.958.938v.285c0 .225.006.393.01.557.004.168.013.323.025.496h-.17c-.305-.092-.36-.263-.365-.332h-.01c-.133.246-.423.385-.687.385-.101 0-.2-.017-.293-.047l-.346-1.055a.687.687 0 0 1 .242-.195c.22-.108.507-.13.749-.13h.318c0-.358-.159-.48-.5-.48-.246 0-.493.096-.688.243l-.017-.497c.225-.103.527-.168.773-.168zm-1.762.032h.53l.05.062v2.334c0 .316-.09.797-.67.797a1.15 1.15 0 0 1-.287-.035l.021-.15c.312-.018.356-.078.356-.424V9.178zm-6.95 1.217c-.26 0-.642.043-.642.384 0 .19.16.272.367.272a.488.488 0 0 0 .404-.2c.095-.125.121-.284.121-.456h-.25zm3.47 0c-.26 0-.645.043-.645.384 0 .19.16.272.367.272a.492.492 0 0 0 .406-.2c.095-.125.121-.284.121-.456h-.25zm5.423 0c-.26 0-.645.043-.645.384 0 .19.16.272.368.272a.492.492 0 0 0 .406-.2c.095-.125.12-.284.12-.456h-.25z"/></svg>