<svg xmlns="http://www.w3.org/2000/svg" width="16" height="16" viewBox="0 0 16 16"><path d="M.957 1.314A.955.955 0 0 0 0 2.271V13.73c0 .53.427.957.957.957h14.086c.53 0 .957-.427.957-.957V2.27a.955.955 0 0 0-.957-.957H.957zm8.463.516a15.282 15.282 0 0 0-.889 2.414 14.294 14.294 0 0 0-.506 3.776 14.349 14.349 0 0 0 1.395 6.15 11.443 11.443 0 0 1-.889-1.635l-.127-.306a10.93 10.93 0 0 1-.564-1.797 11.142 11.142 0 0 1-.254-2.412c0-.872.085-1.685.254-2.432.12-.57.31-1.168.564-1.797l.127-.309c.29-.629.585-1.18.889-1.652zM7.006 3.318l.656 2.27a11.33 11.33 0 0 0-.275 2.432c0 .785.095 1.587.275 2.412l-.656 2.25v-2.397l-1.303 2.088.686-2.32-1.852 1.703 1.328-2.067-2.27 1.196 1.85-1.703-2.52.634 2.268-1.2H2.58l2.524-.596-2.524-.635 2.613.017-2.267-1.2 2.52.634-1.85-1.703 2.27 1.195-1.329-2.066L6.39 5.969l-.686-2.324 1.303 2.087V3.318z" style="isolation:auto;mix-blend-mode:normal" color="#000" overflow="visible"/></svg>