<svg xmlns="http://www.w3.org/2000/svg" width="16" height="16" viewBox="0 0 16 16"><path d="M2.951.1a.412.412 0 0 0-.414.41v2.076h10.926V.51a.412.412 0 0 0-.414-.41H2.95zm-.414 2.8v10.2h10.926V2.9H2.537zm7.318 1.81a.752.752 0 0 1 .282 0c.3.295.75.046 1.052.298.333.272.094.623.063.918.118.41-.075.776-.225 1.136-.025.332-.25.579-.466.807-.204.307-.145.763-.538.957-.434.122-.419.616-.822.791-.374.148-.54.569-.877.785-.924.774-2.184.914-3.345.903a30.343 30.343 0 0 1 2.498-2.979c.844-.906 1.77-1.733 2.675-2.576.247-.166-.008-.154-.142-.037-2.035 1.343-3.822 3.037-5.4 4.889.093-.848.204-1.698.43-2.522.061-.329.307-.573.41-.88.088-.289.279-.666.638-.604.315-.297.358-.878.842-.977.483.064.569-.546 1.006-.533.445.117.7-.372 1.128-.354.265.164.519.025.791-.021zm-7.318 8.704v2.076c0 .227.185.41.414.41H13.05c.23 0 .414-.183.414-.41v-2.076H2.537z" style="isolation:auto;mix-blend-mode:normal" color="#000" overflow="visible"/></svg>