<?xml version="1.0" encoding="UTF-8" standalone="no"?>
<!-- Created with Inkscape (http://www.inkscape.org/) -->

<svg
   xmlns:dc="http://purl.org/dc/elements/1.1/"
   xmlns:cc="http://creativecommons.org/ns#"
   xmlns:rdf="http://www.w3.org/1999/02/22-rdf-syntax-ns#"
   xmlns:svg="http://www.w3.org/2000/svg"
   xmlns="http://www.w3.org/2000/svg"
   xmlns:sodipodi="http://sodipodi.sourceforge.net/DTD/sodipodi-0.dtd"
   xmlns:inkscape="http://www.inkscape.org/namespaces/inkscape"
   width="16"
   height="16"
   viewBox="0 0 16 16"
   id="svg5880"
   version="1.1"
   inkscape:version="0.91 r"
   sodipodi:docname="clubgaf.svg">
  <defs
     id="defs5882" />
  <sodipodi:namedview
     id="base"
     pagecolor="#ffffff"
     bordercolor="#666666"
     borderopacity="1.0"
     inkscape:pageopacity="0.0"
     inkscape:pageshadow="2"
     inkscape:zoom="34"
     inkscape:cx="8"
     inkscape:cy="8"
     inkscape:document-units="px"
     inkscape:current-layer="layer1"
     showgrid="false"
     units="px"
     showguides="false"
     inkscape:guide-bbox="true"
     inkscape:window-width="1366"
     inkscape:window-height="713"
     inkscape:window-x="0"
     inkscape:window-y="30"
     inkscape:window-maximized="1">
    <sodipodi:guide
       position="8.0588235,-2.8823529"
       orientation="1,0"
       id="guide5953" />
  </sodipodi:namedview>
  <metadata
     id="metadata5885">
    <rdf:RDF>
      <cc:Work
         rdf:about="">
        <dc:format>image/svg+xml</dc:format>
        <dc:type
           rdf:resource="http://purl.org/dc/dcmitype/StillImage" />
        <dc:title />
      </cc:Work>
    </rdf:RDF>
  </metadata>
  <g
     inkscape:label="Capa 1"
     inkscape:groupmode="layer"
     id="layer1"
     transform="translate(0,-1036.3622)">
    <path
       style="color:#000000;font-style:normal;font-variant:normal;font-weight:normal;font-stretch:normal;font-size:medium;line-height:normal;font-family:sans-serif;text-indent:0;text-align:start;text-decoration:none;text-decoration-line:none;text-decoration-style:solid;text-decoration-color:#000000;letter-spacing:normal;word-spacing:normal;text-transform:none;direction:ltr;block-progression:tb;writing-mode:lr-tb;baseline-shift:baseline;text-anchor:start;white-space:normal;clip-rule:nonzero;display:inline;overflow:visible;visibility:visible;opacity:1;isolation:auto;mix-blend-mode:normal;color-interpolation:sRGB;color-interpolation-filters:linearRGB;solid-color:#000000;solid-opacity:1;fill:#000000;fill-opacity:1;fill-rule:nonzero;stroke:none;stroke-width:0.32960373;stroke-linecap:butt;stroke-linejoin:miter;stroke-miterlimit:4;stroke-dasharray:none;stroke-dashoffset:0;stroke-opacity:1;color-rendering:auto;image-rendering:auto;shape-rendering:auto;text-rendering:auto;enable-background:accumulate"
       d="M 3.7949219 0 L 3.7148438 0.11132812 L 1.234375 3.5449219 L 1.3320312 3.6445312 C 2.4447675 4.7776313 2.566878 5.5076906 2.6679688 6.5253906 C 2.7735114 7.5879906 2.3607182 8.7089719 2.6210938 9.8886719 C 3.461721 13.697672 6.6917732 15.259925 7.8925781 15.953125 L 7.9765625 16 L 8.0585938 15.953125 C 9.3721717 15.194725 12.538582 13.696272 13.378906 9.8886719 C 13.639251 8.7090719 13.228424 7.5881906 13.333984 6.5253906 C 13.435093 5.5074906 13.555287 4.7775312 14.667969 3.6445312 L 14.765625 3.5449219 L 12.205078 0 L 12.082031 0.05859375 C 10.855591 0.63489375 9.999982 1.3828625 8.0039062 1.3515625 L 8 1.3515625 L 7.9980469 1.3515625 C 6.0007556 1.3825625 5.1447132 0.63509375 3.9179688 0.05859375 L 3.7949219 0 z M 3.9003906 0.41796875 C 5.0269478 0.96846875 5.9927766 1.7131406 8.0039062 1.6816406 C 9.630026 1.7059702 10.572514 1.223405 11.470703 0.74609375 L 8.9707031 3.0429688 C 8.6035932 2.9305599 8.2218246 2.8732947 7.8378906 2.8730469 C 5.6968772 2.8734542 3.9613448 4.6089866 3.9609375 6.75 C 3.9625375 7.0246182 3.9933124 7.2982892 4.0527344 7.5664062 L 2.8964844 8.6308594 C 2.9455383 7.9381719 3.0692748 7.2289853 2.9960938 6.4921875 C 2.8974467 5.4990875 2.6932594 4.64285 1.6503906 3.53125 L 3.9003906 0.41796875 z M 13.689453 4.3671875 C 13.212817 5.1046664 13.078327 5.7626072 13.005859 6.4921875 C 12.890322 7.6553875 13.29073 8.7577594 13.056641 9.8183594 C 12.261892 13.419459 9.3530324 14.827281 7.9765625 15.613281 C 7.1536636 15.143367 5.6269377 14.347454 4.4316406 12.876953 L 6.984375 10.529297 C 7.2643113 10.594017 7.5505737 10.627426 7.8378906 10.628906 C 9.9796668 10.628498 11.715515 8.8917761 11.714844 6.75 C 11.71328 6.5728379 11.699576 6.3959912 11.673828 6.2207031 L 13.689453 4.3671875 z "
       transform="translate(0,1036.3622)"
       id="path5955" />
    <path
       style="color:#000000;font-style:normal;font-variant:normal;font-weight:normal;font-stretch:normal;font-size:medium;line-height:normal;font-family:sans-serif;text-indent:0;text-align:start;text-decoration:none;text-decoration-line:none;text-decoration-style:solid;text-decoration-color:#000000;letter-spacing:normal;word-spacing:normal;text-transform:none;direction:ltr;block-progression:tb;writing-mode:lr-tb;baseline-shift:baseline;text-anchor:start;white-space:normal;clip-rule:nonzero;display:inline;overflow:visible;visibility:visible;opacity:1;isolation:auto;mix-blend-mode:normal;color-interpolation:sRGB;color-interpolation-filters:linearRGB;solid-color:#000000;solid-opacity:1;fill:#ffffff;fill-opacity:1;fill-rule:nonzero;stroke:none;stroke-width:0.5;stroke-linecap:butt;stroke-linejoin:miter;stroke-miterlimit:4;stroke-dasharray:none;stroke-dashoffset:0;stroke-opacity:1;color-rendering:auto;image-rendering:auto;shape-rendering:auto;text-rendering:auto;enable-background:accumulate"
       d="m 6.9884974,1039.5839 0.083689,7.0797 0.4120047,-0.011 -0.038622,-3.2381 0.8881855,0 0,3.2687 0.4476134,-0.011 -0.085297,-7.1167 c -0.6189571,-0.2793 -1.2459722,-0.1597 -1.7075666,0.024 z m -0.2615553,0.011 c -1.6099776,0.8367 -2.4500973,2.2449 -2.392334,3.5706 0.074116,1.7011 1.1080336,2.9117 2.4124802,3.3781 l 0,-3.4505 -0.8722914,0 0,0.4119 0.4602867,0 0,2.2902 c -1.0302106,-0.5798 -1.500593,-1.6429 -1.5884709,-2.6297 -0.1069404,-1.2008 0.5072387,-2.3615 1.9988662,-3.1367 z m 2.2620308,0.1056 2.71e-5,6.8627 0.4119776,-0.1999 0,-2.9451 0.6421484,0 0,-0.412 -0.6421484,0 0,-2.6619 c 0.1884783,0.114 0.3866503,0.2229 0.6115694,0.4811 0.314713,0.3615 0.596224,0.8005 0.711352,1.0913 l 0.383035,-0.1513 c -0.145534,-0.3677 -0.44267,-0.8185 -0.783774,-1.2103 -0.3411051,-0.3918 -0.6991561,-0.7301 -1.0879501,-0.8063 z m -0.6552183,3.3073 -0.8930199,0 -0.037014,-3.1096 c 0.037558,-0.1129 0.814486,-0.098 0.9300339,0 z"
       id="path5962"
       inkscape:connector-curvature="0"
       sodipodi:nodetypes="cccccccccccsccccccsccccccccccccccccccccc" />
  </g>
</svg>
