<?xml version="1.0" encoding="UTF-8" standalone="no"?>
<!-- Created with Inkscape (http://www.inkscape.org/) -->

<svg
   xmlns:dc="http://purl.org/dc/elements/1.1/"
   xmlns:cc="http://creativecommons.org/ns#"
   xmlns:rdf="http://www.w3.org/1999/02/22-rdf-syntax-ns#"
   xmlns:svg="http://www.w3.org/2000/svg"
   xmlns="http://www.w3.org/2000/svg"
   xmlns:sodipodi="http://sodipodi.sourceforge.net/DTD/sodipodi-0.dtd"
   xmlns:inkscape="http://www.inkscape.org/namespaces/inkscape"
   width="16"
   height="16"
   id="svg4610"
   version="1.1"
   inkscape:version="0.91 r"
   viewBox="0 0 16 16"
   sodipodi:docname="dineromail.svg">
  <defs
     id="defs4612" />
  <sodipodi:namedview
     id="base"
     pagecolor="#ffffff"
     bordercolor="#666666"
     borderopacity="1.0"
     inkscape:pageopacity="0.0"
     inkscape:pageshadow="2"
     inkscape:zoom="11.313708"
     inkscape:cx="1.6705445"
     inkscape:cy="13.405941"
     inkscape:current-layer="layer1"
     showgrid="true"
     inkscape:grid-bbox="true"
     inkscape:document-units="px"
     inkscape:window-width="1366"
     inkscape:window-height="713"
     inkscape:window-x="0"
     inkscape:window-y="30"
     inkscape:window-maximized="1" />
  <metadata
     id="metadata4615">
    <rdf:RDF>
      <cc:Work
         rdf:about="">
        <dc:format>image/svg+xml</dc:format>
        <dc:type
           rdf:resource="http://purl.org/dc/dcmitype/StillImage" />
        <dc:title></dc:title>
      </cc:Work>
    </rdf:RDF>
  </metadata>
  <g
     id="layer1"
     inkscape:label="Layer 1"
     inkscape:groupmode="layer">
    <g
       id="g4583"
       transform="matrix(6.4118051,0,0,6.4118051,-130.59499,-6699.7249)"
       style="fill:#000000">
      <g
         id="g4318"
         transform="matrix(0.022919,0,0,-0.022919,22.063229,1046.2168)"
         style="fill:#000000">
        <path
           d="M 2.0487788,-0.61056632 C 1.2231578,1.2294847 0.12717116,2.8237487 -1.2391812,4.1733429 -2.6066508,5.5229371 -4.1528746,6.6703156 -5.8800871,7.6110095 -7.6061823,8.5528207 -9.376966,9.3940826 -11.19579,10.132561 c -1.81659,0.738478 -3.587373,1.430033 -5.314586,2.071314 -1.727212,0.644632 -3.273436,1.336188 -4.639788,2.074666 -1.366353,0.738478 -2.462339,1.569685 -3.28796,2.496973 -0.826738,0.925053 -1.23899,2.033329 -1.23899,3.322593 0,1.035658 0.193278,1.977469 0.58542,2.824317 0.38879,0.847965 1.020016,1.562982 1.891442,2.14505 0.87031,0.582068 1.983055,1.037892 3.333766,1.366352 1.351829,0.330696 3.001954,0.494926 4.954843,0.494926 1.110511,0 2.281351,-0.06256 3.513637,-0.188809 1.23117,-0.127362 2.4556361,-0.306117 3.6711646,-0.539614 1.2166458,-0.23685 2.3953063,-0.515036 3.5359815,-0.826738 1.1417924,-0.31282 2.1930906,-0.661391 3.1538944,-1.035658 l 0,10.600124 c -0.9608038,0.249139 -2.0199225,0.492692 -3.1751215,0.729541 -1.1574334,0.234615 -2.3584381,0.439065 -3.6041315,0.611116 -1.2468105,0.173168 -2.5081445,0.313937 -3.7840025,0.424541 -1.241225,0.107253 -2.42994,0.159762 -3.571733,0.16423 l 0,6.326782 -6.668648,0 0,-6.869747 c -1.301554,-0.230146 -2.539427,-0.513919 -3.656641,-0.893771 -2.823199,-0.956335 -5.134714,-2.2456 -6.937897,-3.861091 -1.802066,-1.617726 -3.12373,-3.510286 -3.963875,-5.676563 -0.840144,-2.168512 -1.261334,-4.462152 -1.261334,-6.879802 0,-2.638859 0.411135,-4.891162 1.23899,-6.76026 0.825621,-1.869099 1.914905,-3.4778868 3.265616,-4.8297154 1.350711,-1.3495942 2.890232,-2.4824489 4.618562,-3.3929781 1.724978,-0.9105292 3.482355,-1.7260952 5.269897,-2.4489325 1.786424,-0.72395448 3.542684,-1.39763436 5.269897,-2.02550847 1.727212,-0.62787413 3.265616,-1.33507043 4.617444,-2.11935443 1.350712,-0.7854013 2.438878,-1.6914616 3.265616,-2.7103605 0.8267381,-1.0211334 1.2389899,-2.2835849 1.2389899,-3.7929406 0,-1.099338 -0.2100361,-2.102596 -0.6301085,-3.014243 -0.4211896,-0.911646 -1.0971034,-1.697047 -2.0277434,-2.356203 -0.929521,-0.659157 -2.132761,-1.178661 -3.603014,-1.555162 -1.47137,-0.375384 -3.258912,-0.564193 -5.361508,-0.564193 -1.412159,0 -2.867888,0.09385 -4.369423,0.281538 -1.502653,0.188809 -3.012009,0.446885 -4.52695,0.778698 -1.517177,0.328461 -3.026532,0.7139 -4.52695,1.154082 -1.50377,0.439065 -2.943859,0.909412 -4.324735,1.414392 l 0,-11.450323 c 2.820965,-0.879247 5.675446,-1.507122 8.558975,-1.883623 2.169629,-0.284889 4.39847,-0.461409 6.687641,-0.531793 l 0,-5.98268 6.667532,0 0,6.186013 c 1.83223,0.193278 3.58849,0.49716 5.249787,0.941811 2.9416236,0.785401 5.4799332,1.985289 7.6126942,3.601897 2.1316438,1.618843 3.79070615,3.66893 4.9783043,6.148027 1.1853638,2.482449 1.7786043,5.401728 1.7786043,8.7634245 0,2.5137309 -0.4133691,4.688946 -1.23899,6.52452818"
           style="fill:#000000;fill-opacity:1;fill-rule:nonzero;stroke:none"
           id="path4320"
           inkscape:connector-curvature="0" />
      </g>
      <g
         id="g4322"
         transform="matrix(0.022919,0,0,-0.022919,21.690135,1044.9831)"
         style="fill:#000000">
        <path
           d="m 0,0 c -8.678,0 -16.831,-2.241 -23.921,-6.164 -0.443,-0.246 -0.882,-0.499 -1.316,-0.756 l -1.15,-2.769 1.736,-0.448 c 0.711,0.437 1.434,0.856 2.171,1.25 5.645,3.023 12.015,4.735 18.762,4.735 23.126,0 41.872,-19.988 41.872,-44.64 0,-24.656 -18.746,-44.643 -41.872,-44.643 -23.126,0 -41.872,19.987 -41.872,44.643 0,4.329 0.589,8.507 1.666,12.466 l 4.994,-5.893 9.775,27.6 -4.284,-2.734 -8.008,-5.107 -3.712,-2.369 -9.518,-6.575 0,-3.633 7.335,0 0.005,-0.003 c -1.393,-4.571 -2.148,-9.418 -2.148,-14.446 0,-27.33 22.154,-49.486 49.485,-49.486 27.33,0 49.486,22.156 49.486,49.486 C 49.486,-22.156 27.33,0 0,0"
           style="fill:#000000;fill-opacity:1;fill-rule:nonzero;stroke:none"
           id="path4324"
           inkscape:connector-curvature="0" />
      </g>
      <g
         id="g4326"
         transform="matrix(0.022919,0,0,-0.022919,20.437,1045.919)"
         style="fill:#000000">
        <path
           d="m 3.6371209,2.9096967 c 0,0 -24.6560009,-48.7950007 36.0769991,-64.1070007 0,0 -46.9779992,16.092 -36.0769991,64.1070007"
           style="fill:#000000;fill-opacity:1;fill-rule:nonzero;stroke:none"
           id="path4328"
           inkscape:connector-curvature="0" />
      </g>
    </g>
  </g>
</svg>
