<?xml version="1.0" encoding="UTF-8" standalone="no"?>
<!-- Created with Inkscape (http://www.inkscape.org/) -->

<svg
   xmlns:dc="http://purl.org/dc/elements/1.1/"
   xmlns:cc="http://creativecommons.org/ns#"
   xmlns:rdf="http://www.w3.org/1999/02/22-rdf-syntax-ns#"
   xmlns:svg="http://www.w3.org/2000/svg"
   xmlns="http://www.w3.org/2000/svg"
   xmlns:sodipodi="http://sodipodi.sourceforge.net/DTD/sodipodi-0.dtd"
   xmlns:inkscape="http://www.inkscape.org/namespaces/inkscape"
   width="16"
   height="16"
   viewBox="0 0 16 16"
   id="svg2"
   version="1.1"
   inkscape:version="0.91 r"
   sodipodi:docname="dinmail-dm.svg">
  <defs
     id="defs4">
    <clipPath
       id="clipPath4185"
       clipPathUnits="userSpaceOnUse">
      <path
         inkscape:connector-curvature="0"
         id="path4187"
         d="M 0,600 800,600 800,0 0,0 0,600 Z" />
    </clipPath>
  </defs>
  <sodipodi:namedview
     id="base"
     pagecolor="#ffffff"
     bordercolor="#666666"
     borderopacity="1.0"
     inkscape:pageopacity="0.0"
     inkscape:pageshadow="2"
     inkscape:zoom="16"
     inkscape:cx="0.833309"
     inkscape:cy="8.9113073"
     inkscape:document-units="px"
     inkscape:current-layer="layer1"
     showgrid="false"
     units="px"
     inkscape:window-width="1366"
     inkscape:window-height="713"
     inkscape:window-x="0"
     inkscape:window-y="30"
     inkscape:window-maximized="1" />
  <metadata
     id="metadata7">
    <rdf:RDF>
      <cc:Work
         rdf:about="">
        <dc:format>image/svg+xml</dc:format>
        <dc:type
           rdf:resource="http://purl.org/dc/dcmitype/StillImage" />
        <dc:title />
      </cc:Work>
    </rdf:RDF>
  </metadata>
  <g
     inkscape:label="Capa 1"
     inkscape:groupmode="layer"
     id="layer1"
     transform="translate(0,-1036.3622)">
    <path
       style="fill:#000000;fill-opacity:1;fill-rule:nonzero;stroke:none"
       d="m 0.10000814,1047.8492 1.48421866,-6.9891 c 0.9273649,0.01 1.8555134,-0.016 2.7822051,0.018 0.5681809,0.07 1.1681417,0.1932 1.5960996,0.6046 0.7549973,0.6669 0.9378542,1.746 0.8656691,2.7079 -0.092504,1.2327 -0.7123476,2.4601 -1.757962,3.1446 -0.6840542,0.4277 -1.5058176,0.5387 -2.2984997,0.5293 -0.9295877,0.01 -1.90179682,0 -2.67173076,-0.015 z"
       id="path4191-2" />
    <path
       inkscape:connector-curvature="0"
       id="path4215-0"
       style="fill:#000000;fill-opacity:1;fill-rule:nonzero;stroke:none"
       d="m 11.438369,1047.8485 -1.4635184,0 -0.2709341,-5.8395 -1.1922059,5.8395 -1.3917789,0 1.5657861,-6.9888 2.2000982,0 0.230101,4.8959 2.558419,-4.8959 2.225664,0 -1.571035,6.9888 -1.40676,0 1.478308,-5.7971 -2.962148,5.7971 z" />
    <path
       style="fill:#ffffff;fill-opacity:1;fill-rule:evenodd;stroke:none"
       d="m 3.8319246,1046.5805 c 0.7240338,-0.1895 1.1214651,-0.9698 1.3669795,-1.6453 0.2025217,-0.6652 0.2558562,-1.3978 0.064566,-2.0713 -0.1507381,-0.4615 -0.5849341,-0.8261 -1.0798408,-0.8337 -0.4626887,-0.037 -0.9273148,-0.017 -1.3909927,-0.022 -0.3315623,1.572 -0.7660259,3.1437 -1.0956366,4.7159 0.7559208,0.033 1.5377163,0.013 2.1349246,-0.1436 z"
       id="path5237" />
  </g>
</svg>
