<?xml version="1.0" encoding="UTF-8" standalone="no"?>
<!-- Created with Inkscape (http://www.inkscape.org/) -->

<svg
   xmlns:dc="http://purl.org/dc/elements/1.1/"
   xmlns:cc="http://creativecommons.org/ns#"
   xmlns:rdf="http://www.w3.org/1999/02/22-rdf-syntax-ns#"
   xmlns:svg="http://www.w3.org/2000/svg"
   xmlns="http://www.w3.org/2000/svg"
   xmlns:sodipodi="http://sodipodi.sourceforge.net/DTD/sodipodi-0.dtd"
   xmlns:inkscape="http://www.inkscape.org/namespaces/inkscape"
   width="16"
   height="16"
   viewBox="0 0 16 16"
   id="svg4164"
   version="1.1"
   inkscape:version="0.91 r"
   sodipodi:docname="mergus.svg">
  <defs
     id="defs4166">
    <linearGradient
       id="linearGradient4106">
      <stop
         style="stop-color:#76cdda;stop-opacity:1;"
         offset="0"
         id="stop4108" />
      <stop
         style="stop-color:#76cdda;stop-opacity:0;"
         offset="1"
         id="stop4110" />
    </linearGradient>
  </defs>
  <sodipodi:namedview
     id="base"
     pagecolor="#ffffff"
     bordercolor="#666666"
     borderopacity="1.0"
     inkscape:pageopacity="0.0"
     inkscape:pageshadow="2"
     inkscape:zoom="32"
     inkscape:cx="1.3992857"
     inkscape:cy="8"
     inkscape:document-units="px"
     inkscape:current-layer="layer1"
     showgrid="false"
     units="px"
     inkscape:window-width="1366"
     inkscape:window-height="713"
     inkscape:window-x="0"
     inkscape:window-y="30"
     inkscape:window-maximized="1" />
  <metadata
     id="metadata4169">
    <rdf:RDF>
      <cc:Work
         rdf:about="">
        <dc:format>image/svg+xml</dc:format>
        <dc:type
           rdf:resource="http://purl.org/dc/dcmitype/StillImage" />
        <dc:title />
      </cc:Work>
    </rdf:RDF>
  </metadata>
  <g
     inkscape:label="Capa 1"
     inkscape:groupmode="layer"
     id="layer1"
     transform="translate(0,-1036.3622)">
    <path
       style="color:#000000;clip-rule:nonzero;display:inline;overflow:visible;visibility:visible;opacity:1;isolation:auto;mix-blend-mode:normal;color-interpolation:sRGB;color-interpolation-filters:linearRGB;solid-color:#000000;solid-opacity:1;fill:#000000;fill-opacity:1;fill-rule:nonzero;stroke:none;stroke-width:1;stroke-linecap:butt;stroke-linejoin:miter;stroke-miterlimit:4;stroke-dasharray:none;stroke-dashoffset:0;stroke-opacity:1;color-rendering:auto;image-rendering:auto;shape-rendering:auto;text-rendering:auto;enable-background:accumulate"
       d="m 7.9999998,1036.4623 -5.1382133,3.9499 0,7.9 5.1382133,3.95 5.1382132,-3.95 0,-7.9 -5.1382132,-3.9499 z"
       id="path5249" />
    <path
       style="color:#000000;clip-rule:nonzero;display:inline;overflow:visible;visibility:visible;opacity:1;isolation:auto;mix-blend-mode:normal;color-interpolation:sRGB;color-interpolation-filters:linearRGB;solid-color:#000000;solid-opacity:1;fill:#ffffff;fill-opacity:1;fill-rule:evenodd;stroke:none;stroke-width:1;stroke-linecap:butt;stroke-linejoin:miter;stroke-miterlimit:4;stroke-dasharray:none;stroke-dashoffset:0;stroke-opacity:1;color-rendering:auto;image-rendering:auto;shape-rendering:auto;text-rendering:auto;enable-background:accumulate"
       d="m 7.0946542,1038.5007 1.561e-4,0 c 0.147553,10e-4 0.2961273,0.011 0.4107574,0.073 0.179924,0.1 0.3217514,0.2906 0.4043577,0.5273 0.3867197,0.5829 0.7835663,0.8937 1.1086662,0.9823 0.4257718,0.1158 0.8049189,-0.1085 1.1527144,-0.4537 -0.09924,0.2176 -0.327119,0.9053 -1.2895832,0.7945 -0.6869527,-0.087 -0.7492656,-0.804 -0.9631104,-1.2964 0.076652,0.2354 0.095949,0.5136 0.036274,0.7934 -0.1577297,0.6722 -0.7882355,1.7512 -0.8079522,2.1703 -0.010667,0.2267 0.096152,0.5571 0.1063856,0.5882 0.4025511,0.4071 1.3483078,0.2225 1.9333837,0.5341 0.065625,0.035 0.1281195,0.075 0.1893001,0.1169 0.1286236,0.081 0.2526814,0.178 0.3717399,0.2946 0.4139545,0.358 0.8108525,0.7355 1.4736995,0.6651 0.381608,-0.056 0.545033,-0.3291 0.612252,-0.6997 0.221281,0.3649 0.365908,0.666 0.01479,1.118 0.152323,0.016 0.310629,-0.012 0.514857,-0.308 -0.004,1.1197 -0.408019,1.2075 -0.766037,1.4141 0.30105,0.065 0.330265,0.1765 0,0.5727 -0.224384,0.2692 -0.584997,0.4359 -1.142046,0.4892 -0.152976,0.097 -0.349829,0.1869 -0.251179,0.3354 0.03113,0.1702 -0.04326,0.2997 -0.170705,0.4055 0.0482,0.678 3.91e-4,1.4338 0.434231,2.0373 -0.4993574,0.1201 -0.937792,0.2917 -1.3077207,0.5676 -0.037729,-0.1849 -0.1781682,-0.3184 -0.7318961,-0.2445 0.1868864,-0.1701 0.5731536,-0.2167 0.019509,-0.4112 0.52109,0.015 1.0240608,-0.025 1.4932089,-0.1666 0.016628,-0.5807 -0.1728991,-1.0865 -0.3537557,-1.5688 -0.3958197,0.061 -0.6235838,-0.2975 -0.9029059,-0.5216 -0.00196,-10e-4 -0.00398,0 -0.00594,0 -0.00833,0.074 -0.048912,0.2059 -0.2260318,0.2688 -0.1364499,0.582 -0.075951,1.0779 -0.072854,1.5897 -0.5271458,0.072 -1.0647288,0.086 -1.668944,0.2617 0.2082512,-0.1942 0.1502693,-0.3147 -0.2927889,-0.3523 0.189403,-0.04 0.5607989,-0.045 0.3708254,-0.1859 0.3911811,0.014 0.8059738,0.041 1.2491928,-0.076 0.073048,-0.4045 0.070796,-0.8262 -0.00976,-1.2309 7.8e-5,-10e-5 3.121e-4,-10e-5 4.681e-4,-2e-4 -0.3436834,-0.1178 -0.4344329,-0.5868 -0.4526722,-0.7082 -0.9370838,-0.3239 -1.851959,-0.6813 -1.9460343,-1.869 -0.060545,-0.7643 0.25637,-1.5542 0.1675037,-2.3188 7.81e-5,10e-5 2.342e-4,10e-5 3.122e-4,2e-4 -0.047314,-0.3939 -0.1032899,-0.7886 -0.1286385,-1.1819 -0.00218,-0.034 -0.00535,-0.068 -0.00777,-0.1013 -0.5489007,-0.039 -1.1356124,-0.1609 -1.5701787,-0.167 -0.169407,0 -0.1861544,-0.023 -0.2373104,-0.091 -0.00147,0 -0.00175,-0.01 -0.00274,-0.01 -0.025848,0 -0.049176,0 -0.067368,-0.01 -0.2696128,-0.1522 -0.1076981,-0.5054 0.011737,-0.5797 0.1004946,-0.063 0.2123301,-0.1089 0.2972088,-0.115 0.9563837,-0.069 1.1227715,-0.1595 1.4490091,-0.2629 -0.1357304,-1.3296 0.9039369,-1.6575 1.5534133,-1.6741 z"
       id="path5247" />
    <path
       style="color:#000000;clip-rule:nonzero;display:inline;overflow:visible;visibility:visible;opacity:1;isolation:auto;mix-blend-mode:normal;color-interpolation:sRGB;color-interpolation-filters:linearRGB;solid-color:#000000;solid-opacity:1;fill:#000000;fill-opacity:1;fill-rule:nonzero;stroke:none;stroke-width:1;stroke-linecap:butt;stroke-linejoin:miter;stroke-miterlimit:4;stroke-dasharray:none;stroke-dashoffset:0;stroke-opacity:1;color-rendering:auto;image-rendering:auto;shape-rendering:auto;text-rendering:auto;enable-background:accumulate"
       d="m 5.7663582,1039.4067 c -0.092347,0.012 -0.1806856,0.1222 -0.208199,0.2692 -0.03144,0.168 0.028634,0.32 0.1341252,0.34 0.1054929,0.02 0.2163866,-0.1004 0.2478267,-0.2683 0.031441,-0.1679 -0.028482,-0.3204 -0.1339731,-0.34 -0.013186,0 -0.026588,0 -0.039779,-9e-4 z"
       id="path5245" />
    <path
       style="color:#000000;clip-rule:nonzero;display:inline;overflow:visible;visibility:visible;opacity:1;isolation:auto;mix-blend-mode:normal;color-interpolation:sRGB;color-interpolation-filters:linearRGB;solid-color:#000000;solid-opacity:1;fill:#000000;fill-opacity:1;fill-rule:nonzero;stroke:none;stroke-width:1;stroke-linecap:butt;stroke-linejoin:miter;stroke-miterlimit:4;stroke-dasharray:none;stroke-dashoffset:0;stroke-opacity:1;color-rendering:auto;image-rendering:auto;shape-rendering:auto;text-rendering:auto;enable-background:accumulate"
       d="m 6.7758028,1039.56 c -0.1170882,0 -0.2343856,0.1332 -0.2691657,0.319 -0.037097,0.1982 0.033735,0.3779 0.1582072,0.4012 0.1244743,0.024 0.255386,-0.118 0.2924838,-0.3164 0.037098,-0.1981 -0.033733,-0.3779 -0.1582057,-0.4013 -0.00778,0 -0.015514,0 -0.023319,0 z"
       id="path5243" />
    <path
       style="color:#000000;clip-rule:nonzero;display:inline;overflow:visible;visibility:visible;opacity:1;isolation:auto;mix-blend-mode:normal;color-interpolation:sRGB;color-interpolation-filters:linearRGB;solid-color:#000000;solid-opacity:1;fill:#ffffff;fill-opacity:1;fill-rule:evenodd;stroke:none;stroke-width:1;stroke-linecap:butt;stroke-linejoin:miter;stroke-miterlimit:4;stroke-dasharray:none;stroke-dashoffset:0;stroke-opacity:1;color-rendering:auto;image-rendering:auto;shape-rendering:auto;text-rendering:auto;enable-background:accumulate"
       d="m 5.7905924,1039.611 c 0.00515,-7e-4 0.011927,-7e-4 0.01707,0 -0.010121,0.01 -0.018515,0.026 -0.021948,0.045 -0.00628,0.034 0.00574,0.063 0.026825,0.067 0.02108,0 0.042482,-0.02 0.048772,-0.054 0.00956,0.027 0.01398,0.061 0.0073,0.095 -0.014005,0.074 -0.062743,0.1286 -0.1097388,0.1197 -0.046996,-0.01 -0.075126,-0.078 -0.061119,-0.1516 0.012256,-0.066 0.05168,-0.1146 0.092821,-0.1198 z"
       id="path5241" />
    <path
       style="color:#000000;clip-rule:nonzero;display:inline;overflow:visible;visibility:visible;opacity:1;isolation:auto;mix-blend-mode:normal;color-interpolation:sRGB;color-interpolation-filters:linearRGB;solid-color:#000000;solid-opacity:1;fill:#ffffff;fill-opacity:1;fill-rule:evenodd;stroke:none;stroke-width:1;stroke-linecap:butt;stroke-linejoin:miter;stroke-miterlimit:4;stroke-dasharray:none;stroke-dashoffset:0;stroke-opacity:1;color-rendering:auto;image-rendering:auto;shape-rendering:auto;text-rendering:auto;enable-background:accumulate"
       d="m 6.771382,1039.7922 c 0.00465,-7e-4 0.00997,-4e-4 0.014631,0 -0.00892,0.011 -0.016223,0.024 -0.01951,0.042 -0.00738,0.04 0.00694,0.076 0.031702,0.081 0.024767,0 0.048699,-0.024 0.056089,-0.064 0.013877,0.033 0.018345,0.077 0.00976,0.1223 -0.01663,0.088 -0.075889,0.1525 -0.1316865,0.142 -0.055797,-0.011 -0.087503,-0.091 -0.070872,-0.1813 0.014552,-0.077 0.061046,-0.1353 0.1098908,-0.1417 z"
       id="path4638" />
  </g>
</svg>
