<?xml version="1.0" encoding="UTF-8" standalone="no"?>
<!-- Created with Inkscape (http://www.inkscape.org/) -->

<svg
   xmlns:dc="http://purl.org/dc/elements/1.1/"
   xmlns:cc="http://creativecommons.org/ns#"
   xmlns:rdf="http://www.w3.org/1999/02/22-rdf-syntax-ns#"
   xmlns:svg="http://www.w3.org/2000/svg"
   xmlns="http://www.w3.org/2000/svg"
   xmlns:sodipodi="http://sodipodi.sourceforge.net/DTD/sodipodi-0.dtd"
   xmlns:inkscape="http://www.inkscape.org/namespaces/inkscape"
   width="16"
   height="16"
   id="svg3350"
   version="1.1"
   inkscape:version="0.91 r"
   viewBox="0 0 16 16"
   sodipodi:docname="mhands.svg">
  <defs
     id="defs3352" />
  <sodipodi:namedview
     id="base"
     pagecolor="#ffffff"
     bordercolor="#666666"
     borderopacity="1.0"
     inkscape:pageopacity="0.0"
     inkscape:pageshadow="2"
     inkscape:zoom="34"
     inkscape:cx="4.7941176"
     inkscape:cy="8"
     inkscape:current-layer="layer1"
     showgrid="true"
     inkscape:grid-bbox="true"
     inkscape:document-units="px"
     inkscape:window-width="1366"
     inkscape:window-height="713"
     inkscape:window-x="0"
     inkscape:window-y="30"
     inkscape:window-maximized="1" />
  <metadata
     id="metadata3355">
    <rdf:RDF>
      <cc:Work
         rdf:about="">
        <dc:format>image/svg+xml</dc:format>
        <dc:type
           rdf:resource="http://purl.org/dc/dcmitype/StillImage" />
        <dc:title></dc:title>
      </cc:Work>
    </rdf:RDF>
  </metadata>
  <g
     id="layer1"
     inkscape:label="Layer 1"
     inkscape:groupmode="layer">
    <path
       style="fill:#000000;fill-opacity:1;fill-rule:nonzero;stroke:none"
       d="M 8 2.5332031 C 3.6371767 2.5332031 0.1015625 4.8527913 0.1015625 7.6992188 C 0.1015625 7.7726928 0.099609375 7.975874 0.099609375 8.0019531 C 0.099609375 11.021884 3.1918085 13.466797 8 13.466797 C 12.837485 13.466797 15.900391 11.021884 15.900391 8.0019531 L 15.900391 7.6992188 C 15.900391 4.8527913 12.362823 2.5332031 8 2.5332031 z M 8.0019531 2.8378906 C 12.196989 2.8378906 15.597656 5.0136238 15.597656 7.6972656 C 15.597656 10.380789 12.196989 12.556641 8.0019531 12.556641 C 3.806917 12.556641 0.40625 10.380789 0.40625 7.6972656 C 0.40625 5.0136238 3.806917 2.8378906 8.0019531 2.8378906 z "
       id="path3469" />
    <path
       inkscape:connector-curvature="0"
       id="path3479"
       style="fill:#000000;fill-opacity:1;fill-rule:nonzero;stroke:none"
       d="m 7.4175205,10.984682 c -0.3340263,-3.81e-4 -0.6054151,-0.259719 -0.6177997,-0.59053 -8.574e-4,-0.02822 -0.0037,-0.103601 -0.06752,-0.103601 -0.026198,0 -0.048943,0.01572 -0.07526,0.03942 -0.073236,0.06812 -0.1668345,0.137421 -0.3035412,0.137421 -0.061804,0 -0.1290853,-0.01453 -0.1998203,-0.04358 -0.3527222,-0.14278 -0.3576046,-0.385113 -0.3431956,-0.482403 0.00381,-0.02596 0.00513,-0.053111 -0.012861,-0.07395 l -0.021554,-0.019649 -0.02203,0 c -0.017981,0 -0.036439,0.00738 -0.061327,0.025007 -0.1020537,0.071688 -0.1998204,0.1063406 -0.2992542,0.1063406 -0.054778,0 -0.1109848,-0.010956 -0.1671917,-0.032509 C 4.761863,9.7658734 4.7985404,9.3276501 4.8211661,9.1958258 c 0.00333,-0.026794 -0.00321,-0.047514 -0.020244,-0.061208 L 4.7681744,9.1075857 4.7374511,9.13688 C 4.6469485,9.2240484 4.5286996,9.2719195 4.4042585,9.2719195 4.1383474,9.271567 3.9218555,9.0555467 3.9220937,8.7895165 3.922189,8.5234864 4.1389428,8.3075899 4.4048539,8.3079472 c 0.2403084,0 0.444892,0.180648 0.4754962,0.4207182 l 0.016672,0.1294426 0.071092,-0.1095558 c 0.00798,-0.012742 0.2027974,-0.3073518 0.5609974,-0.3069945 0.068115,0 0.1383738,0.010955 0.2093469,0.032748 0.2855597,0.087288 0.3337881,0.3461727 0.3412903,0.4539423 0.005,0.062875 0.049776,0.065972 0.058588,0.065972 0.02465,0 0.042751,-0.015719 0.055731,-0.029175 0.053944,-0.056207 0.1712406,-0.1498058 0.3548657,-0.1498058 0.084072,3.525e-4 0.1735031,0.020244 0.265792,0.060018 0.4539422,0.1945807 0.2480487,0.7712969 0.245548,0.7772511 -0.03894,0.095623 -0.040488,0.1377783 -0.00381,0.1621902 l 0.017743,0.00857 0.013218,0 c 0.020601,0 0.046085,-0.00893 0.088002,-0.023221 0.061804,-0.021316 0.1549262,-0.053349 0.2422137,-0.05323 l 1.905e-4,0 c 0.3415284,0.00369 0.6194668,0.2817487 0.6192287,0.6194667 -1.906e-4,0.341171 -0.2781766,0.618395 -0.619586,0.618395 z M 12.225474,8.2054172 C 11.476088,7.5515355 9.7441531,6.0458572 9.2750874,5.6938495 9.0070329,5.4921238 8.8242413,5.3857832 8.6639564,5.3379121 8.5917924,5.31612 8.4920013,5.2914699 8.3636304,5.2912318 c -0.1193206,0 -0.2474533,0.021554 -0.3811828,0.064185 -0.303303,0.095981 -0.605177,0.3359316 -0.8972862,0.5681423 l -0.015123,0.011908 C 6.7979346,6.1517215 6.5166618,6.3754774 6.3038615,6.4229913 6.2109772,6.4439498 6.1154731,6.4546672 6.0202072,6.4546672 5.7818041,6.4543147 5.5676939,6.3855994 5.4874323,6.2831885 c -0.013337,-0.01691 -0.00476,-0.04418 0.026317,-0.083715 l 0.00405,-0.00512 0.6592403,-0.7105649 C 6.6932611,4.9674466 7.1810228,4.4799231 8.303732,4.4542013 8.3221898,4.4536107 8.341362,4.4532487 8.3598198,4.4532487 9.0585956,4.453725 9.757014,4.7665546 9.8354894,4.8027556 10.490681,5.1223729 11.167069,5.2846822 11.846792,5.2852777 12.555332,5.285392 13.286379,5.1101074 14.054937,4.7563135 13.969079,4.6839113 13.879767,4.6136527 13.787955,4.5448231 13.112638,4.8374086 12.469474,4.985309 11.848697,4.9851899 11.214702,4.9847136 10.581422,4.8324071 9.9664801,4.5324385 9.9340896,4.5169578 9.1627927,4.1531609 8.3601771,4.1528037 c -0.021078,0 -0.042393,3.62e-4 -0.063352,7.145e-4 -0.9430138,0.022268 -1.4741215,0.35689 -1.8313688,0.6503092 -0.3473635,0.00845 -0.6472131,0.09217 -0.9139577,0.1667154 -0.2379267,0.06621 -0.4433439,0.1236075 -0.6437597,0.1234885 -0.082643,0 -0.2312581,-0.00762 -0.2444762,-0.00822 -0.2306627,-0.00691 -1.3919546,-0.291752 -2.315558,-0.641378 -0.094313,0.066686 -0.1850541,0.1355158 -0.2734133,0.2058935 0.964925,0.3955919 2.139316,0.7016337 2.5100196,0.7255693 0.1030063,0.00667 0.2129194,0.018339 0.3228325,0.018577 0.2451908,0 0.4899052,-0.06871 0.726641,-0.1350394 C 5.7737065,5.2202586 5.9281564,5.177508 6.0903467,5.1464275 6.0471198,5.18894 6.0038929,5.2321669 5.9604278,5.2755129 L 5.2905891,6.0001295 c -0.052634,0.05323 -0.1671918,0.1951761 -0.091574,0.3701082 0.02989,0.070497 0.09086,0.1381357 0.1760038,0.1954143 C 5.5347081,6.6730644 5.8205059,6.7458237 6.0859407,6.7460619 6.1865653,6.7463001 6.2820694,6.736059 6.369595,6.7164104 6.6503914,6.6534158 6.9448823,6.4188234 7.2568783,6.1707747 7.5054033,5.9732169 7.8587209,5.7224293 8.129038,5.6488363 c 0.075498,-0.020601 0.1683826,-0.033462 0.2429282,-0.033462 0.022388,2.381e-4 0.043346,9.526e-4 0.062995,0.00381 0.1786237,0.022626 0.3514123,0.083358 0.6597167,0.314854 0.5498036,0.4130969 2.9828965,2.5414574 3.0065935,2.5624159 0.0017,0.00143 0.156831,0.1352776 0.145995,0.3577236 -0.0057,0.1239648 -0.07466,0.2342352 -0.194223,0.310567 -0.103959,0.065972 -0.211134,0.099434 -0.31938,0.099434 -0.162666,-3.62e-4 -0.274604,-0.076332 -0.281987,-0.081571 -0.0088,-0.00738 -0.842508,-0.7717733 -1.149264,-1.028515 -0.04882,-0.040488 -0.09622,-0.077046 -0.144209,-0.077046 -0.0256,-1.143e-4 -0.04835,0.010956 -0.06371,0.030009 -0.04823,0.059541 0.0058,0.1419463 0.06943,0.1961288 l 0.973737,0.9788576 c 0.0014,9.527e-4 0.121464,0.1136046 0.134563,0.2636485 0.0076,0.1623094 -0.0699,0.2979443 -0.231139,0.4036895 -0.114915,0.075737 -0.231258,0.1140805 -0.34522,0.1140805 -0.149687,0 -0.254479,-0.067996 -0.2777,-0.08431 L 10.278357,9.8416099 C 10.023282,9.5903459 9.7596339,9.3307462 9.5666012,9.1696277 9.5195637,9.1305686 9.46943,9.0943676 9.4214397,9.0943676 c -0.023697,0 -0.044894,0.00893 -0.061327,0.026079 -0.021911,0.024412 -0.037273,0.068353 0.017624,0.1413509 0.022507,0.030009 0.049181,0.054778 0.049181,0.054778 l 0.7105645,0.7982096 c 0.0058,0.0071 0.146353,0.174099 0.01596,0.340457 l -0.02501,0.03191 c -0.02132,0.02346 -0.0443,0.04513 -0.06609,0.06371 -0.1212255,0.09943 -0.2830585,0.110032 -0.347244,0.110032 -0.034296,0 -0.067401,-0.003 -0.096099,-0.0082 -0.070021,-0.0125 -0.1172962,-0.03203 -0.1400409,-0.05894 l -0.00869,-0.0091 C 9.4315617,10.544554 9.0733618,10.17897 8.7770847,9.9316362 8.7380256,9.8987694 8.6892018,9.857686 8.638949,9.857686 c -0.025007,0 -0.047157,0.00976 -0.064185,0.02858 -0.058708,0.064185 0.029413,0.1602852 0.066567,0.1954142 l 0.6061296,0.66841 c -7.145e-4,0.0058 -0.00822,0.01965 -0.022983,0.04073 -0.021673,0.02989 -0.095147,0.103602 -0.3149731,0.13111 -0.026436,0.0035 -0.053587,0.0049 -0.0805,0.0049 -0.2267329,0 -0.4684703,-0.110032 -0.5931496,-0.176004 0.056683,-0.119916 0.086216,-0.251859 0.086216,-0.38416 9.52e-5,-0.4989553 -0.4049994,-0.9046692 -0.9035976,-0.9050264 -0.010717,0 -0.022149,3.525e-4 -0.032748,7.145e-4 0.016314,-0.2276856 -0.015957,-0.6590022 -0.4584674,-0.8488196 -0.1275373,-0.055135 -0.2544792,-0.08312 -0.3779677,-0.08312 -0.096814,0 -0.1896983,0.016552 -0.2771048,0.050015 C 6.180373,8.4021461 6.0281857,8.2723463 5.8294371,8.2047075 5.7197622,8.1666011 5.6105636,8.1474288 5.5049375,8.1474288 c -0.1842206,0 -0.353794,0.054302 -0.5051477,0.1619521 C 4.8546283,8.128971 4.6356357,8.0221541 4.4050921,8.0221541 c -0.2018448,0 -0.3960682,0.080738 -0.5399198,0.2232795 C 3.6765457,8.1013439 2.9282317,7.6260859 0.92526507,7.1713101 0.82821288,7.1490416 0.60564781,7.0854516 0.46929842,7.045559 0.44679184,7.153924 0.4294058,7.2634799 0.41809297,7.3742265 c 0,0 0.36939372,0.088359 0.44191492,0.1047926 2.04619351,0.4542995 2.72234361,0.9269377 2.83654371,1.0162495 -0.038702,0.093003 -0.058827,0.1932708 -0.058946,0.2942527 -3.81e-4,0.4227427 0.3434338,0.76701 0.7664146,0.7673672 0.047395,0 0.094432,-0.00417 0.1406364,-0.012623 0.063709,0.3109242 0.267221,0.5467072 0.5783834,0.6678142 0.09086,0.03489 0.1827915,0.05287 0.273056,0.05287 0.058469,1.14e-4 0.1172962,-0.0071 0.1746939,-0.02179 0.057398,0.145757 0.1866022,0.327714 0.4756153,0.44513 0.1014582,0.04085 0.2026783,0.06216 0.3011595,0.06216 0.0805,0 0.1590941,-0.01429 0.2341161,-0.04168 0.1384928,0.337241 0.468113,0.56064 0.8356014,0.56064 0.2435236,3.81e-4 0.4774015,-0.09884 0.6476894,-0.274366 0.1461141,0.0811 0.4542995,0.227924 0.7654619,0.228281 0.040369,0 0.078118,-0.0027 0.1159863,-0.0073 0.3088998,-0.03906 0.4529896,-0.159927 0.5189613,-0.254002 0.012027,-0.01643 0.022745,-0.03382 0.032033,-0.05204 0.072998,0.0212 0.1532591,0.03834 0.2451908,0.03846 0.1687398,0 0.3309299,-0.05764 0.4945489,-0.176837 0.160881,-0.115867 0.275438,-0.282583 0.291871,-0.424291 3.53e-4,-0.002 4.77e-4,-0.004 8.39e-4,-0.0062 0.0543,0.01119 0.109794,0.01691 0.165405,0.01691 0.173861,0 0.344982,-0.05418 0.508244,-0.161237 0.315211,-0.2066082 0.369751,-0.4765681 0.364631,-0.6531674 0.05525,0.011432 0.11158,0.017386 0.167549,0.017386 0.163262,0 0.323427,-0.049181 0.476091,-0.1464714 0.195295,-0.1247984 0.312949,-0.3160448 0.33093,-0.5386099 0.01203,-0.1511156 -0.02536,-0.3036602 -0.10515,-0.4348891 0.528131,-0.2274474 1.734913,-0.6676952 3.156161,-0.988027 -0.0085,-0.1102703 -0.02441,-0.2191116 -0.04418,-0.3274767 -1.719789,0.3816593 -3.002783,0.9368216 -3.324067,1.0798396" />
  </g>
</svg>
