<?xml version="1.0" encoding="UTF-8" standalone="no"?>
<!-- Created with Inkscape (http://www.inkscape.org/) -->

<svg
   xmlns:dc="http://purl.org/dc/elements/1.1/"
   xmlns:cc="http://creativecommons.org/ns#"
   xmlns:rdf="http://www.w3.org/1999/02/22-rdf-syntax-ns#"
   xmlns:svg="http://www.w3.org/2000/svg"
   xmlns="http://www.w3.org/2000/svg"
   xmlns:sodipodi="http://sodipodi.sourceforge.net/DTD/sodipodi-0.dtd"
   xmlns:inkscape="http://www.inkscape.org/namespaces/inkscape"
   width="16"
   height="16"
   id="svg4277"
   version="1.1"
   inkscape:version="0.91 r"
   viewBox="0 0 16 16"
   sodipodi:docname="ml-hands.svg">
  <defs
     id="defs4279" />
  <sodipodi:namedview
     id="base"
     pagecolor="#ffffff"
     bordercolor="#666666"
     borderopacity="1.0"
     inkscape:pageopacity="0.0"
     inkscape:pageshadow="2"
     inkscape:zoom="11.313708"
     inkscape:cx="7.2116337"
     inkscape:cy="11.60396"
     inkscape:current-layer="layer1"
     showgrid="true"
     inkscape:grid-bbox="true"
     inkscape:document-units="px"
     inkscape:window-width="1366"
     inkscape:window-height="713"
     inkscape:window-x="0"
     inkscape:window-y="30"
     inkscape:window-maximized="1" />
  <metadata
     id="metadata4282">
    <rdf:RDF>
      <cc:Work
         rdf:about="">
        <dc:format>image/svg+xml</dc:format>
        <dc:type
           rdf:resource="http://purl.org/dc/dcmitype/StillImage" />
        <dc:title></dc:title>
      </cc:Work>
    </rdf:RDF>
  </metadata>
  <g
     id="layer1"
     inkscape:label="Layer 1"
     inkscape:groupmode="layer">
    <path
       style="fill:#000000;fill-opacity:1;fill-rule:evenodd;stroke:none"
       d="M 8 3.6875 C 3.6376678 3.6875 0.099609375 5.6185155 0.099609375 8 C 0.099609375 10.381485 3.6376678 12.3125 8 12.3125 C 12.362332 12.3125 15.900391 10.381485 15.900391 8 C 15.900391 5.6185155 12.362332 3.6875 8 3.6875 z M 7.9257812 4.0390625 C 11.969623 4.0390625 15.25 5.7214519 15.25 7.796875 C 15.25 8.9720572 14.315807 9.8074765 12.849609 10.583984 C 12.781199 10.620154 12.718508 10.63569 12.671875 10.65625 C 12.567674 10.70232 12.531465 10.637604 12.603516 10.589844 C 13.163585 10.218271 13.614775 9.7901026 13.962891 9.3984375 C 14.544922 8.7436064 14.470703 7.578125 14.470703 7.578125 L 13.943359 7.59375 C 13.849719 7.59627 12.651588 7.7741157 12.324219 7.9042969 C 12.078716 7.9314919 11.262889 8.2267346 10.882812 8.4042969 C 10.728147 8.4765369 10.682157 8.4711559 10.59375 8.3574219 C 10.554501 8.3068688 10.513859 8.2575899 10.474609 8.2070312 C 10.272468 8.045356 10.071281 7.8823782 9.8691406 7.7207031 C 9.5053247 7.4197817 9.1411595 7.1193743 8.7773438 6.8183594 C 8.6033326 6.7011683 8.4336574 6.6183208 8.1875 6.5371094 C 7.8367677 6.4773924 7.3006766 6.6470532 7.3613281 6.6835938 C 7.4393621 6.5918218 8.2230377 6.5932237 8.2792969 6.6835938 C 9.0629074 7.2566526 9.8408776 7.8480246 10.556641 8.625 C 10.676543 8.7538728 10.637773 8.9236188 10.533203 9.0449219 C 10.431992 9.1622999 10.210065 9.1155105 10.003906 8.9609375 C 9.8961493 8.8800065 8.8007812 8.1074219 8.8007812 8.1074219 C 9.0040433 8.4571262 9.4472484 8.7589738 9.703125 8.9824219 C 9.8862011 9.1070893 10.021667 9.4137021 9.8476562 9.5859375 C 9.7111203 9.7211653 9.4249068 9.6281993 9.296875 9.5234375 C 9.0548295 9.381668 8.8437121 9.150048 8.5605469 9.046875 C 8.5605469 9.046875 8.9664664 9.4466272 9.0742188 9.5410156 C 9.1820644 9.6353106 9.2297043 9.8432051 9.1757812 9.9375 C 9.1219523 10.031795 8.9927324 10.080078 8.8984375 10.080078 C 8.6400376 10.080078 8.5819163 9.8775364 8.3730469 9.7558594 C 8.4424829 9.9174411 8.6300948 10.006359 8.5761719 10.173828 C 8.5761719 10.281674 8.1284344 10.357559 7.9746094 10.271484 C 7.8020936 10.127849 8.1887761 9.6289411 7.4179688 9.4082031 C 7.3948856 8.8158926 6.9599538 8.7929686 6.7382812 8.7929688 C 6.7382812 8.7929688 6.6051336 8.856893 6.5585938 8.734375 C 6.4616821 8.5638214 6.1704047 8.5022499 5.9726562 8.5761719 C 5.7982715 8.6414027 5.7440037 8.7788296 5.6367188 8.7792969 C 5.5839174 8.7793866 5.573537 8.6950246 5.5605469 8.6386719 C 5.3689666 8.3248539 5.031357 8.4743202 4.8925781 8.4570312 C 4.7537991 8.4396488 4.0073461 8.1021545 3.6777344 7.9980469 C 3.3482068 7.8940328 2.2044486 7.5987332 2.0136719 7.5292969 C 1.8071295 7.4542535 1.521925 7.3674555 1.4785156 7.4667969 C 1.4420126 7.645948 1.2113338 9.1349463 3.2011719 10.533203 C 3.3823134 10.664692 3.4181371 10.756377 3.1132812 10.628906 C 1.5750495 9.9398713 0.60351562 8.9267321 0.60351562 7.796875 C 0.60351563 5.7215454 3.8818462 4.0390625 7.9257812 4.0390625 z M 8.2949219 4.3300781 C 6.5980862 4.273632 4.8299903 4.5877824 3.2910156 5.3671875 C 3.9392582 5.7710016 4.766171 6.389614 5.5449219 6.4453125 C 5.714821 6.457368 6.1931889 6.4443962 6.2675781 6.4609375 C 6.342061 6.4774788 6.3964844 6.6875 6.3964844 6.6875 C 6.3964844 6.6875 6.5485815 6.272837 6.96875 6.0488281 C 7.3634056 5.7740738 8.4868398 5.8717325 8.8652344 6.0683594 C 9.226527 6.2436789 10.108905 6.4465303 10.769531 6.3476562 C 11.487069 6.3825145 12.897406 5.552726 12.878906 5.515625 C 11.618962 4.8135997 9.9917576 4.3865242 8.2949219 4.3300781 z M 5.140625 8.5917969 C 5.3046365 8.5917969 5.5566406 8.7587328 5.5566406 8.9160156 C 5.5566406 9.0732985 5.523386 9.1210936 5.359375 9.1210938 C 5.19527 9.1210938 4.9433594 8.9541579 4.9433594 8.796875 C 4.9433594 8.6395922 4.9765205 8.5917969 5.140625 8.5917969 z M 6.2050781 8.7558594 C 6.2590828 8.7638511 6.3096578 8.7828284 6.3496094 8.8125 C 6.4089524 8.85661 6.4487506 8.9215175 6.46875 8.9960938 C 6.6527606 8.9029207 6.8795562 8.8970259 7.015625 8.9980469 C 7.2101959 9.1425266 7.2372584 9.4364647 7.0625 9.671875 C 6.887741 9.9072881 6.5812897 10.011667 6.3867188 9.8671875 C 6.2911154 9.7961626 6.2184238 9.6804764 6.1894531 9.5546875 C 6.0583374 9.6147783 5.9120378 9.6162459 5.8105469 9.5410156 C 5.6506474 9.4223292 5.5888768 9.1407151 5.7324219 8.9472656 C 5.8400807 8.8022486 6.0430642 8.7318841 6.2050781 8.7558594 z M 7.4335938 9.5839844 C 7.4930143 9.5849131 7.5547603 9.6015006 7.6171875 9.6386719 C 7.8669896 9.7874505 7.8528833 10.084111 7.7519531 10.232422 C 7.650836 10.38064 7.3453536 10.428785 7.1660156 10.306641 C 6.9865843 10.184403 6.9224139 9.9743897 7.0234375 9.8261719 C 7.0992052 9.7149384 7.255332 9.5811983 7.4335938 9.5839844 z "
       id="path22-6" />
  </g>
</svg>
