<?xml version="1.0" encoding="UTF-8" standalone="no"?>
<!-- Created with Inkscape (http://www.inkscape.org/) -->

<svg
   xmlns:dc="http://purl.org/dc/elements/1.1/"
   xmlns:cc="http://creativecommons.org/ns#"
   xmlns:rdf="http://www.w3.org/1999/02/22-rdf-syntax-ns#"
   xmlns:svg="http://www.w3.org/2000/svg"
   xmlns="http://www.w3.org/2000/svg"
   xmlns:sodipodi="http://sodipodi.sourceforge.net/DTD/sodipodi-0.dtd"
   xmlns:inkscape="http://www.inkscape.org/namespaces/inkscape"
   width="16"
   height="16"
   id="svg5254"
   version="1.1"
   inkscape:version="0.91 r"
   viewBox="0 0 16 16"
   sodipodi:docname="ml.svg">
  <defs
     id="defs5256" />
  <sodipodi:namedview
     id="base"
     pagecolor="#ffffff"
     bordercolor="#666666"
     borderopacity="1.0"
     inkscape:pageopacity="0.0"
     inkscape:pageshadow="2"
     inkscape:zoom="16"
     inkscape:cx="5.1271582"
     inkscape:cy="8.3091709"
     inkscape:current-layer="layer1"
     showgrid="true"
     inkscape:grid-bbox="true"
     inkscape:document-units="px"
     inkscape:window-width="1366"
     inkscape:window-height="713"
     inkscape:window-x="0"
     inkscape:window-y="30"
     inkscape:window-maximized="1" />
  <metadata
     id="metadata5259">
    <rdf:RDF>
      <cc:Work
         rdf:about="">
        <dc:format>image/svg+xml</dc:format>
        <dc:type
           rdf:resource="http://purl.org/dc/dcmitype/StillImage" />
        <dc:title></dc:title>
      </cc:Work>
    </rdf:RDF>
  </metadata>
  <g
     id="layer1"
     inkscape:label="Layer 1"
     inkscape:groupmode="layer">
    <path
       style="fill:#000000;fill-opacity:1;fill-rule:evenodd;stroke:none"
       d="M 12.943359 3.7226562 L 11.511719 11.78125 L 15.566406 11.78125 L 15.900391 9.921875 L 13.753906 9.921875 L 14.898438 3.7226562 L 12.943359 3.7226562 z M 5.4023438 4.9179688 C 4.3496325 4.9386694 3.7456034 5.3853956 3.1933594 5.9765625 C 3.1982094 5.9741525 3.0946288 6.0175827 3.0996094 5.9765625 C 3.0996094 5.6633204 3.0878906 5.3464477 3.0878906 5.0332031 L 1.296875 5.0332031 C 1.296875 5.0332031 1.3534368 5.4716175 1.3085938 5.7402344 C 1.2638448 6.0086823 0.099609375 11.78125 0.099609375 11.78125 L 2.1015625 11.78125 C 2.2931107 10.612631 2.9180658 6.4487664 4.4179688 6.4863281 C 4.8526858 6.4949114 5.1586526 6.8690993 5.015625 7.8574219 C 4.7466793 9.1654318 4.5288551 10.473237 4.2617188 11.78125 L 6.2402344 11.78125 C 6.4459969 10.629326 6.9679334 6.3153488 8.4960938 6.4902344 C 8.8939379 6.4890303 9.2981279 6.8247547 9.1523438 7.8320312 C 8.8815026 9.1487757 8.662213 10.464364 8.3925781 11.78125 L 10.394531 11.78125 C 10.822968 9.8958515 11.057316 7.9488803 11.251953 6.3144531 C 11.26306 5.8146066 10.723565 4.9322753 9.6484375 4.9472656 C 8.7807265 4.8843809 7.8407602 5.2499076 7.2851562 5.9628906 C 7.1924072 5.9997736 7.1434624 6.0242356 7.0507812 5.9628906 C 6.6983046 5.3605251 6.3895115 4.9315807 5.4023438 4.9179688 z "
       id="path5871-2" />
  </g>
</svg>
