<?xml version="1.0" encoding="UTF-8" standalone="no"?>
<!-- Created with Inkscape (http://www.inkscape.org/) -->

<svg
   xmlns:dc="http://purl.org/dc/elements/1.1/"
   xmlns:cc="http://creativecommons.org/ns#"
   xmlns:rdf="http://www.w3.org/1999/02/22-rdf-syntax-ns#"
   xmlns:svg="http://www.w3.org/2000/svg"
   xmlns="http://www.w3.org/2000/svg"
   xmlns:sodipodi="http://sodipodi.sourceforge.net/DTD/sodipodi-0.dtd"
   xmlns:inkscape="http://www.inkscape.org/namespaces/inkscape"
   width="16"
   height="16"
   viewBox="0 0 16 16"
   id="svg3521"
   version="1.1"
   inkscape:version="0.91 r"
   sodipodi:docname="mpago.svg">
  <defs
     id="defs3523" />
  <sodipodi:namedview
     id="base"
     pagecolor="#ffffff"
     bordercolor="#666666"
     borderopacity="1.0"
     inkscape:pageopacity="0.0"
     inkscape:pageshadow="2"
     inkscape:zoom="45.254834"
     inkscape:cx="7.7265625"
     inkscape:cy="7.5097032"
     inkscape:document-units="px"
     inkscape:current-layer="layer1"
     showgrid="false"
     units="px"
     inkscape:showpageshadow="false"
     inkscape:window-width="1366"
     inkscape:window-height="713"
     inkscape:window-x="0"
     inkscape:window-y="30"
     inkscape:window-maximized="1"
     inkscape:snap-global="false" />
  <metadata
     id="metadata3526">
    <rdf:RDF>
      <cc:Work
         rdf:about="">
        <dc:format>image/svg+xml</dc:format>
        <dc:type
           rdf:resource="http://purl.org/dc/dcmitype/StillImage" />
        <dc:title />
      </cc:Work>
    </rdf:RDF>
  </metadata>
  <g
     inkscape:label="Capa 1"
     inkscape:groupmode="layer"
     id="layer1"
     transform="translate(0,-1036.3622)">
    <path
       style="fill:#000000;fill-opacity:1;fill-rule:nonzero;stroke:none;stroke-width:0.1;stroke-miterlimit:4;stroke-dasharray:none"
       d="m 12.97472,1041.6065 c -0.09474,-0.2767 -0.399197,-0.3338 -0.591716,-0.3225 -0.726834,0.042 -0.92774,0.5801 -0.92774,1.1912 0,0.801 0.404354,1.0708 1.060974,1.0708 0.837599,0 1.026686,-0.6793 1.026686,-0.8905 l 0,-2.0485 c -0.239785,-0.084 -0.557247,0.028 -0.568204,0.2254 z m -3.2844033,-0.2078 c -0.1843634,0.1191 -0.273284,0.3454 -0.3005181,0.5597 l 0.5792745,0.058 c 0.00539,-0.2464 0.2763919,-0.3328 0.4922279,-0.314 0.168532,0.015 0.376557,0.1794 0.247668,0.341 -0.121201,0.1518 -0.337905,0.1279 -0.511916,0.1523 -0.2945906,0.041 -0.6345249,0.1114 -0.7917104,0.3927 -0.1810036,0.324 -0.086892,0.8179 0.2766842,0.9669 0.3202402,0.1314 0.6830642,0.1 1.0124362,0.027 0.304015,-0.066 0.582499,-0.3087 0.625906,-0.6332 0.03976,-0.2974 0.02112,-0.592 0.01865,-0.8964 -0.003,-0.3634 -0.133984,-0.5614 -0.292229,-0.6787 -0.18702,-0.1387 -0.457605,-0.2221 -0.669883,-0.2188 -0.259401,0 -0.4871836,0.115 -0.6865883,0.2438 z m 5.1144123,-0.132 c -0.665266,0 -1.104161,0.4216 -1.094282,1.1433 0.0099,0.7217 0.378279,1.14 1.094282,1.1403 0.716003,3e-4 1.097429,-0.4136 1.095262,-1.1403 -0.0022,-0.7266 -0.429996,-1.1428 -1.095262,-1.1433 z m -13.7985417,0.01 c -0.55069962,0 -0.90618732,0.405 -0.90618732,0.9404 l 0,1.2844 0.51530236,0 0,-1.2971 c 0,-0.237 0.1603509,-0.4007 0.39088496,-0.4007 0.3396468,0 0.374231,0.2822 0.374231,0.4007 l 0,1.2971 0.516282,0 0,-1.2971 c 0,-0.237 0.1633733,-0.4007 0.3899056,-0.4007 0.3397976,0 0.3791292,0.2822 0.3791292,0.4007 l 0,1.2971 0.5153023,0 0,-1.2844 c 0,-0.5519 -0.332103,-0.9404 -0.8944315,-0.9404 -0.2618713,0 -0.4876408,0.1146 -0.6397195,0.2988 -0.1446785,-0.1842 -0.3672746,-0.2988 -0.6406991,-0.2988 z m 3.4631059,0.011 c -0.6393242,0 -1.0698497,0.5198 -1.0619539,1.151 0.00954,0.7631 0.4353998,1.1169 1.081547,1.1208 0.6174231,0 0.9896162,-0.362 1.0021945,-0.6378 l -0.5985737,0 c -0.070368,0.1614 -0.2604395,0.1673 -0.3918647,0.1715 -0.4038159,0.013 -0.5322218,-0.3607 -0.5290177,-0.5203 l 1.5606018,0 c 0.049893,-0.8785 -0.4236093,-1.2845 -1.0629333,-1.2852 z m 3.7256551,0 c -0.8118446,-0.011 -1.0493212,0.5201 -1.0688117,1.1647 -0.023108,0.7643 0.4671657,1.0916 1.0599949,1.1012 0.6633434,0.01 0.946437,-0.3056 1.0188486,-0.8504 l -0.6034719,0 c 0.00922,0.3234 -0.2760379,0.3823 -0.4006818,0.3811 -0.3634388,0 -0.4458028,-0.393 -0.4575024,-0.6456 -0.021277,-0.4593 0.2608454,-0.6764 0.4682786,-0.6769 0.3063051,-9e-4 0.3734686,0.1786 0.393824,0.3458 l 0.6054311,0 c -0.053608,-0.6477 -0.4765725,-0.814 -1.0159094,-0.8199 z m -1.1560015,0 c -1.1141497,-0.05 -1.2127537,0.6393 -1.2441706,1.0962 l 0,1.1178 0.5642854,0 0,-1.0482 c -2.112e-4,-0.5794 0.3040335,-0.5931 0.6798852,-0.5918 z m 7.7648022,0.4526 c 0.317013,0 0.508445,0.3139 0.508445,0.6691 0,0.3552 -0.175297,0.671 -0.508445,0.671 -0.333147,0 -0.511383,-0.2687 -0.511383,-0.671 0,-0.4045 0.19437,-0.6691 0.511383,-0.6691 z m -10.3344558,0 c 0.3592686,0.01 0.4781309,0.3373 0.481014,0.4545 l -0.9649671,0 c 0.015548,-0.3304 0.3264781,-0.458 0.4839531,-0.4545 z m 8.5211018,0.7076 c 0,0.3601 -0.181531,0.6347 -0.485913,0.6347 -0.304381,0 -0.471217,-0.2368 -0.471217,-0.667 0,-0.4302 0.163804,-0.6468 0.446933,-0.6468 0.314804,0 0.510197,0.319 0.510197,0.6791 z m -2.239952,0.2905 c -0.04336,0.3686 -0.325223,0.4759 -0.520206,0.4622 -0.223,-0.016 -0.4050752,-0.2332 -0.2766858,-0.4343 0.1900078,-0.2974 0.5365898,-0.2434 0.7482138,-0.3022 0.04778,0.1379 0.05749,0.1993 0.04868,0.2743 z m -5.4772904,1.7624 c -0.2613034,0.1689 -0.3877238,0.4895 -0.4263255,0.7932 l 0.8204978,0.081 c 0.00771,-0.3493 0.3931339,-0.4722 0.6990307,-0.4454 0.2389054,0.021 0.5339339,0.2546 0.3513018,0.4836 -0.1718439,0.2153 -0.4797735,0.181 -0.7264204,0.2155 -0.4175445,0.058 -0.8989373,0.1585 -1.1217841,0.5574 -0.2565011,0.459 -0.123554,1.1594 0.3917907,1.3706 0.453891,0.1861 0.9683081,0.1397 1.4349786,0.039 0.4310906,-0.094 0.8256549,-0.4366 0.8871857,-0.8967 0.056355,-0.4213 0.029632,-0.839 0.026199,-1.2706 -0.00408,-0.5152 -0.190147,-0.7972 -0.4144167,-0.9634 -0.2651067,-0.1964 -0.6045149,-0.2791 -0.94792,-0.2666 -0.3434051,0.012 -0.6914675,0.1204 -0.9741179,0.3021 z m 7.6643324,-0.2895 c -0.899882,0 -1.614797,0.6971 -1.614797,1.8183 0,1.1212 0.818256,1.6493 1.615987,1.6374 0.797732,-0.013 1.668386,-0.6119 1.668386,-1.7148 0,-1.1029 -0.769694,-1.7409 -1.669576,-1.7409 z m -5.0170652,1.5868 c -0.02178,0.536 0.096706,1.1034 0.5025396,1.4861 0.2851123,0.2689 0.6662152,0.3637 1.0419971,0.3932 0.279279,0.022 0.5205723,-0.1519 0.6895045,-0.2919 0.180509,0.1546 -0.0853,0.8421 -0.8812318,0.8039 -0.1774518,-0.013 -0.5279072,-0.1322 -0.7264211,-0.311 -0.1527524,-0.1375 -0.5352784,0.035 -0.4227527,0.3621 0.3014819,0.8742 1.6743389,0.9735 2.3650356,0.3846 0.473378,-0.4035 0.504215,-1.0489 0.502539,-1.6457 -0.0019,-0.6957 0.02885,-1.6825 -0.203635,-2.0863 -0.280172,-0.4869 -0.9091334,-0.6946 -1.2805464,-0.6946 -0.2824426,0 -0.5007888,0.067 -0.8905588,0.197 -0.3897702,0.1305 -0.671996,0.8001 -0.69647,1.4026 z m -6.5032505,-0.4382 -0.026198,2.546 c -0.00254,0.2461 -0.055028,0.7738 0.1321846,0.786 0.2977023,0.016 0.712691,-0.05 0.715703,-0.4217 l 0.00834,-1.0205 c 0,0 0.3194101,0.3023 0.5406474,0.3585 0.566682,0.1444 1.1992358,-0.068 1.4766582,-0.5787 0.3298471,-0.607 0.3521019,-1.3862 0.061924,-2.0174 -0.2183092,-0.4747 -0.7001804,-0.7038 -1.0336469,-0.7363 -0.3334664,-0.032 -0.5029756,-0.029 -0.8752483,0.023 -0.3722729,0.052 -0.9942452,0.4667 -1.0003595,1.0613 z m 11.5417507,-0.444 c 0.541474,0 0.795491,0.5058 0.795491,1.0576 0,0.5517 -0.313043,0.9833 -0.800254,0.9932 -0.487213,0.012 -0.776607,-0.432 -0.770482,-0.9647 0.0062,-0.5325 0.233771,-1.0861 0.775245,-1.0861 z m -10.012695,0.05 c 0.5158806,0 0.726585,0.5606 0.7168937,1.0027 -0.00938,0.428 -0.1828977,0.9488 -0.689504,0.9646 -0.5392627,0.017 -0.7461578,-0.5638 -0.7371383,-1.0194 0.00859,-0.4345 0.2030151,-0.9479 0.7097486,-0.9479 z m 6.6437709,0.017 c 0.3757797,-0.025 0.5598791,0.459 0.5680361,0.7907 0.01217,0.4952 -0.09959,1.0628 -0.602571,1.1659 -0.5071598,0.1033 -0.8753306,-0.4147 -0.7990627,-0.9694 0.076268,-0.5548 0.1809613,-0.9431 0.8335976,-0.9872 z m -2.8235136,1.06 c 0.021981,0.1586 0.020639,0.2949 0.00176,0.4117 -0.078593,0.4857 -0.4612227,0.6287 -0.7293792,0.61 -0.3160555,-0.022 -0.5750211,-0.3296 -0.3929814,-0.6146 0.2692533,-0.4215 0.8185144,-0.335 1.120598,-0.4071 z"
       id="path110"
       inkscape:connector-curvature="0"
       sodipodi:nodetypes="csssscccsccsssssssssssssccscccsssccsssccsscsccccccccccsssccsssccsscccccscsssczcczszsssssscsccccccccscccccsssssssscssssssscscccccccsscccssscscscsccssccccccc" />
  </g>
</svg>
