<?xml version="1.0" encoding="UTF-8" standalone="no"?>
<!-- Created with Inkscape (http://www.inkscape.org/) -->

<svg
   xmlns:dc="http://purl.org/dc/elements/1.1/"
   xmlns:cc="http://creativecommons.org/ns#"
   xmlns:rdf="http://www.w3.org/1999/02/22-rdf-syntax-ns#"
   xmlns:svg="http://www.w3.org/2000/svg"
   xmlns="http://www.w3.org/2000/svg"
   xmlns:sodipodi="http://sodipodi.sourceforge.net/DTD/sodipodi-0.dtd"
   xmlns:inkscape="http://www.inkscape.org/namespaces/inkscape"
   width="16"
   height="16"
   viewBox="0 0 16 16"
   id="svg3521"
   version="1.1"
   inkscape:version="0.91 r"
   sodipodi:docname="mpago.svg">
  <defs
     id="defs3523" />
  <sodipodi:namedview
     id="base"
     pagecolor="#ffffff"
     bordercolor="#666666"
     borderopacity="1.0"
     inkscape:pageopacity="0.0"
     inkscape:pageshadow="2"
     inkscape:zoom="34"
     inkscape:cx="7.1029412"
     inkscape:cy="8"
     inkscape:document-units="px"
     inkscape:current-layer="layer1"
     showgrid="false"
     units="px"
     inkscape:showpageshadow="false"
     inkscape:window-width="1366"
     inkscape:window-height="713"
     inkscape:window-x="0"
     inkscape:window-y="30"
     inkscape:window-maximized="1"
     inkscape:snap-global="false"
     showguides="true"
     inkscape:guide-bbox="true" />
  <metadata
     id="metadata3526">
    <rdf:RDF>
      <cc:Work
         rdf:about="">
        <dc:format>image/svg+xml</dc:format>
        <dc:type
           rdf:resource="http://purl.org/dc/dcmitype/StillImage" />
        <dc:title></dc:title>
      </cc:Work>
    </rdf:RDF>
  </metadata>
  <g
     inkscape:label="Capa 1"
     inkscape:groupmode="layer"
     id="layer1"
     transform="translate(0,-1036.3622)">
    <path
       inkscape:connector-curvature="0"
       style="fill:#000000;fill-opacity:1;fill-rule:nonzero;stroke:none;stroke-width:0.1;stroke-miterlimit:4;stroke-dasharray:none"
       d="m 13.378441,1040.1534 c -0.199519,-0 -0.395172,0.099 -0.403732,0.2536 l 0,0.774 c -0.09474,-0.2767 -0.399179,-0.3337 -0.591698,-0.3224 -0.726833,0.042 -0.927755,0.5801 -0.927755,1.1912 0,0.801 0.404356,1.0708 1.060975,1.0708 0.837599,0 1.026691,-0.6793 1.026691,-0.8905 l 0,-2.0485 c -0.05245,-0.018 -0.108615,-0.027 -0.164481,-0.028 z"
       id="path4394" />
    <path
       style="fill:#ffffff;fill-opacity:1;fill-rule:evenodd;stroke:none;stroke-width:0.1;stroke-miterlimit:4;stroke-dasharray:none"
       d="m 12.480187,1041.3434 c 0.314804,0 0.510198,0.319 0.510198,0.6791 0,0.3601 -0.18153,0.6347 -0.485911,0.6347 -0.304381,0 -0.471223,-0.2368 -0.471223,-0.667 0,-0.4302 0.163808,-0.6468 0.446936,-0.6468 z"
       id="path4348"
       inkscape:connector-curvature="0" />
    <path
       inkscape:connector-curvature="0"
       style="fill:#000000;fill-opacity:1;fill-rule:nonzero;stroke:none;stroke-width:0.1;stroke-miterlimit:4;stroke-dasharray:none"
       d="m 10.376906,1040.7298 c -0.2594,0 -0.4871849,0.115 -0.6865895,0.2438 l 0,-3e-4 c -0.1843633,0.1191 -0.2732743,0.3454 -0.3005084,0.5597 l 0.579261,0.058 c 0.00539,-0.2464 0.2764019,-0.3328 0.4922379,-0.314 0.168532,0.015 0.376535,0.1794 0.247646,0.341 -0.121201,0.1518 -0.337884,0.1278 -0.511895,0.1522 -0.2945903,0.041 -0.6345423,0.1115 -0.7917277,0.3928 -0.1810035,0.324 -0.086891,0.8178 0.276685,0.9668 0.3202397,0.1314 0.6830617,0.1001 1.0124337,0.027 0.304015,-0.066 0.582513,-0.3088 0.62592,-0.6333 0.03976,-0.2974 0.02111,-0.5919 0.01864,-0.8963 -0.003,-0.3634 -0.133993,-0.5614 -0.292238,-0.6787 -0.18702,-0.1387 -0.457586,-0.2221 -0.669864,-0.2188 z"
       id="path4390" />
    <path
       style="fill:#ffffff;fill-opacity:1;fill-rule:evenodd;stroke:none;stroke-width:0.1;stroke-miterlimit:4;stroke-dasharray:none"
       d="m 10.701763,1042.0387 c 0.04778,0.1379 0.05748,0.1993 0.04866,0.2743 -0.04336,0.3686 -0.325213,0.4759 -0.520196,0.4622 -0.223,-0.016 -0.4050744,-0.2332 -0.2766851,-0.4343 0.1900081,-0.2974 0.5365921,-0.2434 0.7482161,-0.3022 z"
       id="path4346"
       inkscape:connector-curvature="0" />
    <path
       inkscape:connector-curvature="0"
       style="fill:#000000;fill-opacity:1;fill-rule:nonzero;stroke:none;stroke-width:0.1;stroke-miterlimit:4;stroke-dasharray:none"
       d="m 14.80473,1040.8413 c -0.665265,0 -1.104183,0.4216 -1.094304,1.1433 0.0099,0.7217 0.378302,1.1399 1.094304,1.1402 0.716003,3e-4 1.097428,-0.4135 1.09526,-1.1402 -0.0022,-0.7266 -0.429994,-1.1428 -1.09526,-1.1433 z"
       id="path4386" />
    <path
       style="fill:#ffffff;fill-opacity:1;fill-rule:evenodd;stroke:none;stroke-width:0.1;stroke-miterlimit:4;stroke-dasharray:none"
       d="m 14.803743,1041.3149 c 0.317013,0 0.508438,0.3138 0.508438,0.669 0,0.3552 -0.175291,0.6711 -0.508438,0.6711 -0.333147,0 -0.511371,-0.2688 -0.511371,-0.6711 0,-0.4045 0.194358,-0.669 0.511371,-0.669 z"
       id="path4344"
       inkscape:connector-curvature="0" />
    <path
       inkscape:connector-curvature="0"
       style="fill:#000000;fill-opacity:1;fill-rule:nonzero;stroke:none;stroke-width:0.1;stroke-miterlimit:4;stroke-dasharray:none"
       d="m 1.0061872,1040.8513 c -0.55069926,0 -0.90618672,0.405 -0.90618672,0.9404 l 0,1.2844 0.51530202,0 0,-1.2971 c 0,-0.237 0.1603508,-0.4007 0.3908847,-0.4007 0.3396466,0 0.3742308,0.2822 0.3742308,0.4007 l 0,1.2971 0.5162817,0 0,-1.2971 c 0,-0.237 0.1633731,-0.4007 0.3899053,-0.4007 0.3397973,0 0.379129,0.2822 0.379129,0.4007 l 0,1.2971 0.515302,0 0,-1.2844 c 0,-0.5519 -0.3321028,-0.9404 -0.894431,-0.9404 -0.2618711,0 -0.4876404,0.1146 -0.6397191,0.2988 -0.1446784,-0.1842 -0.3672744,-0.2988 -0.6406987,-0.2988 z"
       id="path4342" />
    <path
       inkscape:connector-curvature="0"
       style="fill:#000000;fill-opacity:1;fill-rule:nonzero;stroke:none;stroke-width:0.1;stroke-miterlimit:4;stroke-dasharray:none"
       d="m 4.4692839,1040.8623 c -0.6393237,0 -1.0698279,0.5198 -1.0619322,1.151 0.00954,0.7631 0.4353811,1.1168 1.0815278,1.1207 0.6174227,0 0.9896103,-0.3619 1.0021885,-0.6377 l -0.5985788,0 c -0.070368,0.1614 -0.2604272,0.1673 -0.3918523,0.1715 -0.4038156,0.013 -0.5322261,-0.3607 -0.5290219,-0.5203 l 1.5606194,0 c 0.049893,-0.8785 -0.4236268,-1.2845 -1.0629505,-1.2852 z"
       id="path4380" />
    <path
       style="fill:#ffffff;fill-opacity:1;fill-rule:evenodd;stroke:none;stroke-width:0.1;stroke-miterlimit:4;stroke-dasharray:none"
       d="m 4.4692839,1041.3149 c 0.3592684,0.01 0.4781524,0.3373 0.4810356,0.4545 l -0.9649721,0 c 0.015548,-0.3304 0.3264616,-0.458 0.4839365,-0.4545 z"
       id="path4340"
       inkscape:connector-curvature="0" />
    <path
       inkscape:connector-curvature="0"
       style="fill:#000000;fill-opacity:1;fill-rule:nonzero;stroke:none;stroke-width:0.1;stroke-miterlimit:4;stroke-dasharray:none"
       d="m 8.1949435,1040.8623 c -0.8118439,-0.011 -1.0493205,0.5201 -1.0688109,1.1647 -0.023108,0.7643 0.4671653,1.0916 1.0599942,1.1012 0.663343,0.01 0.9464363,-0.3056 1.018848,-0.8504 l -0.6034716,0 c 0.00922,0.3234 -0.2760377,0.3823 -0.4006815,0.3811 -0.3634386,0 -0.4458025,-0.393 -0.4575021,-0.6456 -0.021277,-0.4593 0.2608452,-0.6764 0.4682782,-0.6769 0.3063049,-9e-4 0.3734685,0.1786 0.3938238,0.3458 l 0.6054308,0 c -0.053608,-0.6477 -0.4765723,-0.814 -1.0159089,-0.8199 z"
       id="path4338" />
    <path
       inkscape:connector-curvature="0"
       style="fill:#000000;fill-opacity:1;fill-rule:nonzero;stroke:none;stroke-width:0.1;stroke-miterlimit:4;stroke-dasharray:none"
       d="m 7.0389428,1040.8623 c -1.114149,-0.05 -1.2127529,0.6393 -1.2441698,1.0962 l 0,1.1178 0.5642851,0 0,-1.0482 c -2.117e-4,-0.5794 0.3040332,-0.5931 0.6798847,-0.5918 z"
       id="path4336" />
    <path
       inkscape:connector-curvature="0"
       style="fill:#000000;fill-opacity:1;fill-rule:nonzero;stroke:none;stroke-width:0.1;stroke-miterlimit:4;stroke-dasharray:none"
       d="m 6.3115874,1043.7717 c -0.021414,10e-5 -0.042848,5e-4 -0.064311,0 -0.3434049,0.012 -0.691487,0.1204 -0.9741373,0.3021 l 0,2e-4 c -0.2613032,0.1689 -0.3877202,0.4896 -0.426322,0.7933 l 0.8205194,0.081 c 0.00771,-0.3493 0.3931295,-0.4722 0.6990262,-0.4454 0.2389053,0.021 0.5339349,0.2546 0.3513028,0.4836 -0.1718437,0.2153 -0.4797825,0.181 -0.7264292,0.2155 -0.4175443,0.058 -0.8989526,0.1585 -1.1217993,0.5574 -0.2565008,0.459 -0.1235538,1.1594 0.3917905,1.3706 0.4538907,0.1861 0.9683207,0.1397 1.4349908,0.039 0.4310904,-0.094 0.8256447,-0.4366 0.8871756,-0.8967 0.056355,-0.4213 0.029633,-0.8391 0.0262,-1.2707 -0.00408,-0.5151 -0.1901409,-0.7971 -0.4144104,-0.9633 -0.2485374,-0.1842 -0.5623796,-0.2684 -0.8835959,-0.2679 z"
       id="path4372" />
    <path
       style="fill:#ffffff;fill-opacity:1;fill-rule:nonzero;stroke:none;stroke-width:0.1;stroke-miterlimit:4;stroke-dasharray:none"
       d="m 6.7664852,1045.6175 c 0.021981,0.1586 0.020638,0.2948 0.00176,0.4116 -0.078593,0.4857 -0.4612355,0.6287 -0.7293918,0.61 -0.3160553,-0.022 -0.5750026,-0.3296 -0.392963,-0.6146 0.2692532,-0.4215 0.8185125,-0.3349 1.1205958,-0.407 z"
       id="path4326"
       inkscape:connector-curvature="0" />
    <path
       inkscape:connector-curvature="0"
       style="fill:#000000;fill-opacity:1;fill-rule:nonzero;stroke:none;stroke-width:0.1;stroke-miterlimit:4;stroke-dasharray:none"
       d="m 12.937492,1043.7859 c -0.899881,0 -1.614808,0.6971 -1.614808,1.8183 0,1.1212 0.81825,1.6492 1.615981,1.6373 0.797731,-0.013 1.66838,-0.6118 1.66838,-1.7147 0,-1.1029 -0.769671,-1.7409 -1.669553,-1.7409 z"
       id="path4368" />
    <path
       sodipodi:nodetypes="sssss"
       style="fill:#ffffff;fill-opacity:1;fill-rule:nonzero;stroke:none;stroke-width:0.1;stroke-miterlimit:4;stroke-dasharray:none"
       d="m 12.958909,1044.4905 c 0.541473,0 0.795492,0.5057 0.795492,1.0575 0,0.5517 -0.313056,0.9823 -0.800245,0.9933 -0.487237,0.011 -0.77666,-0.432 -0.770496,-0.9647 0.0062,-0.5325 0.233775,-1.0861 0.775249,-1.0861 z"
       id="path4324"
       inkscape:connector-curvature="0" />
    <path
       inkscape:connector-curvature="0"
       style="fill:#000000;fill-opacity:1;fill-rule:nonzero;stroke:none;stroke-width:0.1;stroke-miterlimit:4;stroke-dasharray:none"
       d="m 9.5074439,1043.7731 c -0.2824423,0 -0.5008002,0.067 -0.89057,0.197 -0.38977,0.1305 -0.6719908,0.8 -0.6964649,1.4025 -0.02178,0.536 0.096711,1.1035 0.5025446,1.4862 0.2851121,0.2689 0.6662155,0.3636 1.0419971,0.3931 0.2792788,0.022 0.5205584,-0.1518 0.6894903,-0.2918 0.180509,0.1546 -0.08529,0.8421 -0.8812196,0.8039 -0.1774517,-0.013 -0.5279154,-0.1322 -0.7264292,-0.311 -0.1527522,-0.1375 -0.5352679,0.035 -0.4227423,0.3621 0.3014817,0.8742 1.6743339,0.9735 2.3650301,0.3846 0.473378,-0.4035 0.504221,-1.0489 0.502545,-1.6457 -0.0019,-0.6957 0.02884,-1.6825 -0.203641,-2.0863 -0.280172,-0.4869 -0.9091273,-0.6946 -1.2805401,-0.6946 z"
       id="path4364" />
    <path
       sodipodi:nodetypes="ssssss"
       style="fill:#ffffff;fill-opacity:1;fill-rule:nonzero;stroke:none;stroke-width:0.1;stroke-miterlimit:4;stroke-dasharray:none"
       d="m 9.6246478,1044.5566 c 0.3524456,0.01 0.5254742,0.4702 0.5333732,0.7916 0.01217,0.4952 -0.09952,1.0631 -0.6025598,1.1659 -0.5070955,0.1036 -0.8753333,-0.4147 -0.7990722,-0.9694 0.076275,-0.5548 0.180967,-0.9431 0.8336037,-0.9872 0.011742,-8e-4 0.023286,-0 0.034655,-9e-4 z"
       id="path4322"
       inkscape:connector-curvature="0" />
    <path
       inkscape:connector-curvature="0"
       style="fill:#000000;fill-opacity:1;fill-rule:nonzero;stroke:none;stroke-width:0.1;stroke-miterlimit:4;stroke-dasharray:none"
       d="m 2.9185395,1043.8296 c -0.1463603,7e-4 -0.2915983,0.014 -0.5010015,0.044 -0.3722726,0.052 -0.9942535,0.4667 -1.0003678,1.0613 l -0.0262,2.5458 c -0.00254,0.2461 -0.055042,0.7738 0.1321706,0.786 0.2977022,0.016 0.7127089,-0.05 0.715721,-0.4217 l 0.00833,-1.0205 c 0,0 0.3194188,0.3023 0.5406559,0.3585 0.5666817,0.1444 1.1992288,-0.068 1.476651,-0.5787 0.3298469,-0.607 0.3521124,-1.3862 0.061935,-2.0174 -0.2183091,-0.4747 -0.7001985,-0.7038 -1.0336649,-0.7363 -0.1458914,-0.014 -0.2603955,-0.021 -0.3742315,-0.021 z"
       id="path4360" />
    <path
       style="fill:#ffffff;fill-opacity:1;fill-rule:nonzero;stroke:none;stroke-width:0.1;stroke-miterlimit:4;stroke-dasharray:none"
       d="m 2.9462203,1044.5405 c 0.5158803,0 0.726585,0.5606 0.7168938,1.0027 -0.00938,0.428 -0.1828846,0.9487 -0.6894906,0.9645 -0.5392623,0.017 -0.7461569,-0.5637 -0.7371375,-1.0193 0.00859,-0.4345 0.2030013,-0.9479 0.7097343,-0.9479 z"
       id="path4320"
       inkscape:connector-curvature="0" />
  </g>
</svg>
