<?xml version="1.0" encoding="UTF-8" standalone="no"?>
<!-- Created with Inkscape (http://www.inkscape.org/) -->

<svg
   xmlns:dc="http://purl.org/dc/elements/1.1/"
   xmlns:cc="http://creativecommons.org/ns#"
   xmlns:rdf="http://www.w3.org/1999/02/22-rdf-syntax-ns#"
   xmlns:svg="http://www.w3.org/2000/svg"
   xmlns="http://www.w3.org/2000/svg"
   xmlns:sodipodi="http://sodipodi.sourceforge.net/DTD/sodipodi-0.dtd"
   xmlns:inkscape="http://www.inkscape.org/namespaces/inkscape"
   width="16"
   height="16"
   viewBox="0 0 16 16"
   id="svg3521"
   version="1.1"
   inkscape:version="0.91 r"
   sodipodi:docname="mpago.svg">
  <defs
     id="defs3523" />
  <sodipodi:namedview
     id="base"
     pagecolor="#ffffff"
     bordercolor="#666666"
     borderopacity="1.0"
     inkscape:pageopacity="0.0"
     inkscape:pageshadow="2"
     inkscape:zoom="32"
     inkscape:cx="8"
     inkscape:cy="8.7597032"
     inkscape:document-units="px"
     inkscape:current-layer="layer1"
     showgrid="false"
     units="px"
     inkscape:showpageshadow="false"
     inkscape:window-width="1366"
     inkscape:window-height="713"
     inkscape:window-x="0"
     inkscape:window-y="30"
     inkscape:window-maximized="1"
     inkscape:snap-global="false" />
  <metadata
     id="metadata3526">
    <rdf:RDF>
      <cc:Work
         rdf:about="">
        <dc:format>image/svg+xml</dc:format>
        <dc:type
           rdf:resource="http://purl.org/dc/dcmitype/StillImage" />
        <dc:title></dc:title>
      </cc:Work>
    </rdf:RDF>
  </metadata>
  <g
     inkscape:label="Capa 1"
     inkscape:groupmode="layer"
     id="layer1"
     transform="translate(0,-1036.3622)">
    <path
       style="fill:#000000;fill-opacity:1;fill-rule:nonzero;stroke:none;stroke-width:0.1;stroke-miterlimit:4;stroke-dasharray:none"
       d="m 12.722835,1041.734 c -0.08994,-0.2627 -0.378984,-0.3169 -0.561756,-0.3062 -0.690032,0.04 -0.880765,0.5508 -0.880765,1.1309 0,0.7605 0.38388,1.0166 1.007253,1.0166 0.795189,0 0.974702,-0.6449 0.974702,-0.8454 l 0,-1.9448 c -0.227644,-0.08 -0.529032,0.027 -0.539434,0.214 z m -3.0831454,-0.147 c -0.1654673,0.1069 -0.2452742,0.31 -0.269717,0.5023 l 0.519903,0.052 c 0.00484,-0.2211 0.2480624,-0.2987 0.4417774,-0.2818 0.151259,0.013 0.337962,0.161 0.222284,0.306 -0.108779,0.1363 -0.303273,0.1149 -0.459448,0.1367 -0.2643973,0.037 -0.5694901,0.1 -0.7105655,0.3525 -0.162452,0.2908 -0.077986,0.734 0.2483256,0.8678 0.2874178,0.1179 0.6130549,0.089 0.9086679,0.024 0.272856,-0.059 0.522798,-0.277 0.561755,-0.5683 0.03569,-0.2669 0.01896,-0.5313 0.01674,-0.8045 -0.0027,-0.3262 -0.120252,-0.5039 -0.262278,-0.6092 -0.167852,-0.1244 -0.410704,-0.1992 -0.601224,-0.1963 -0.232815,0 -0.4372502,0.1032 -0.6162204,0.2188 z m 4.8204954,-0.1756 c -0.631581,0 -1.048254,0.4003 -1.038875,1.0854 0.0094,0.6852 0.359126,1.0823 1.038875,1.0826 0.67975,3e-4 1.041863,-0.3927 1.039806,-1.0826 -0.0021,-0.6898 -0.408224,-1.0849 -1.039806,-1.0854 z m -13.0998804,0.01 c -0.52281615,0 -0.86030446,0.3845 -0.86030446,0.8928 l 0,1.2193 0.48921105,0 0,-1.2314 c 0,-0.225 0.15223191,-0.3804 0.37109341,-0.3804 0.3224495,0 0.3552826,0.2679 0.3552826,0.3804 l 0,1.2314 0.4901411,0 0,-1.2314 c 0,-0.225 0.1551012,-0.3804 0.3701635,-0.3804 0.3225927,0 0.3599328,0.2679 0.3599328,0.3804 l 0,1.2314 0.489211,0 0,-1.2193 c 0,-0.524 -0.3152876,-0.8928 -0.8491438,-0.8928 -0.248612,0 -0.4629501,0.1088 -0.6073286,0.2836 -0.137353,-0.1748 -0.3486784,-0.2836 -0.6082586,-0.2836 z m 3.2877586,0.01 c -0.6069533,0 -1.01568,0.4935 -1.008184,1.0928 0.00906,0.7244 0.4133542,1.0603 1.0267851,1.064 0.5861611,0 0.939509,-0.3437 0.9514504,-0.6055 l -0.5682661,0 c -0.066805,0.1532 -0.2472527,0.1588 -0.3720235,0.1628 -0.3833695,0.012 -0.5052738,-0.3424 -0.5022319,-0.4939 l 1.4815839,0 c 0.047367,-0.8341 -0.4021607,-1.2195 -1.0091139,-1.2202 z m 3.5370143,0 c -0.7707385,-0.01 -0.996191,0.4938 -1.0146946,1.1058 -0.021938,0.7256 0.4435117,1.0363 1.0063242,1.0454 0.6297564,0.01 0.8985161,-0.2901 0.9672613,-0.8073 l -0.5729163,0 c 0.00875,0.307 -0.2620613,0.3629 -0.3803941,0.3618 -0.3450369,0 -0.4232305,-0.3731 -0.4343378,-0.6129 -0.0202,-0.4361 0.2476381,-0.6422 0.4445683,-0.6427 0.290796,-8e-4 0.3545588,0.1696 0.3738836,0.3283 l 0.5747763,0 c -0.050894,-0.6149 -0.4524422,-0.7728 -0.9644709,-0.7784 z m -1.0974698,0 c -1.057737,-0.047 -1.1513484,0.607 -1.1811746,1.0407 l 0,1.0612 0.535714,0 0,-0.9951 c -2.005e-4,-0.5501 0.2886394,-0.5631 0.6454606,-0.5618 z m 7.3716473,0.4297 c 0.300962,0 0.482701,0.298 0.482701,0.6352 0,0.3373 -0.166421,0.6371 -0.482701,0.6371 -0.316279,0 -0.48549,-0.2551 -0.48549,-0.6371 0,-0.384 0.184528,-0.6352 0.48549,-0.6352 z m -9.8111918,0 c 0.3410778,0.01 0.4539218,0.3202 0.4566589,0.4315 l -0.916108,0 c 0.014761,-0.3137 0.3099476,-0.4348 0.4594491,-0.4315 z m 8.0896528,0.6718 c 0,0.3419 -0.172339,0.6026 -0.461309,0.6026 -0.28897,0 -0.447358,-0.2249 -0.447358,-0.6333 0,-0.4084 0.15551,-0.614 0.424303,-0.614 0.298865,0 0.484364,0.3028 0.484364,0.6447 z m -2.146556,0.2566 c -0.03891,0.3309 -0.29189,0.4271 -0.466889,0.4148 -0.2001433,-0.014 -0.3635571,-0.2093 -0.2483264,-0.3897 0.1705324,-0.267 0.4815924,-0.2185 0.6715264,-0.2713 0.04288,0.1237 0.0516,0.1789 0.04369,0.2462 z m -3.9602111,1.4053 c -0.2681998,0.01 -0.5400373,0.094 -0.7607881,0.2362 -0.2040785,0.1318 -0.3028132,0.3823 -0.3329612,0.6194 l 0.6408105,0.064 c 0.00602,-0.2728 0.3070384,-0.3688 0.5459445,-0.3478 0.1865856,0.016 0.4170035,0.1988 0.2743674,0.3776 -0.1342104,0.1682 -0.374704,0.1414 -0.5673358,0.1683 -0.3261032,0.046 -0.702072,0.1238 -0.8761157,0.4353 -0.200328,0.3585 -0.096496,0.9055 0.3059893,1.0705 0.3544898,0.1454 0.7562506,0.1091 1.1207213,0.03 0.3366827,-0.073 0.6448382,-0.341 0.6928939,-0.7003 0.044014,-0.3291 0.023143,-0.6553 0.020462,-0.9924 -0.00319,-0.4023 -0.1485052,-0.6226 -0.3236603,-0.7524 -0.2070489,-0.1534 -0.4721274,-0.2179 -0.7403272,-0.2083 z m 5.2250711,0.01 c -0.70281,0 -1.26116,0.5445 -1.26116,1.4202 0,0.8756 0.63906,1.2881 1.26209,1.2788 0.62303,-0.01 1.303013,-0.4779 1.303013,-1.3393 0,-0.8614 -0.601133,-1.3597 -1.303943,-1.3597 z m -3.2021927,0.086 c -0.4766121,0.1598 -0.697031,0.6828 -0.7161453,1.1533 -0.01701,0.4187 0.075528,0.8618 0.3924845,1.1607 0.2226733,0.21 0.5203155,0.2841 0.8138019,0.307 0.2181176,0.017 0.4065683,-0.1185 0.538504,-0.2279 0.1409789,0.1208 -0.066617,0.6577 -0.6882434,0.6278 -0.1385902,-0.01 -0.4122966,-0.1032 -0.5673364,-0.2428 -0.1193,-0.1074 -0.4180535,0.028 -0.3301707,0.2828 0.2354579,0.6827 1.3076622,0.7602 1.847097,0.3004 0.3697101,-0.3152 0.3937931,-0.8192 0.3924851,-1.2854 -0.0015,-0.5433 0.02253,-1.314 -0.15904,-1.6294 -0.2188153,-0.3802 -0.7100348,-0.5424 -1.0001091,-0.5424 -0.2205883,0 -0.3911172,0.052 -0.5233276,0.096 z m -4.8493276,-0.039 c -0.4553331,0.062 -0.9410948,0.3856 -0.94587,0.8501 l -0.020461,1.9884 c -0.00198,0.1923 -0.042977,0.6044 0.1032365,0.6139 0.2325061,0.012 0.5566131,-0.039 0.5589655,-0.3293 l 0.00651,-0.797 c 0,0 0.24946,0.2361 0.4222468,0.2799 0.4425798,0.1128 0.9366057,-0.053 1.1532732,-0.452 0.2576113,-0.474 0.2749923,-1.0825 0.048363,-1.5755 -0.1705,-0.3708 -0.5468424,-0.5497 -0.8072804,-0.5751 -0.260438,-0.025 -0.392825,-0.023 -0.5189836,0 z m 8.0682613,0.5034 c 0.422892,0 0.62128,0.395 0.62128,0.8259 0,0.4309 -0.244487,0.768 -0.625,0.7757 -0.380514,0.01 -0.606532,-0.3374 -0.601748,-0.7534 0.0048,-0.4159 0.182576,-0.8482 0.605468,-0.8482 z m -7.8199356,0.039 c 0.4029039,0 0.5674644,0.4378 0.5598955,0.7831 -0.00733,0.3343 -0.1428435,0.741 -0.5385041,0.7533 -0.4211653,0.013 -0.5827508,-0.4403 -0.5757065,-0.7961 0.00671,-0.3393 0.1585552,-0.7403 0.5543151,-0.7403 z m 5.1887991,0.013 c 0.293485,-0.02 0.4372665,0.3585 0.4436379,0.6176 0.0095,0.3867 -0.077782,0.83 -0.4706097,0.9105 -0.396093,0.081 -0.6836351,-0.3238 -0.6240697,-0.7571 0.059565,-0.4333 0.1413311,-0.7365 0.6510415,-0.771 z m -2.2051701,0.8278 c 0.017167,0.1239 0.016119,0.2304 0.00138,0.3216 -0.061381,0.3794 -0.3602159,0.491 -0.5696467,0.4764 -0.24684,-0.017 -0.4490927,-0.2574 -0.3069193,-0.48 0.2102874,-0.3292 0.6392615,-0.2617 0.875186,-0.318 z"
       id="path110"
       inkscape:connector-curvature="0"
       sodipodi:nodetypes="csssscccsccsssssssssssssccscccsssccsssccsscsccccccccccsssccsssccsscccccscsssczcczszsssssscssccccccccsccccscssscsssscsssssssssscccccccsssscssscssscssssscsscc" />
  </g>
</svg>
