<?xml version="1.0" encoding="UTF-8" standalone="no"?>
<!-- Created with Inkscape (http://www.inkscape.org/) -->

<svg
   xmlns:dc="http://purl.org/dc/elements/1.1/"
   xmlns:cc="http://creativecommons.org/ns#"
   xmlns:rdf="http://www.w3.org/1999/02/22-rdf-syntax-ns#"
   xmlns:svg="http://www.w3.org/2000/svg"
   xmlns="http://www.w3.org/2000/svg"
   xmlns:sodipodi="http://sodipodi.sourceforge.net/DTD/sodipodi-0.dtd"
   xmlns:inkscape="http://www.inkscape.org/namespaces/inkscape"
   width="16"
   height="16"
   viewBox="0 0 16 16"
   id="svg2"
   version="1.1"
   inkscape:version="0.91 r"
   sodipodi:docname="olx.svg">
  <defs
     id="defs4" />
  <sodipodi:namedview
     id="base"
     pagecolor="#ffffff"
     bordercolor="#666666"
     borderopacity="1.0"
     inkscape:pageopacity="0.0"
     inkscape:pageshadow="2"
     inkscape:zoom="11.313708"
     inkscape:cx="-5.1539523"
     inkscape:cy="8.6320681"
     inkscape:document-units="px"
     inkscape:current-layer="layer1"
     showgrid="false"
     units="px"
     inkscape:window-width="1366"
     inkscape:window-height="713"
     inkscape:window-x="0"
     inkscape:window-y="30"
     inkscape:window-maximized="1" />
  <metadata
     id="metadata7">
    <rdf:RDF>
      <cc:Work
         rdf:about="">
        <dc:format>image/svg+xml</dc:format>
        <dc:type
           rdf:resource="http://purl.org/dc/dcmitype/StillImage" />
        <dc:title />
      </cc:Work>
    </rdf:RDF>
  </metadata>
  <g
     inkscape:label="Capa 1"
     inkscape:groupmode="layer"
     id="layer1"
     transform="translate(0,-1036.3622)">
    <path
       inkscape:connector-curvature="0"
       id="path4222"
       style="fill:#000000;fill-opacity:1;fill-rule:nonzero;stroke:none"
       d="m 15.702514,1048.154 -2.264331,-3.3933 1.734841,-2.5552 c 0.204223,-0.2994 0.157768,-0.6327 -0.101411,-0.7417 -0.260243,-0.1067 -0.667635,0.027 -0.906095,0.3021 l -1.543743,1.7732 -1.066497,-1.6005 c -0.201735,-0.3015 -0.642801,-0.4594 -0.979979,-0.3514 -0.336958,0.1079 -0.502043,0.4712 -0.364624,0.808 l 1.242147,2.5217 -1.7856701,2.0208 c -0.2384769,0.2746 -0.27442,0.749 -0.081053,1.055 l 0.4462401,0.7068 c 0.194075,0.3067 0.520632,0.3117 0.723439,0.012 l 1.499957,-2.2116 1.217331,2.2324 c 0.137421,0.3366 0.535736,0.5318 0.885674,0.4377 l 1.074304,-0.2935 c 0.349792,-0.096 0.471055,-0.4207 0.269464,-0.7223" />
    <path
       style="fill:#000000;fill-opacity:1;fill-rule:nonzero;stroke:none"
       d="M 3.2148438 4.140625 C 1.5494935 4.140625 0.19921875 5.7310594 0.19921875 7.6933594 C 0.19921875 9.6569594 1.5494936 11.248047 3.2148438 11.248047 C 4.8797412 11.248047 6.2304688 9.6569594 6.2304688 7.6933594 C 6.2304688 5.7310594 4.8797412 4.140625 3.2148438 4.140625 z M 3.2148438 5.2792969 C 3.9898925 5.2792969 4.6191406 6.3596594 4.6191406 7.6933594 C 4.6191406 9.0285594 3.9898924 10.111328 3.2148438 10.111328 C 2.4400683 10.111328 1.8125 9.0285594 1.8125 7.6933594 C 1.8125 6.3596594 2.4400684 5.2792969 3.2148438 5.2792969 z "
       transform="translate(0,1036.3622)"
       id="path4224" />
    <path
       inkscape:connector-curvature="0"
       id="path4226"
       style="fill:#000000;fill-opacity:1;fill-rule:nonzero;stroke:none"
       d="m 7.1487545,1039.5338 c -0.4180299,0 -0.5618942,0.3429 -0.5361531,0.696 l 7.079e-4,4.5578 c 0.013252,0.4281 0.2249177,0.6909 0.7055589,0.698 l 2.512158,0 c 0.3980068,0.012 0.6137218,-0.085 0.6511708,-0.4117 l 0,-0.7896 c -0.0046,-0.3658 -0.376042,-0.3639 -0.6295505,-0.3581 l -1.0325319,0 c -0.4095719,0 -0.5042401,-0.071 -0.5208321,-0.4758 l 0.00476,-3.2373 c 0.00795,-0.3782 -0.1232423,-0.679 -0.5418896,-0.6818 l -0.6133763,7e-4" />
  </g>
</svg>
