<?xml version="1.0" encoding="UTF-8" standalone="no"?>
<!-- Created with Inkscape (http://www.inkscape.org/) -->

<svg
   xmlns:dc="http://purl.org/dc/elements/1.1/"
   xmlns:cc="http://creativecommons.org/ns#"
   xmlns:rdf="http://www.w3.org/1999/02/22-rdf-syntax-ns#"
   xmlns:svg="http://www.w3.org/2000/svg"
   xmlns="http://www.w3.org/2000/svg"
   xmlns:sodipodi="http://sodipodi.sourceforge.net/DTD/sodipodi-0.dtd"
   xmlns:inkscape="http://www.inkscape.org/namespaces/inkscape"
   width="16"
   height="16"
   viewBox="0 0 16 16"
   id="svg2"
   version="1.1"
   inkscape:version="0.91 r"
   sodipodi:docname="olx.svg">
  <defs
     id="defs4" />
  <sodipodi:namedview
     id="base"
     pagecolor="#ffffff"
     bordercolor="#666666"
     borderopacity="1.0"
     inkscape:pageopacity="0.0"
     inkscape:pageshadow="2"
     inkscape:zoom="11.313708"
     inkscape:cx="11.507252"
     inkscape:cy="8.6320681"
     inkscape:document-units="px"
     inkscape:current-layer="layer1"
     showgrid="false"
     units="px"
     inkscape:window-width="1366"
     inkscape:window-height="713"
     inkscape:window-x="0"
     inkscape:window-y="30"
     inkscape:window-maximized="1" />
  <metadata
     id="metadata7">
    <rdf:RDF>
      <cc:Work
         rdf:about="">
        <dc:format>image/svg+xml</dc:format>
        <dc:type
           rdf:resource="http://purl.org/dc/dcmitype/StillImage" />
        <dc:title></dc:title>
      </cc:Work>
    </rdf:RDF>
  </metadata>
  <g
     inkscape:label="Capa 1"
     inkscape:groupmode="layer"
     id="layer1"
     transform="translate(0,-1036.3622)">
    <g
       id="g4808"
       transform="matrix(1.0469801,0,0,1.0469801,-0.06174475,-49.640125)">
      <path
         d="m 15.056885,1048.5339 -2.162726,-3.241 1.656995,-2.4406 c 0.195059,-0.2859 0.150689,-0.6043 -0.09686,-0.7084 -0.248566,-0.1019 -0.637677,0.026 -0.865437,0.2885 l -1.474472,1.6937 -1.018641,-1.5287 c -0.192683,-0.288 -0.613958,-0.4388 -0.936006,-0.3356 -0.321838,0.103 -0.479515,0.45 -0.348262,0.7717 l 1.186409,2.4086 -1.7055435,1.9301 c -0.2277759,0.2623 -0.2621062,0.7154 -0.077416,1.0076 l 0.4262165,0.6751 c 0.185366,0.293 0.49727,0.2977 0.690977,0.011 l 1.432651,-2.1124 1.162707,2.1323 c 0.131254,0.3215 0.511696,0.5079 0.845932,0.418 l 1.026097,-0.2803 c 0.334097,-0.092 0.449918,-0.4018 0.257373,-0.6899"
         style="fill:#000000;fill-opacity:1;fill-rule:nonzero;stroke:none"
         id="path4222"
         inkscape:connector-curvature="0" />
      <path
         d="m 3.1297682,1046.9285 c -0.7400096,0 -1.340428,-1.0334 -1.340428,-2.3087 0,-1.2739 0.6004184,-2.3063 1.340428,-2.3063 0.7402707,0 1.3405493,1.0324 1.3405493,2.3063 0,1.2753 -0.6002786,2.3087 -1.3405493,2.3087 m 0,-5.7024 c -1.5906226,0 -2.87976866,1.5194 -2.87976866,3.3937 0,1.8755 1.28914606,3.3953 2.87976866,3.3953 1.5901902,0 2.8798152,-1.5198 2.8798152,-3.3953 0,-1.8743 -1.289625,-3.3937 -2.8798152,-3.3937"
         style="fill:#000000;fill-opacity:1;fill-rule:nonzero;stroke:none"
         id="path4224"
         inkscape:connector-curvature="0" />
      <path
         d="m 6.8869497,1040.3005 c -0.3992721,0 -0.5366809,0.3275 -0.5120949,0.6648 l 6.762e-4,4.3533 c 0.012657,0.4088 0.2148252,0.6599 0.673899,0.6666 l 2.3994324,0 c 0.3801478,0.011 0.5861826,-0.081 0.6219516,-0.3932 l 0,-0.7542 c -0.0044,-0.3493 -0.3591681,-0.3475 -0.6013014,-0.342 l -0.9862001,0 c -0.3911936,0 -0.4816139,-0.068 -0.4974613,-0.4544 l 0.00455,-3.0921 c 0.00759,-0.3612 -0.1177122,-0.6485 -0.5175739,-0.6512 l -0.5858529,7e-4"
         style="fill:#000000;fill-opacity:1;fill-rule:nonzero;stroke:none"
         id="path4226"
         inkscape:connector-curvature="0" />
    </g>
  </g>
</svg>
