<?xml version="1.0" encoding="UTF-8" standalone="no"?>
<!-- Created with Inkscape (http://www.inkscape.org/) -->

<svg
   xmlns:dc="http://purl.org/dc/elements/1.1/"
   xmlns:cc="http://creativecommons.org/ns#"
   xmlns:rdf="http://www.w3.org/1999/02/22-rdf-syntax-ns#"
   xmlns:svg="http://www.w3.org/2000/svg"
   xmlns="http://www.w3.org/2000/svg"
   xmlns:sodipodi="http://sodipodi.sourceforge.net/DTD/sodipodi-0.dtd"
   xmlns:inkscape="http://www.inkscape.org/namespaces/inkscape"
   width="16"
   height="16"
   viewBox="0 0 16 16"
   id="svg2"
   version="1.1"
   inkscape:version="0.91 r"
   sodipodi:docname="patente-sq.svg">
  <defs
     id="defs4" />
  <sodipodi:namedview
     id="base"
     pagecolor="#ffffff"
     bordercolor="#666666"
     borderopacity="1.0"
     inkscape:pageopacity="0.0"
     inkscape:pageshadow="2"
     inkscape:zoom="5.6568542"
     inkscape:cx="8.2534768"
     inkscape:cy="8"
     inkscape:document-units="px"
     inkscape:current-layer="layer1"
     showgrid="false"
     units="px"
     inkscape:showpageshadow="false"
     inkscape:window-width="1366"
     inkscape:window-height="713"
     inkscape:window-x="0"
     inkscape:window-y="30"
     inkscape:window-maximized="1" />
  <metadata
     id="metadata7">
    <rdf:RDF>
      <cc:Work
         rdf:about="">
        <dc:format>image/svg+xml</dc:format>
        <dc:type
           rdf:resource="http://purl.org/dc/dcmitype/StillImage" />
        <dc:title></dc:title>
      </cc:Work>
    </rdf:RDF>
  </metadata>
  <g
     inkscape:label="Capa 1"
     inkscape:groupmode="layer"
     id="layer1"
     transform="translate(0,-1036.3622)">
    <g
       id="g4238">
      <path
         id="path5568"
         d="M 0.64257812,1036.3622 C 0.28965145,1036.3622 0,1036.8526 0,1037.4488 l 0,13.8268 c 0,0.5962 0.28965145,1.0866 0.64257812,1.0866 l 14.71484388,0 c 0.352926,0 0.642578,-0.4904 0.642578,-1.0866 l 0,-13.8268 c 0,-0.5962 -0.289652,-1.0866 -0.642578,-1.0866 z m -0.0683594,2.5688 14.95117228,0 0,12.3446 c 0,0.2555 -0.116336,0.4508 -0.267579,0.4508 l -14.41406203,0 c -0.15124176,0 -0.27455226,-0.1953 -0.26953125,-0.4508 z"
         style="color:#000000;font-style:normal;font-variant:normal;font-weight:normal;font-stretch:normal;font-size:medium;line-height:normal;font-family:sans-serif;text-indent:0;text-align:start;text-decoration:none;text-decoration-line:none;text-decoration-style:solid;text-decoration-color:#000000;letter-spacing:normal;word-spacing:normal;text-transform:none;direction:ltr;block-progression:tb;writing-mode:lr-tb;baseline-shift:baseline;text-anchor:start;white-space:normal;clip-rule:nonzero;display:inline;overflow:visible;visibility:visible;opacity:1;isolation:auto;mix-blend-mode:normal;color-interpolation:sRGB;color-interpolation-filters:linearRGB;solid-color:#000000;solid-opacity:1;fill:#000000;fill-opacity:1;fill-rule:nonzero;stroke:none;stroke-width:0.64899999;stroke-linecap:butt;stroke-linejoin:miter;stroke-miterlimit:4;stroke-dasharray:none;stroke-dashoffset:0;stroke-opacity:1;color-rendering:auto;image-rendering:auto;shape-rendering:auto;text-rendering:auto;enable-background:accumulate"
         inkscape:connector-curvature="0"
         sodipodi:nodetypes="sssssssssccssscc" />
      <g
         transform="matrix(1.437553,0,0,1.437553,2.4544875,-460.2413)"
         id="g4227">
        <path
           inkscape:connector-curvature="0"
           id="path5621"
           style="font-style:normal;font-variant:normal;font-weight:bold;font-stretch:normal;font-size:medium;line-height:125%;font-family:'San Francisco Display';-inkscape-font-specification:'San Francisco Display Bold';text-align:center;letter-spacing:0px;word-spacing:0px;text-anchor:middle;fill:#000000;fill-opacity:1;stroke:none;stroke-width:1px;stroke-linecap:butt;stroke-linejoin:miter;stroke-opacity:1"
           d="m 1.5385931,1046.9779 -0.4408608,0 0.6890274,-3.4603 0.5255294,0 0.6861078,3.4603 -0.4729764,0 -0.1518196,-0.8578 -0.6802686,0 -0.1547392,0.8578 z m 0.5080117,-2.7721 -0.020437,0 -0.245247,1.3715 0.5050921,0 -0.2394078,-1.3715 z" />
        <path
           inkscape:connector-curvature="0"
           id="path5623"
           style="font-style:normal;font-variant:normal;font-weight:bold;font-stretch:normal;font-size:medium;line-height:125%;font-family:'San Francisco Display';-inkscape-font-specification:'San Francisco Display Bold';text-align:center;letter-spacing:0px;word-spacing:0px;text-anchor:middle;fill:#000000;fill-opacity:1;stroke:none;stroke-width:1px;stroke-linecap:butt;stroke-linejoin:miter;stroke-opacity:1"
           d="m 3.2347939,1046.9779 0,-3.4603 0.8875607,0 q 0.283202,0 0.4525392,0.2278 0.1722568,0.2229 0.1722568,0.6203 0,0.2133 -0.052553,0.3781 -0.049633,0.1599 -0.1284627,0.252 -0.078829,0.092 -0.1810157,0.1308 l 0,0.029 q 0.1985333,0.034 0.3299156,0.2569 0.1343021,0.218 0.1343021,0.5864 0,0.4604 -0.2043726,0.7221 -0.2043726,0.2568 -0.5196901,0.2568 l -0.8904804,0 z m 0.4379412,-2.9223 0,0.8869 0.2627646,0 q 0.3766294,0 0.3766294,-0.4507 0,-0.1406 -0.037955,-0.2375 -0.037955,-0.1018 -0.1051058,-0.1503 -0.064232,-0.048 -0.1518196,-0.048 l -0.3445136,0 z m 0,1.386 0,0.9984 0.2948803,0 q 0.4321019,0 0.4321019,-0.4895 0,-0.1648 -0.043794,-0.2762 -0.040875,-0.1163 -0.1226236,-0.1745 -0.078829,-0.058 -0.1926941,-0.058 l -0.3678705,0 z" />
        <path
           inkscape:connector-curvature="0"
           id="path5625"
           style="font-style:normal;font-variant:normal;font-weight:bold;font-stretch:normal;font-size:medium;line-height:125%;font-family:'San Francisco Display';-inkscape-font-specification:'San Francisco Display Bold';text-align:center;letter-spacing:0px;word-spacing:0px;text-anchor:middle;fill:#000000;fill-opacity:1;stroke:none;stroke-width:1px;stroke-linecap:butt;stroke-linejoin:miter;stroke-opacity:1"
           d="m 6.6174786,1046.9779 -0.4350215,0 0,-2.7672 -0.017517,0 q -0.037955,0.039 -0.2277297,0.2423 -0.1897745,0.2035 -0.2481667,0.2762 l 0,-0.6785 q 0.064232,-0.073 0.2540059,-0.2762 0.1897745,-0.2084 0.2481667,-0.2569 l 0.4262626,0 0,3.4603 z" />
      </g>
      <g
         transform="matrix(1.437553,0,0,1.437553,-7.7388334,-454.09109)"
         id="g4232">
        <path
           inkscape:connector-curvature="0"
           id="path5627"
           style="font-style:normal;font-variant:normal;font-weight:bold;font-stretch:normal;font-size:medium;line-height:125%;font-family:'San Francisco Display';-inkscape-font-specification:'San Francisco Display Bold';text-align:center;letter-spacing:0px;word-spacing:0px;text-anchor:middle;fill:#000000;fill-opacity:1;stroke:none;stroke-width:1px;stroke-linecap:butt;stroke-linejoin:miter;stroke-opacity:1"
           d="m 7.4114749,1044.5644 -0.4175039,0 0,-0.039 q 0,-0.2036 0.043794,-0.3877 0.046714,-0.189 0.1313823,-0.3441 0.087588,-0.1551 0.2277291,-0.2472 0.1430608,-0.097 0.3240765,-0.097 0.3211569,0 0.5196899,0.2762 0.201453,0.2763 0.201453,0.6979 0,0.092 -0.011681,0.1793 -0.00876,0.087 -0.020436,0.1503 -0.00876,0.063 -0.040873,0.1502 -0.029199,0.087 -0.043791,0.1308 -0.011681,0.039 -0.058391,0.1309 -0.043791,0.092 -0.058391,0.1163 -0.011681,0.024 -0.070072,0.126 -0.055473,0.1018 -0.064236,0.1163 l -0.4525389,0.8384 0,0.024 0.8583648,0 0,0.5912 -1.4568844,0 0,-0.4555 0.7503394,-1.3376 q 0.075909,-0.1309 0.1138643,-0.2084 0.037954,-0.078 0.07883,-0.2133 0.040873,-0.1356 0.040873,-0.2665 0,-0.2035 -0.084669,-0.3296 -0.084669,-0.1308 -0.2131311,-0.1308 -0.1343021,0 -0.2160511,0.1405 -0.081749,0.1406 -0.081749,0.3441 0,0.01 0,0.024 0,0.014 0,0.019 z" />
        <path
           inkscape:connector-curvature="0"
           id="path5629"
           style="font-style:normal;font-variant:normal;font-weight:bold;font-stretch:normal;font-size:medium;line-height:125%;font-family:'San Francisco Display';-inkscape-font-specification:'San Francisco Display Bold';text-align:center;letter-spacing:0px;word-spacing:0px;text-anchor:middle;fill:#000000;fill-opacity:1;stroke:none;stroke-width:1px;stroke-linecap:butt;stroke-linejoin:miter;stroke-opacity:1"
           d="m 9.2526529,1045.4756 0,-0.5574 0.2160511,0 q 0.1430605,0 0.2306484,-0.1308 0.087589,-0.1309 0.087589,-0.3344 0,-0.1939 -0.087589,-0.315 -0.087588,-0.126 -0.2248093,-0.126 -0.1430605,0 -0.2248102,0.1405 -0.081749,0.1357 -0.087588,0.3199 l -0.411665,0 q 0.00876,-0.4459 0.201453,-0.7318 0.1956139,-0.2908 0.5372082,-0.2908 0.3153172,0 0.5196899,0.2568 0.207292,0.2521 0.210212,0.6495 0.0029,0.3344 -0.116785,0.5476 -0.1197031,0.2084 -0.2569252,0.2423 l 0,0.029 q 0.058391,0 0.1167849,0.044 0.061309,0.034 0.1197033,0.1018 0.05839,0.068 0.102186,0.1648 0.04672,0.092 0.07299,0.2277 0.0292,0.1357 0.0292,0.2957 0.003,0.4604 -0.233569,0.7512 -0.2364876,0.2859 -0.5780819,0.2859 -0.1868549,0 -0.3357553,-0.082 -0.1459803,-0.087 -0.2364882,-0.2326 -0.090507,-0.1454 -0.1401406,-0.3296 -0.046717,-0.1841 -0.049636,-0.3974 l 0.4058251,0 q 0.011681,0.2084 0.1080259,0.3393 0.099266,0.1308 0.2569256,0.1308 0.1693368,0 0.2656838,-0.1405 0.099267,-0.1406 0.096347,-0.3635 0,-0.2181 -0.096347,-0.3538 -0.096347,-0.1405 -0.2686038,-0.1405 l -0.2277293,0 z" />
        <path
           inkscape:connector-curvature="0"
           id="path5631"
           style="font-style:normal;font-variant:normal;font-weight:bold;font-stretch:normal;font-size:medium;line-height:125%;font-family:'San Francisco Display';-inkscape-font-specification:'San Francisco Display Bold';text-align:center;letter-spacing:0px;word-spacing:0px;text-anchor:middle;fill:#000000;fill-opacity:1;stroke:none;stroke-width:1px;stroke-linecap:butt;stroke-linejoin:miter;stroke-opacity:1"
           d="m 11.589981,1045.0588 0,0.3925 q 0,0.4847 0.113865,0.7318 0.116784,0.2424 0.324076,0.2424 0.189775,0 0.294881,-0.1842 0.105106,-0.1842 0.105106,-0.4653 l 0.423343,0 0,0.073 q 0,0.4992 -0.22481,0.8481 -0.22189,0.349 -0.604359,0.349 -0.417504,0 -0.651073,-0.4216 -0.230649,-0.4217 -0.230649,-1.1777 l 0,-0.3877 q 0,-0.7609 0.233569,-1.1825 0.233569,-0.4265 0.648153,-0.4265 0.37663,0 0.601439,0.3538 0.22773,0.3538 0.22773,0.8772 l 0,0.073 -0.423343,0 q 0,-0.286 -0.108026,-0.4847 -0.105106,-0.1987 -0.29488,-0.1987 -0.131383,0 -0.230649,0.1066 -0.09635,0.1067 -0.15182,0.3344 -0.05255,0.223 -0.05255,0.5477 z" />
        <path
           inkscape:connector-curvature="0"
           id="path5633"
           style="font-style:normal;font-variant:normal;font-weight:bold;font-stretch:normal;font-size:medium;line-height:125%;font-family:'San Francisco Display';-inkscape-font-specification:'San Francisco Display Bold';text-align:center;letter-spacing:0px;word-spacing:0px;text-anchor:middle;fill:#000000;fill-opacity:1;stroke:none;stroke-width:1px;stroke-linecap:butt;stroke-linejoin:miter;stroke-opacity:1"
           d="m 13.188923,1043.5176 0.779535,0 q 0.248166,0 0.429182,0.126 0.181016,0.1212 0.289042,0.3538 0.110945,0.2326 0.163497,0.5428 0.05255,0.3053 0.05255,0.6979 0,0.3925 -0.05255,0.7027 -0.05255,0.3102 -0.160578,0.5477 -0.108025,0.2326 -0.291961,0.3634 -0.181016,0.126 -0.429182,0.126 l -0.779535,0 0,-3.4603 z m 0.44086,0.5913 0,2.2778 0.274444,0 q 0.268604,0 0.405825,-0.2617 0.140141,-0.2617 0.140141,-0.8724 0,-0.2035 -0.01752,-0.3683 -0.0146,-0.1648 -0.05547,-0.3102 -0.03796,-0.1502 -0.09927,-0.2471 -0.06131,-0.1018 -0.15766,-0.16 -0.09343,-0.058 -0.21605,-0.058 l -0.274444,0 z" />
      </g>
    </g>
  </g>
</svg>
