<?xml version="1.0" encoding="UTF-8" standalone="no"?>
<!-- Created with Inkscape (http://www.inkscape.org/) -->

<svg
   xmlns:dc="http://purl.org/dc/elements/1.1/"
   xmlns:cc="http://creativecommons.org/ns#"
   xmlns:rdf="http://www.w3.org/1999/02/22-rdf-syntax-ns#"
   xmlns:svg="http://www.w3.org/2000/svg"
   xmlns="http://www.w3.org/2000/svg"
   xmlns:sodipodi="http://sodipodi.sourceforge.net/DTD/sodipodi-0.dtd"
   xmlns:inkscape="http://www.inkscape.org/namespaces/inkscape"
   width="16"
   height="16"
   id="svg4203"
   version="1.1"
   inkscape:version="0.91 r"
   viewBox="0 0 16 16"
   sodipodi:docname="patente.svg">
  <defs
     id="defs4205" />
  <sodipodi:namedview
     id="base"
     pagecolor="#ffffff"
     bordercolor="#666666"
     borderopacity="1.0"
     inkscape:pageopacity="0.0"
     inkscape:pageshadow="2"
     inkscape:zoom="34"
     inkscape:cx="11.701276"
     inkscape:cy="9.9551523"
     inkscape:current-layer="layer1"
     showgrid="true"
     inkscape:grid-bbox="true"
     inkscape:document-units="px"
     inkscape:window-width="1366"
     inkscape:window-height="713"
     inkscape:window-x="0"
     inkscape:window-y="30"
     inkscape:window-maximized="1"
     inkscape:showpageshadow="false" />
  <metadata
     id="metadata4208">
    <rdf:RDF>
      <cc:Work
         rdf:about="">
        <dc:format>image/svg+xml</dc:format>
        <dc:type
           rdf:resource="http://purl.org/dc/dcmitype/StillImage" />
        <dc:title></dc:title>
      </cc:Work>
    </rdf:RDF>
  </metadata>
  <g
     id="layer1"
     inkscape:label="Layer 1"
     inkscape:groupmode="layer">
    <path
       style="color:#000000;font-style:normal;font-variant:normal;font-weight:normal;font-stretch:normal;font-size:medium;line-height:normal;font-family:sans-serif;text-indent:0;text-align:start;text-decoration:none;text-decoration-line:none;text-decoration-style:solid;text-decoration-color:#000000;letter-spacing:normal;word-spacing:normal;text-transform:none;direction:ltr;block-progression:tb;writing-mode:lr-tb;baseline-shift:baseline;text-anchor:start;white-space:normal;clip-rule:nonzero;display:inline;overflow:visible;visibility:visible;opacity:1;isolation:auto;mix-blend-mode:normal;color-interpolation:sRGB;color-interpolation-filters:linearRGB;solid-color:#000000;solid-opacity:1;fill:#000000;fill-opacity:1;fill-rule:nonzero;stroke:none;stroke-width:0.64899999;stroke-linecap:butt;stroke-linejoin:miter;stroke-miterlimit:4;stroke-dasharray:none;stroke-dashoffset:0;stroke-opacity:1;color-rendering:auto;image-rendering:auto;shape-rendering:auto;text-rendering:auto;enable-background:accumulate"
       d="M 0.64257812 3.6621094 C 0.28965145 3.6621094 0 4.1486651 0 4.7402344 L 0 11.259766 C 0 11.851335 0.28965145 12.337891 0.64257812 12.337891 L 15.357422 12.337891 C 15.710348 12.337891 16 11.851335 16 11.259766 L 16 4.7402344 C 16 4.1486651 15.710348 3.6621094 15.357422 3.6621094 L 0.64257812 3.6621094 z M 0.57421875 6.2109375 L 15.525391 6.2109375 L 15.525391 11.259766 C 15.525391 11.513275 15.409055 11.707031 15.257812 11.707031 L 0.84375 11.707031 C 0.69250824 11.707031 0.56919774 11.513225 0.57421875 11.259766 L 0.57421875 6.2109375 z "
       id="path5568" />
    <path
       inkscape:connector-curvature="0"
       id="path5621"
       style="font-style:normal;font-variant:normal;font-weight:bold;font-stretch:normal;font-size:medium;line-height:125%;font-family:'San Francisco Display';-inkscape-font-specification:'San Francisco Display Bold';text-align:center;letter-spacing:0px;word-spacing:0px;text-anchor:middle;fill:#000000;fill-opacity:1;stroke:none;stroke-width:1px;stroke-linecap:butt;stroke-linejoin:miter;stroke-opacity:1"
       d="m 1.5385931,10.615737 -0.4408608,0 0.6890274,-3.4603023 0.5255294,0 0.6861078,3.4603023 -0.4729764,0 -0.1518196,-0.8578062 -0.6802686,0 -0.1547392,0.8578062 z m 0.5080117,-2.7721191 -0.020437,0 -0.245247,1.3715204 0.5050921,0 -0.2394078,-1.3715204 z" />
    <path
       inkscape:connector-curvature="0"
       id="path5623"
       style="font-style:normal;font-variant:normal;font-weight:bold;font-stretch:normal;font-size:medium;line-height:125%;font-family:'San Francisco Display';-inkscape-font-specification:'San Francisco Display Bold';text-align:center;letter-spacing:0px;word-spacing:0px;text-anchor:middle;fill:#000000;fill-opacity:1;stroke:none;stroke-width:1px;stroke-linecap:butt;stroke-linejoin:miter;stroke-opacity:1"
       d="m 3.2347939,10.615737 0,-3.4603023 0.8875607,0 q 0.283202,0 0.4525392,0.227779 0.1722568,0.2229326 0.1722568,0.6203342 0,0.2132399 -0.052553,0.3780162 -0.049633,0.15993 -0.1284627,0.2520108 -0.078829,0.092081 -0.1810157,0.1308518 l 0,0.029077 q 0.1985333,0.033925 0.3299156,0.2568572 0.1343021,0.2180864 0.1343021,0.5864098 0,0.4604048 -0.2043726,0.7221078 -0.2043726,0.256857 -0.5196901,0.256857 l -0.8904804,0 z m 0.4379412,-2.9223562 0,0.8868841 0.2627646,0 q 0.3766294,0 0.3766294,-0.4507116 0,-0.1405445 -0.037955,-0.2374717 Q 4.2362194,7.7903082 4.1690683,7.7418444 4.1048367,7.6933805 4.0172487,7.6933805 l -0.3445136,0 z m 0,1.3860594 0,0.9983508 0.2948803,0 q 0.4321019,0 0.4321019,-0.489483 0,-0.1647761 -0.043794,-0.2762425 Q 4.3150487,9.1957529 4.2332997,9.1375964 4.1544703,9.0794402 4.0406056,9.0794402 l -0.3678705,0 z" />
    <path
       inkscape:connector-curvature="0"
       id="path5625"
       style="font-style:normal;font-variant:normal;font-weight:bold;font-stretch:normal;font-size:medium;line-height:125%;font-family:'San Francisco Display';-inkscape-font-specification:'San Francisco Display Bold';text-align:center;letter-spacing:0px;word-spacing:0px;text-anchor:middle;fill:#000000;fill-opacity:1;stroke:none;stroke-width:1px;stroke-linecap:butt;stroke-linejoin:miter;stroke-opacity:1"
       d="m 6.6174786,10.615737 -0.4350215,0 0,-2.7672727 -0.017517,0 Q 6.1269846,7.8872357 5.9372104,8.0907823 5.7474359,8.2943295 5.6890437,8.367025 l 0,-0.6784906 Q 5.7532753,7.6158385 5.9430496,7.4122917 6.1328241,7.2038983 6.1912163,7.1554347 l 0.4262626,0 0,3.4603023 z" />
    <path
       inkscape:connector-curvature="0"
       id="path5627"
       style="font-style:normal;font-variant:normal;font-weight:bold;font-stretch:normal;font-size:medium;line-height:125%;font-family:'San Francisco Display';-inkscape-font-specification:'San Francisco Display Bold';text-align:center;letter-spacing:0px;word-spacing:0px;text-anchor:middle;fill:#000000;fill-opacity:1;stroke:none;stroke-width:1px;stroke-linecap:butt;stroke-linejoin:miter;stroke-opacity:1"
       d="m 7.4114749,8.2022488 -0.4175039,0 0,-0.038771 q 0,-0.2035472 0.043794,-0.3877089 0.046714,-0.189008 0.1313823,-0.3440916 0.087588,-0.1550833 0.2277291,-0.2471641 0.1430608,-0.096928 0.3240765,-0.096928 0.3211569,0 0.5196899,0.2762426 0.201453,0.2762425 0.201453,0.697876 0,0.092081 -0.011681,0.1793154 -0.00876,0.087234 -0.020436,0.1502371 -0.00876,0.063003 -0.040873,0.1502373 -0.029199,0.087234 -0.043791,0.1308518 -0.011681,0.038771 -0.058391,0.1308517 -0.043791,0.092081 -0.058391,0.1163128 -0.011681,0.024232 -0.070072,0.1260054 -0.055473,0.1017733 -0.064236,0.1163128 l -0.4525389,0.8384201 0,0.02423 0.8583648,0 0,0.591256 -1.4568844,0 0,-0.455558 0.7503394,-1.3375953 Q 7.8494147,8.691731 7.88737,8.6141891 q 0.037954,-0.077541 0.07883,-0.2132398 0.040873,-0.1356981 0.040873,-0.2665498 0,-0.2035472 -0.084669,-0.3295527 -0.084669,-0.1308517 -0.2131311,-0.1308517 -0.1343021,0 -0.2160511,0.1405445 -0.081749,0.1405444 -0.081749,0.3440915 0,0.00969 0,0.024232 0,0.014539 0,0.019385 z" />
    <path
       inkscape:connector-curvature="0"
       id="path5629"
       style="font-style:normal;font-variant:normal;font-weight:bold;font-stretch:normal;font-size:medium;line-height:125%;font-family:'San Francisco Display';-inkscape-font-specification:'San Francisco Display Bold';text-align:center;letter-spacing:0px;word-spacing:0px;text-anchor:middle;fill:#000000;fill-opacity:1;stroke:none;stroke-width:1px;stroke-linecap:butt;stroke-linejoin:miter;stroke-opacity:1"
       d="m 9.2526529,9.1133646 0,-0.5573315 0.2160511,0 q 0.1430605,0 0.2306484,-0.1308517 0.087589,-0.1308519 0.087589,-0.3343991 0,-0.1938544 -0.087589,-0.3150134 -0.087588,-0.1260054 -0.2248093,-0.1260054 -0.1430605,0 -0.2248102,0.1405445 -0.081749,0.1356981 -0.087588,0.3198599 l -0.411665,0 q 0.00876,-0.4458653 0.201453,-0.7318006 0.1956139,-0.2907817 0.5372082,-0.2907817 0.3153172,0 0.5196898,0.2568571 0.207292,0.2520108 0.210212,0.6494125 0.0029,0.3343989 -0.116785,0.5476389 -0.119703,0.2083934 -0.2569251,0.242318 l 0,0.029079 q 0.058391,0.00484 0.1167849,0.043617 0.061309,0.033924 0.1197032,0.1017734 0.05839,0.067849 0.102186,0.1647764 0.04672,0.092081 0.07299,0.227779 0.0292,0.1356981 0.0292,0.295628 0.003,0.4604043 -0.233569,0.7511863 -0.2364875,0.285935 -0.5780818,0.285935 -0.1868549,0 -0.3357553,-0.08239 Q 8.9928105,10.513964 8.9023026,10.368572 8.8117955,10.223181 8.762162,10.03902 8.7154446,9.854858 8.7125263,9.6416181 l 0.4058251,0 q 0.011681,0.2083935 0.1080259,0.3392453 0.099266,0.1308516 0.2569256,0.1308516 0.1693368,0 0.2656838,-0.1405443 0.099267,-0.1405445 0.096347,-0.3634771 0,-0.2180863 -0.096347,-0.3537845 Q 9.6526397,9.1133646 9.4803829,9.1133646 l -0.2277293,0 z" />
    <path
       inkscape:connector-curvature="0"
       id="path5631"
       style="font-style:normal;font-variant:normal;font-weight:bold;font-stretch:normal;font-size:medium;line-height:125%;font-family:'San Francisco Display';-inkscape-font-specification:'San Francisco Display Bold';text-align:center;letter-spacing:0px;word-spacing:0px;text-anchor:middle;fill:#000000;fill-opacity:1;stroke:none;stroke-width:1px;stroke-linecap:butt;stroke-linejoin:miter;stroke-opacity:1"
       d="m 11.589981,8.6965776 0,0.3925552 q 0,0.4846362 0.113865,0.7318006 0.116784,0.2423176 0.324076,0.2423176 0.189775,0 0.294881,-0.1841612 0.105106,-0.1841617 0.105106,-0.4652507 l 0.423343,0 0,0.072696 q 0,0.4991752 -0.22481,0.8481131 -0.22189,0.348938 -0.604359,0.348938 -0.417504,0 -0.651073,-0.421633 -0.230649,-0.4216338 -0.230649,-1.1776661 l 0,-0.3877089 q 0,-0.7608788 0.233569,-1.1825122 0.233569,-0.4264798 0.648153,-0.4264798 0.37663,0 0.601439,0.3537843 0.22773,0.3537845 0.22773,0.8771914 l 0,0.072696 -0.423343,0 q 0,-0.2859353 -0.108026,-0.4846361 -0.105106,-0.1987009 -0.29488,-0.1987009 -0.131383,0 -0.230649,0.1066203 -0.09635,0.1066203 -0.15182,0.3343989 -0.05255,0.2229326 -0.05255,0.5476389 z" />
    <path
       inkscape:connector-curvature="0"
       id="path5633"
       style="font-style:normal;font-variant:normal;font-weight:bold;font-stretch:normal;font-size:medium;line-height:125%;font-family:'San Francisco Display';-inkscape-font-specification:'San Francisco Display Bold';text-align:center;letter-spacing:0px;word-spacing:0px;text-anchor:middle;fill:#000000;fill-opacity:1;stroke:none;stroke-width:1px;stroke-linecap:butt;stroke-linejoin:miter;stroke-opacity:1"
       d="m 13.188923,7.1554347 0.779535,0 q 0.248166,0 0.429182,0.1260053 0.181016,0.1211597 0.289042,0.3537845 0.110945,0.2326252 0.163497,0.5427925 0.05255,0.3053207 0.05255,0.697876 0,0.3925553 -0.05255,0.7027224 -0.05255,0.3101671 -0.160578,0.5476386 -0.108025,0.232626 -0.291961,0.363477 -0.181016,0.126006 -0.429182,0.126006 l -0.779535,0 0,-3.4603023 z m 0.44086,0.5912561 0,2.2777902 0.274444,0 q 0.268604,0 0.405825,-0.2617039 0.140141,-0.2617035 0.140141,-0.8723451 0,-0.2035472 -0.01752,-0.3683235 -0.0146,-0.1647762 -0.05547,-0.3101671 -0.03796,-0.1502371 -0.09927,-0.2471644 -0.06131,-0.1017734 -0.15766,-0.1599299 -0.09343,-0.058156 -0.21605,-0.058156 l -0.274444,0 z" />
  </g>
</svg>
