<?xml version="1.0" encoding="UTF-8" standalone="no"?>
<!-- Created with Inkscape (http://www.inkscape.org/) -->

<svg
   xmlns:dc="http://purl.org/dc/elements/1.1/"
   xmlns:cc="http://creativecommons.org/ns#"
   xmlns:rdf="http://www.w3.org/1999/02/22-rdf-syntax-ns#"
   xmlns:svg="http://www.w3.org/2000/svg"
   xmlns="http://www.w3.org/2000/svg"
   xmlns:sodipodi="http://sodipodi.sourceforge.net/DTD/sodipodi-0.dtd"
   xmlns:inkscape="http://www.inkscape.org/namespaces/inkscape"
   width="16"
   height="16"
   viewBox="0 0 16 16"
   id="svg2"
   version="1.1"
   inkscape:version="0.91 r"
   sodipodi:docname="drawing.svg">
  <defs
     id="defs4" />
  <sodipodi:namedview
     id="base"
     pagecolor="#ffffff"
     bordercolor="#666666"
     borderopacity="1.0"
     inkscape:pageopacity="0.0"
     inkscape:pageshadow="2"
     inkscape:zoom="5.6568542"
     inkscape:cx="8"
     inkscape:cy="8"
     inkscape:document-units="px"
     inkscape:current-layer="layer1"
     showgrid="false"
     units="px"
     showguides="true"
     inkscape:guide-bbox="true"
     inkscape:window-width="1366"
     inkscape:window-height="713"
     inkscape:window-x="0"
     inkscape:window-y="30"
     inkscape:window-maximized="1" />
  <metadata
     id="metadata7">
    <rdf:RDF>
      <cc:Work
         rdf:about="">
        <dc:format>image/svg+xml</dc:format>
        <dc:type
           rdf:resource="http://purl.org/dc/dcmitype/StillImage" />
        <dc:title></dc:title>
      </cc:Work>
    </rdf:RDF>
  </metadata>
  <g
     inkscape:label="Capa 1"
     inkscape:groupmode="layer"
     id="layer1"
     transform="translate(0,-1036.3622)">
    <path
       style="color:#000000;clip-rule:nonzero;display:inline;overflow:visible;visibility:visible;opacity:1;isolation:auto;mix-blend-mode:normal;color-interpolation:sRGB;color-interpolation-filters:linearRGB;solid-color:#000000;solid-opacity:1;fill:#000000;fill-opacity:1;fill-rule:nonzero;stroke:none;stroke-width:1;stroke-linecap:butt;stroke-linejoin:miter;stroke-miterlimit:4;stroke-dasharray:none;stroke-dashoffset:0;stroke-opacity:1;color-rendering:auto;image-rendering:auto;shape-rendering:auto;text-rendering:auto;enable-background:accumulate"
       d="m 3.6990006,1039.3108 c -0.6140369,0.1199 -0.7982867,0.3698 -0.8678,0.6257 l -0.1856688,1.2533 3.3380027,0 c 0.3862595,-0.039 0.7379102,-0.1407 0.8839452,-0.6257 l 0.1735599,-1.2533 -3.342039,0 z m 5.6003372,0 c -0.6058577,0.08 -0.6548475,0.2018 -0.7991833,0.8093 l -1.2108837,9.2936 2.0564842,0 0.5428793,-3.6367 2.5065297,0 c 2.088692,-0.2433 3.245286,-1.8392 3.342039,-3.1383 0.137491,-1.8461 -0.849491,-3.328 -2.163446,-3.3279 l -4.2744192,0 z m 1.1886832,2.0928 2.318843,0 c 0.613102,0.1151 0.738174,0.8649 0.645805,1.3845 -0.08921,0.5018 -0.441627,1.0752 -1.315827,1.229 l -2.020157,0 0.371336,-2.6135 z m -9.1865702,2.0182 c -0.6140369,0.1198 -0.79828673,0.3718 -0.8678001,0.6277 L 0.25,1045.3028 l 5.2168908,0 c 0.3862595,-0.039 0.7379101,-0.1427 0.8839451,-0.6278 l 0.17356,-1.2532 -5.2229451,0 z m 1.2694098,4.113 c -0.6140367,0.1197 -0.7982866,0.3698 -0.8678,0.6257 l -0.1836508,1.2532 3.3359847,0 c 0.386259,-0.039 0.7379102,-0.1405 0.8839452,-0.6257 l 0.17356,-1.2532 -3.3420391,0 z"
       id="path4219"
       inkscape:connector-curvature="0" />
  </g>
</svg>
