<?xml version="1.0" encoding="UTF-8" standalone="no"?>
<!-- Created with Inkscape (http://www.inkscape.org/) -->

<svg
   xmlns:dc="http://purl.org/dc/elements/1.1/"
   xmlns:cc="http://creativecommons.org/ns#"
   xmlns:rdf="http://www.w3.org/1999/02/22-rdf-syntax-ns#"
   xmlns:svg="http://www.w3.org/2000/svg"
   xmlns="http://www.w3.org/2000/svg"
   xmlns:sodipodi="http://sodipodi.sourceforge.net/DTD/sodipodi-0.dtd"
   xmlns:inkscape="http://www.inkscape.org/namespaces/inkscape"
   width="16"
   height="16"
   viewBox="0 0 16 16"
   id="svg2"
   version="1.1"
   inkscape:version="0.91 r"
   sodipodi:docname="sintacc.svg">
  <defs
     id="defs4" />
  <sodipodi:namedview
     id="base"
     pagecolor="#ffffff"
     bordercolor="#666666"
     borderopacity="1.0"
     inkscape:pageopacity="0.0"
     inkscape:pageshadow="2"
     inkscape:zoom="32"
     inkscape:cx="11.279596"
     inkscape:cy="10.078922"
     inkscape:document-units="px"
     inkscape:current-layer="layer1"
     showgrid="false"
     units="px"
     inkscape:window-width="1366"
     inkscape:window-height="713"
     inkscape:window-x="0"
     inkscape:window-y="30"
     inkscape:window-maximized="1" />
  <metadata
     id="metadata7">
    <rdf:RDF>
      <cc:Work
         rdf:about="">
        <dc:format>image/svg+xml</dc:format>
        <dc:type
           rdf:resource="http://purl.org/dc/dcmitype/StillImage" />
        <dc:title />
      </cc:Work>
    </rdf:RDF>
  </metadata>
  <g
     inkscape:label="Capa 1"
     inkscape:groupmode="layer"
     id="layer1"
     transform="translate(0,-1036.3622)">
    <path
       style="fill:#000000;fill-rule:nonzero"
       d="m 12.158203,1036.3661 -0.123047,0.059 c -0.221606,0.1038 -0.424806,0.258 -0.589844,0.4531 -0.157901,0.1866 -0.281321,0.4112 -0.357421,0.6641 -0.07281,0.242 -0.09513,0.4847 -0.07227,0.7168 -0.03681,-0.051 -0.07594,-0.1005 -0.117183,-0.1465 -0.169629,-0.1906 -0.375106,-0.3395 -0.59961,-0.4375 l -0.125,-0.055 -0.07031,0.1192 c -0.04365,0.1222 -0.102865,0.2382 -0.1542972,0.3574 -0.7732689,-0.2163 -1.5918955,-0.306 -2.4277344,-0.25 L 7.4003906,1037.62 c -0.1274275,-0.2046 -0.2953124,-0.3767 -0.4882812,-0.5039 l -0.1132813,-0.074 -0.089844,0.1055 c -0.1479601,0.1778 -0.2577795,0.3903 -0.3203125,0.623 -0.025439,0.095 -0.03982,0.1946 -0.048828,0.2949 0.00116,-0.013 -0.00146,-0.028 0,-0.041 -0.9125878,0.2136 -1.7480645,0.5941 -2.4804688,1.1035 0.00995,0.01 0.017516,0.016 0.027344,0.022 -0.072789,-0.044 -0.1460695,-0.087 -0.2246094,-0.1172 l -0.1289063,-0.049 -0.0625,0.123 c -0.046824,0.1426 -0.09375,0.2852 -0.1406253,0.4278 -0.4662917,0.3924 -0.8793951,0.8415 -1.2324219,1.334 -1.050364,1.4653 -1.67129463,3.3375 -1.24537113,5.3595 0.86562603,4.1094 4.12983803,6.3821 8.26909283,6.0253 4.0917621,-0.3526 6.5757761,-4.4368 6.0496891,-8.1591 -0.27175,-1.9227 -1.176298,-3.4133 -2.415208,-4.4855 -0.0033,0 -0.0084,0.01 -0.01172,0.012 0.06511,-0.083 0.127334,-0.1674 0.175783,-0.2578 0.120492,-0.2247 0.190048,-0.4688 0.205078,-0.7129 l 0.0078,-0.1367 -0.134765,-0.025 c -0.241583,-0.042 -0.495922,-0.03 -0.742188,0.035 -0.06695,0.017 -0.133508,0.038 -0.199218,0.064 0.152141,-0.1838 0.271553,-0.404 0.345703,-0.6504 0.0764,-0.2538 0.09694,-0.508 0.06836,-0.75 -0.02988,-0.2534 -0.112474,-0.4941 -0.240234,-0.7031 z"
       id="path4211" />
    <path
       style="fill:#ffffff;fill-rule:evenodd"
       d="m 8.5527344,1039.788 c 0.3034278,0.031 0.6001106,0.089 0.8886718,0.1699 l -0.00195,0.031 c -0.022671,0.2442 0.00365,0.4995 0.085937,0.75 0.014663,0.045 0.031248,0.088 0.048828,0.1308 -0.1060045,-0.065 -0.2004961,-0.096 -0.3125024,-0.149 -0.1800086,0.2422 -0.2135747,0.5676 -0.2890622,0.8008 -0.129541,0.01 -0.2312926,0.033 -0.3124999,0.045 0.2915232,-0.5867 0.2164788,-1.0906 0.072266,-1.6018 l -0.1328125,0.035 c -0.0564,0.016 -0.1132408,0.035 -0.1679688,0.057 0.013008,-0.024 0.026947,-0.048 0.039063,-0.072 0.025618,-0.066 0.054686,-0.1315 0.082031,-0.1972 z"
       id="path4209"
       inkscape:connector-curvature="0"
       sodipodi:nodetypes="cccccccccccccc" />
    <path
       style="fill:#ffffff;fill-rule:evenodd"
       d="m 6.1074219,1040.3878 c -0.091206,-2e-4 -0.1696019,0 -0.2636719,0 -0.040445,0.6418 0.2937093,1.3076 0.533203,1.5115 l -0.3085937,0 c 0.031272,-0.1308 -0.1916792,-0.6557 -0.3261716,-0.7908 -0.073058,0.031 -0.1465156,0.08 -0.2109377,0.115 0.1190376,-0.2948 0.045356,-0.6141 -0.017577,-0.85 0.1338554,-0.07 0.304338,-0.1694 0.377746,-0.2086 0,0 0.162656,0.1603 0.2160029,0.2229 z"
       id="path4207"
       inkscape:connector-curvature="0"
       sodipodi:nodetypes="ccccccccc" />
    <path
       style="fill:#ffffff;fill-rule:evenodd"
       d="m 12.212891,1041.7528 c -0.0013,0.02 -0.0038,0.039 -0.0059,0.059 0.247325,0.3167 0.460397,0.6648 0.632813,1.0371 l -1.195313,0.086 c 0.150639,-0.1411 0.271686,-0.3017 0.363321,-0.4727 0.119888,-0.2236 0.189566,-0.4661 0.205079,-0.709 z"
       id="path4205" />
    <path
       style="fill:#ffffff;fill-rule:evenodd"
       d="m 3.4042969,1042.3895 0.1660156,0.3555 c 0.1090839,0.1725 0.2561942,0.3284 0.4375,0.461 0.1813059,0.1325 0.3389942,0.1988 0.4980469,0.2421 l -1.6152344,0.1153 c -8.371e-4,0 -0.00307,0.01 -0.00391,0.01 l 0,-0.01 0.00391,0 c 0.1244099,-0.4125 0.2968885,-0.807 0.5136719,-1.1739 z"
       id="path4201" />
    <path
       style="fill:#ffffff;fill-rule:evenodd"
       d="m 9.1054688,1042.4306 c 0.081283,0.1968 0.1927252,0.3715 0.3261718,0.5214 0.042329,0.048 0.084517,0.091 0.1269532,0.1329 l -0.7050782,0.051 c 0.02789,-0.048 0.054153,-0.096 0.080078,-0.1484 0.090184,-0.1808 0.1472148,-0.3693 0.171875,-0.5566 z"
       id="path4199" />
    <path
       style="fill:#ffffff;fill-rule:evenodd"
       d="m 13.113281,1046.6298 c -0.170257,0.5671 -0.434532,1.1006 -0.77539,1.5762 -0.763267,1.0648 -1.918101,1.8481 -3.2968754,2.121 0.1069362,-0.2757 0.1848886,-0.4876 0.2988282,-0.7793 0.2324768,-0.5952 0.4638774,-1.1891 0.6386718,-1.6542 l 0.4570314,1.6582 c 0.01303,0.057 0.06455,0.1006 0.125,0.1 0.06993,-6e-4 0.125539,-0.059 0.125,-0.1289 l -0.01563,-1.9317 c -9.29e-4,-0.1098 0.05709,-0.4373 -0.115234,-0.4414 l -0.5898442,0.035 c -0.01561,0 -0.030801,-7e-4 -0.046875,0 -0.091709,0.025 -0.1260317,0.1905 -0.1542969,0.2695 -0.1774889,0.4956 -0.4635239,1.2189 -0.7539063,1.9609 -0.1139155,0.2915 -0.2288049,0.5831 -0.3359375,0.8594 0.1112953,-0.8633 0.2852293,-1.9358 0.4960938,-2.9453 0.029826,-0.1428 0.060633,-0.2825 0.091797,-0.4219 z"
       id="path4197" />
    <path
       style="fill:#ffffff;fill-rule:evenodd"
       d="m 8.8945312,1046.9325 c -0.023712,0.1078 -0.047436,0.2166 -0.070312,0.3262 -0.1977633,0.9468 -0.3636877,1.9501 -0.4765626,2.789 -0.010332,-0.4572 -0.03001,-0.948 -0.054688,-1.4355 -0.028581,-0.5651 -0.064123,-1.1265 -0.1074219,-1.6289 z"
       id="path4194" />
    <path
       style="fill:#ffffff;fill-rule:evenodd"
       d="m 7.8320312,1047.0087 c 0.043262,0.4996 0.078952,1.0583 0.1074219,1.6211 0.027838,0.5497 0.047424,1.1022 0.056641,1.6054 -0.1770988,-0.7511 -0.453021,-1.6421 -0.7890626,-2.4941 -0.089163,-0.226 -0.1843753,-0.4503 -0.28125,-0.668 z"
       id="path4192" />
    <path
       style="fill:#ffffff;fill-rule:evenodd"
       d="m 6.5507812,1047.1005 c 0.1131907,0.2489 0.2227002,0.5072 0.3261719,0.7695 0.3478696,0.882 0.6284119,1.8006 0.7988281,2.5527 l -0.011719,0 -0.8242187,-1.621 c -0.0061,-0.025 -0.018304,-0.048 -0.039063,-0.066 -0.013937,-0.012 -0.030336,-0.018 -0.046875,-0.023 l -0.00977,0 0,-0 -0.00391,0 -0.5253906,-0.209 c -0.06493,-0.026 -0.1380831,0.01 -0.1640626,0.07 -0.1880645,0.4109 -0.3784313,0.8206 -0.5683504,1.2306 -0.2054753,-0.1099 -0.4027863,-0.2317 -0.5917969,-0.3672 -0.7363254,-0.5278 -1.3384543,-1.2431 -1.7304688,-2.0899 z"
       id="path4190" />
    <path
       style="fill:#ffffff;fill-rule:evenodd"
       d="m 6.6171872,1049.1474 0.6230469,1.2304 c -0.4711295,-0.067 -0.9256428,-0.1962 -1.3535153,-0.3808 z"
       id="path4196" />
    <path
       d="m 2.1397796,1044.815 c 0.1499485,-0.1042 0.3313399,-0.164 0.5510497,-0.1716 0.2197099,-0.01 0.32734,0.015 0.4272665,0.06 0.1777605,0.079 0.1667157,0.2794 0.1527356,0.4266 l -0.4610884,0.031 c 0.06135,-0.148 -0.075274,-0.1945 -0.2034135,-0.1866 -0.2553305,0.016 -0.2061069,0.1804 -0.2061069,0.1804 0.011676,0.044 0.046973,0.09 0.1379437,0.111 0.4196826,0.097 0.6343578,0.1439 0.6897183,0.3508 0.064077,0.2394 -0.047325,0.4067 -0.1712446,0.5097 -0.1606545,0.1335 -0.3404759,0.2153 -0.623785,0.2359 -0.2458314,0.018 -0.3972371,-0.028 -0.4903942,-0.094 -0.17894,-0.126 -0.1319149,-0.2715 -0.1326352,-0.4282 l 0.4585425,-0.035 c -0.031742,0.2547 0.1395139,0.2463 0.2693994,0.2254 0.1742186,-0.028 0.2152525,-0.1324 0.190039,-0.2148 -0.060269,-0.197 -0.2957273,-0.1805 -0.4884792,-0.2321 -0.2311468,-0.062 -0.2888879,-0.2065 -0.2888879,-0.3643 0,-0.1503 0.039355,-0.2997 0.1893402,-0.4039 z m 1.2007773,1.4437 0.1631426,-1.1871 0.4429512,-0.032 -0.1451726,1.1858 -0.4609212,0.033 z m 0.1864832,-1.365 0.04932,-0.2884 0.4429511,-0.032 -0.04932,0.2883 -0.4429512,0.032 z m 0.4763267,1.3173 c 0.036135,-0.2395 0.075517,-0.5034 0.109233,-0.7278 0.021464,-0.1515 0.033933,-0.2973 0.037371,-0.4378 l 0.4428025,-0.034 -0.00907,0.125 c 0.1029143,-0.1271 0.2643824,-0.187 0.3956753,-0.187 0.2314917,0 0.3636025,0.1391 0.3610174,0.258 -0.00698,0.321 -0.069762,0.6153 -0.1159763,0.9146 l -0.4429882,0.032 c 0.047805,-0.255 0.090582,-0.5274 0.1020204,-0.7806 0.00474,-0.1048 -0.04958,-0.1124 -0.129655,-0.106 -0.067244,0.01 -0.1282936,0.024 -0.1437045,0.076 -0.077785,0.2614 -0.1187873,0.539 -0.1637733,0.8274 -0.1422226,0 -0.3159693,0.029 -0.4429523,0.04 z m 2.5201161,-0.1815 0.188899,-1.3313 -0.4946498,0.036 0.046867,-0.322 1.4705137,-0.1059 -0.031109,0.3209 -0.512657,0.037 -0.1889548,1.3313 -0.4789097,0.035 z m 0.6432603,-0.046 0.03765,-0.3045 0.3613705,-0.026 -0.03765,0.3045 z m 0.5067475,-0.036 0.856392,-1.698 0.5666414,-0.041 0.4185141,1.6062 -0.5149056,0.037 -0.074705,-0.3156 -0.6385959,0.046 -0.1523829,0.3319 -0.4609583,0.033 z m 1.1918202,-0.7435 -0.1193976,-0.6853 -0.3055649,0.7159 0.4249625,-0.031 z m 0.775852,0.6018 0.037668,-0.3044 0.3613711,-0.026 -0.03765,0.3044 z m 0.4714021,-0.6215 c -0.0042,-0.059 -0.0045,-0.1244 -7.43e-4,-0.1978 0.0038,-0.073 0.01423,-0.1475 0.03142,-0.2226 0.04053,-0.1702 0.127277,-0.3305 0.260352,-0.4809 0.133038,-0.1505 0.346281,-0.2393 0.639674,-0.2665 l 0.110403,0 c 0.03912,-6e-4 0.07915,7e-4 0.120066,0 0.115087,0.01 0.222665,0.037 0.322718,0.087 0.100015,0.05 0.154687,0.1395 0.163979,0.2684 0.0015,0.02 0.0017,0.04 9.29e-4,0.061 -7.44e-4,0.021 -0.0033,0.043 -0.0077,0.066 l -0.494835,0.033 c 9.29e-4,-0.01 0.0015,-0.016 0.0017,-0.024 1.68e-4,-0.01 3.7e-5,-0.015 -3.71e-4,-0.021 -0.0039,-0.054 -0.02213,-0.093 -0.05469,-0.1159 -0.03256,-0.023 -0.06716,-0.038 -0.103769,-0.044 l -0.05798,0 c -0.01888,-10e-5 -0.03501,2e-4 -0.0485,0 -0.01349,9e-4 -0.02691,0 -0.04023,0.01 -0.01336,0 -0.02667,0.01 -0.03994,0.011 -0.06595,0.026 -0.127462,0.082 -0.184513,0.1681 -0.09556,0.1435 -0.08697,0.2856 -0.127011,0.4171 -0.04512,0.1443 0.04329,0.293 0.06182,0.4184 0.03804,0.058 0.103546,0.083 0.196444,0.076 0.0075,-6e-4 0.01574,0 0.02473,0 0.009,-5e-4 0.01793,0 0.02683,0 0.015,0 0.03022,0 0.0457,-0.01 0.01546,0 0.03191,-0.012 0.04936,-0.021 0.04207,-0.023 0.08043,-0.055 0.115068,-0.098 0.03458,-0.042 0.05306,-0.089 0.05538,-0.1407 l 0.476531,-0.037 c 0.0019,0 0.0033,0.01 0.0043,0.012 9.29e-4,0 0.0017,0.01 0.002,0.012 0.002,0.027 -0.0051,0.065 -0.02113,0.1145 -0.01606,0.049 -0.04391,0.1018 -0.08361,0.1574 -0.05755,0.08 -0.142943,0.1542 -0.256208,0.2241 -0.113247,0.07 -0.262805,0.1116 -0.448693,0.125 -0.006,4e-4 -0.01199,0 -0.01799,0 -0.006,4e-4 -0.01273,10e-4 -0.02024,0 -0.251822,0.018 -0.424182,-0.021 -0.517099,-0.1187 -0.09286,-0.097 -0.149855,-0.2084 -0.17091,-0.3335 -0.0029,-0.019 -0.0054,-0.039 -0.0076,-0.059 -0.0022,-0.02 -0.004,-0.04 -0.0054,-0.059 l -1.49e-4,0 z m 1.554343,0.4757 0.03765,-0.3045 0.361389,-0.026 -0.03767,0.3044 -0.36137,0.026 z m 0.456851,-0.6206 c -0.0042,-0.058 -0.0045,-0.1243 -7.43e-4,-0.1977 0.0038,-0.073 0.01423,-0.1476 0.03142,-0.2226 0.04049,-0.1702 0.127277,-0.3305 0.260352,-0.4809 0.133038,-0.1505 0.346262,-0.2393 0.639655,-0.2665 l 0.110404,0 c 0.03914,-6e-4 0.07916,7e-4 0.120085,0 0.115086,0.01 0.222665,0.037 0.322717,0.088 0.1,0.05 0.154687,0.1395 0.163979,0.2684 0.0013,0.019 0.0017,0.04 9.29e-4,0.061 -7.43e-4,0.021 -0.0033,0.043 -0.0076,0.066 l -0.494835,0.033 c 9.29e-4,-0.01 0.0015,-0.015 0.0017,-0.024 1.67e-4,-0.01 1.9e-5,-0.015 -3.72e-4,-0.021 -0.0039,-0.054 -0.02215,-0.093 -0.05471,-0.1158 -0.03254,-0.023 -0.06714,-0.038 -0.103769,-0.044 l -0.05798,0 c -0.01886,-10e-5 -0.03501,2e-4 -0.0485,0 -0.01347,9e-4 -0.02689,0 -0.04021,0.01 -0.01336,0 -0.02667,0.01 -0.03994,0.011 -0.06595,0.026 -0.127481,0.082 -0.184513,0.1681 -0.05709,0.086 -0.0978,0.2116 -0.122111,0.3761 -0.002,0.014 -0.0037,0.027 -0.005,0.041 -0.0013,0.014 -0.0022,0.027 -0.0027,0.041 -0.0024,0.029 -0.0038,0.057 -0.0041,0.084 -3.71e-4,0.027 3.72e-4,0.053 0.0023,0.079 0.0061,0.085 0.02826,0.1569 0.0663,0.2144 0.03804,0.058 0.103546,0.083 0.196444,0.076 0.0075,-6e-4 0.01576,0 0.02475,0 0.009,-5e-4 0.01793,0 0.02682,0 0.01501,0 0.03023,0 0.0457,-0.01 0.01546,0 0.03191,-0.012 0.04936,-0.021 0.04207,-0.023 0.08045,-0.055 0.115068,-0.098 0.0346,-0.042 0.05306,-0.089 0.0554,-0.1407 l 0.476512,-0.037 c 0.0019,0 0.0033,0.01 0.0043,0.012 9.3e-4,0 0.0017,0.01 0.002,0.012 0.0019,0.027 -0.0051,0.065 -0.02115,0.1146 -0.01604,0.049 -0.04391,0.1018 -0.08359,0.1574 -0.05755,0.08 -0.142962,0.1542 -0.256208,0.2241 -0.113265,0.07 -0.262823,0.1116 -0.448693,0.125 -0.006,4e-4 -0.01199,9e-4 -0.01801,0 -0.006,4e-4 -0.01273,9e-4 -0.02024,0 -0.251822,0.018 -0.424182,-0.021 -0.51708,-0.1187 -0.09288,-0.097 -0.149855,-0.2085 -0.170929,-0.3335 -0.0029,-0.019 -0.0054,-0.039 -0.0076,-0.059 -0.0022,-0.02 -0.004,-0.04 -0.0054,-0.059 l -1.67e-4,0 z m 1.664468,0.4678 0.03767,-0.3044 0.361371,-0.026 -0.03765,0.3044 z"
       style="fill:#ffffff;fill-rule:evenodd"
       id="path4202"
       inkscape:connector-curvature="0"
       sodipodi:nodetypes="cssccsssssssccsssscccccccccccccccccccssccssscccccccccccccccccccccccccccccccccccccccccccccccccccccccccccccscccccccccccccccscccccccccccccccccccccccccccccccsccccccscccccccccccccccsccccccccc" />
    <path
       style="fill:#ffffff;fill-rule:evenodd"
       d="m 6.8408357,1037.3312 c -0.5305894,0.9418 -0.3475653,1.6603 0.3124706,2.1031 0.5884588,-0.9292 0.2990959,-1.5091 -0.3124706,-2.1031 z"
       id="path4174"
       inkscape:connector-curvature="0"
       sodipodi:nodetypes="ccc" />
    <path
       style="fill:#ffffff;fill-rule:evenodd"
       d="m 8.340383,1038.7714 c -1.0085774,0.3491 -1.1075673,0.9964 -0.9147757,1.8359 0.9480533,-0.4029 0.9938685,-1.0142 0.9147757,-1.8359 z"
       id="path4168"
       inkscape:connector-curvature="0"
       sodipodi:nodetypes="ccc" />
    <path
       style="fill:#ffffff;fill-rule:evenodd"
       d="m 5.8257018,1039.1351 c 0.066081,1.0693 0.6141726,1.3493 1.4247561,1.5069 -0.1798708,-1.017 -0.5153105,-1.4289 -1.4247561,-1.5069 z"
       id="path4166"
       inkscape:connector-curvature="0"
       sodipodi:nodetypes="ccc" />
    <path
       style="fill:#ffffff;fill-rule:evenodd"
       d="m 3.6855469,1039.3817 c -0.359394,0.8385 -0.063988,1.1906 0.5585937,1.4688 0.3942232,-0.8669 0.028197,-1.1612 -0.5585937,-1.4688 z"
       id="path4164"
       inkscape:connector-curvature="0"
       sodipodi:nodetypes="ccc" />
    <path
       style="fill:#ffffff;fill-rule:evenodd"
       d="m 9.8632812,1039.5595 c -0.3896391,0.895 -0.1503935,1.4137 0.6308598,1.9218 0.358272,-0.9907 0.215769,-1.4392 -0.6308598,-1.9218 z"
       id="path4162"
       inkscape:connector-curvature="0"
       sodipodi:nodetypes="ccc" />
    <path
       style="fill:#ffffff;fill-rule:evenodd"
       d="m 4.7695311,1041.8254 c 0.6390118,-0.4174 0.6232176,-0.8448 0.3793544,-1.4895 -0.7430329,0.4558 -0.6334637,0.8551 -0.3793544,1.4895 z"
       id="path4160"
       inkscape:connector-curvature="0"
       sodipodi:nodetypes="ccc" />
    <path
       style="fill:#ffffff;fill-rule:evenodd"
       d="m 10.769531,1041.5654 c 1.156925,0.061 1.499027,-0.5027 1.610665,-1.2383 -0.928596,-0.1447 -1.500064,0.3117 -1.610665,1.2383 z"
       id="path4158"
       inkscape:connector-curvature="0"
       sodipodi:nodetypes="ccc" />
    <path
       style="fill:#ffffff;fill-rule:evenodd"
       d="m 8.5784618,1040.2679 c -0.9539058,0.3691 -1.1371501,1.1579 -0.9106803,1.8214 0.9207552,-0.3814 1.0683586,-0.9649 0.9106803,-1.8214 z"
       id="path4156"
       inkscape:connector-curvature="0"
       sodipodi:nodetypes="ccc" />
    <path
       style="fill:#ffffff;fill-rule:evenodd"
       d="m 6.085605,1040.6461 c 0.063249,0.9857 0.5699376,1.3109 1.3854212,1.4654 -0.127394,-1.0881 -0.5592,-1.3431 -1.3854212,-1.4654 z"
       id="path4154"
       inkscape:connector-curvature="0"
       sodipodi:nodetypes="ccc" />
    <path
       style="fill:#ffffff;fill-rule:evenodd"
       d="m 3.2070312,1041.0419 c 0.1852199,0.8628 0.6340327,0.9688 1.3007813,0.8851 -0.2159125,-0.7154 -0.5188442,-1.0058 -1.3007813,-0.8851 z"
       id="path4152"
       inkscape:connector-curvature="0"
       sodipodi:nodetypes="ccc" />
    <path
       style="fill:#ffffff;fill-rule:evenodd"
       d="m 9.3945312,1041.1181 c -0.3391408,0.8868 -0.1565317,1.4429 0.6308598,1.9218 0.446539,-1.0966 0.189878,-1.4615 -0.6308598,-1.9218 z"
       id="path4150"
       inkscape:connector-curvature="0"
       sodipodi:nodetypes="ccc" />
    <path
       style="fill:#ffffff;fill-rule:evenodd"
       d="m 5.6386719,1041.5224 c -0.7358063,0.4319 -0.7143236,0.9419 -0.3847649,1.5234 0.6309977,-0.4248 0.6933357,-0.8714 0.3847649,-1.5234 z"
       id="path4148"
       inkscape:connector-curvature="0"
       sodipodi:nodetypes="ccc" />
    <path
       style="fill:#ffffff;fill-rule:evenodd"
       d="m 4.9921875,1043.1454 c -0.2050146,-0.9808 -0.7887319,-0.9109 -1.2864059,-0.8813 0.1900733,0.7617 0.5888108,0.9458 1.2864059,0.8813 z"
       id="path4363"
       inkscape:connector-curvature="0"
       sodipodi:nodetypes="ccc" />
    <path
       style="fill:#ffffff;fill-rule:evenodd"
       d="m 8.765625,1041.8563 c 0.2019864,0.5949 -0.016777,0.9984 -0.3183594,1.3086 l -0.5703125,0.041 c -0.1015987,-0.7898 0.2622537,-1.0479 0.8886719,-1.3497 z"
       id="path4184"
       inkscape:connector-curvature="0"
       sodipodi:nodetypes="ccccc" />
    <path
       style="fill:#ffffff;fill-rule:evenodd"
       d="m 11.046875,1042.9774 -0.726563,0.053 c 0.219445,-0.9545 0.790152,-1.2199 1.635349,-1.218 -0.0571,0.6051 -0.390444,0.9531 -0.908786,1.165 z"
       id="path4182"
       inkscape:connector-curvature="0"
       sodipodi:nodetypes="cccc" />
    <path
       style="fill:#ffffff;fill-rule:evenodd"
       d="m 6.359375,1042.141 c 0.6819226,0.066 1.2588228,0.377 1.321171,1.0811 l -0.7388539,0.052 c -0.4112982,-0.2951 -0.5358128,-0.6206 -0.5823167,-1.1333 z"
       id="path4180"
       inkscape:connector-curvature="0"
       sodipodi:nodetypes="ccccc" />
    <path
       style="fill:#ffffff;fill-rule:evenodd"
       d="M 6.2324219,1043.3231 5.576,1043.3641 c 0.011355,-0.2617 0.3123808,-0.6589 0.5426928,-0.7338 0.1609197,0.108 0.1951489,0.4984 0.1137291,0.6928 z"
       id="path4144"
       inkscape:connector-curvature="0"
       sodipodi:nodetypes="cccc" />
    <path
       sodipodi:nodetypes="ccc"
       inkscape:connector-curvature="0"
       id="path4213"
       d="m 10.272077,1038.0238 c -0.3896388,0.895 -0.150393,1.4137 0.63086,1.9218 0.358272,-0.9907 0.215769,-1.4392 -0.63086,-1.9218 z"
       style="fill:#ffffff;fill-rule:evenodd" />
    <path
       sodipodi:nodetypes="ccc"
       inkscape:connector-curvature="0"
       id="path4215"
       d="m 11.178327,1040.0297 c 1.156925,0.061 1.499027,-0.5027 1.610665,-1.2383 -0.928596,-0.1447 -1.500064,0.3117 -1.610665,1.2383 z"
       style="fill:#ffffff;fill-rule:evenodd" />
    <path
       style="fill:#ffffff;fill-rule:evenodd"
       d="m 12.076915,1036.7268 c 0.357852,1.02 0.05209,1.6955 -0.675166,2.0161 -0.417033,-1.0177 -0.03079,-1.5381 0.675166,-2.0161 z"
       id="path4174-3"
       inkscape:connector-curvature="0"
       sodipodi:nodetypes="ccc" />
  </g>
</svg>
