<?xml version="1.0" encoding="UTF-8" standalone="no"?>
<!-- Created with Inkscape (http://www.inkscape.org/) -->

<svg
   xmlns:dc="http://purl.org/dc/elements/1.1/"
   xmlns:cc="http://creativecommons.org/ns#"
   xmlns:rdf="http://www.w3.org/1999/02/22-rdf-syntax-ns#"
   xmlns:svg="http://www.w3.org/2000/svg"
   xmlns="http://www.w3.org/2000/svg"
   xmlns:sodipodi="http://sodipodi.sourceforge.net/DTD/sodipodi-0.dtd"
   xmlns:inkscape="http://www.inkscape.org/namespaces/inkscape"
   width="16"
   height="16"
   viewBox="0 0 16 16"
   id="svg4243"
   version="1.1"
   inkscape:version="0.91 r"
   sodipodi:docname="subemis.svg">
  <defs
     id="defs4245" />
  <sodipodi:namedview
     id="base"
     pagecolor="#ffffff"
     bordercolor="#666666"
     borderopacity="1.0"
     inkscape:pageopacity="0.0"
     inkscape:pageshadow="2"
     inkscape:zoom="11.313708"
     inkscape:cx="4.3823529"
     inkscape:cy="6.1343689"
     inkscape:document-units="px"
     inkscape:current-layer="layer1"
     showgrid="false"
     units="px"
     inkscape:window-width="1366"
     inkscape:window-height="713"
     inkscape:window-x="0"
     inkscape:window-y="30"
     inkscape:window-maximized="1" />
  <metadata
     id="metadata4248">
    <rdf:RDF>
      <cc:Work
         rdf:about="">
        <dc:format>image/svg+xml</dc:format>
        <dc:type
           rdf:resource="http://purl.org/dc/dcmitype/StillImage" />
        <dc:title></dc:title>
      </cc:Work>
    </rdf:RDF>
  </metadata>
  <g
     inkscape:label="Capa 1"
     inkscape:groupmode="layer"
     id="layer1"
     transform="translate(0,-1036.3622)">
    <path
       style="color:#000000;clip-rule:nonzero;display:inline;overflow:visible;visibility:visible;opacity:1;isolation:auto;mix-blend-mode:normal;color-interpolation:sRGB;color-interpolation-filters:linearRGB;solid-color:#000000;solid-opacity:1;fill:#000000;fill-opacity:1;fill-rule:nonzero;stroke:none;stroke-width:14;stroke-linecap:butt;stroke-linejoin:miter;stroke-miterlimit:4;stroke-dasharray:none;stroke-dashoffset:0;stroke-opacity:1;color-rendering:auto;image-rendering:auto;shape-rendering:auto;text-rendering:auto;enable-background:accumulate"
       d="m 8.1821825,1036.3623 -1.825e-4,5.1216 4.981705,-5.1216 c -1.733484,0 -3.2482532,0 -4.9815225,0 z m -0.4260742,0.1072 -5.0318243,5.0144 5.0318243,0 c -0.00535,-1.6715 0.00539,-3.343 0,-5.0144 z m 5.6790707,0.1099 -4.883179,5.0627 4.883179,0 z m -10.753776,5.2788 5.0747053,5.0462 0,-5.0462 c -1.7081047,0 -3.3666006,0 -5.0747053,0 z m 5.5007795,-0.037 -4.197e-4,4.9845 5.1524742,0 c -1.751397,-1.6947 -3.4007258,-3.2898 -5.1520545,-4.9845 z m -5.6173615,5.182 -0.099567,5.0788 4.997746,-5.0788 z m 5.6173615,0.1768 0,4.9729 5.0707325,-4.9729 c -1.718346,0 -3.3524643,0 -5.0707325,0 z m -0.4260742,0.049 -4.9837858,5.1338 4.9837858,0 c -0.00535,-1.7113 0.00539,-3.4226 0,-5.1338 z"
       id="path4351"
       inkscape:connector-curvature="0"
       sodipodi:nodetypes="cccccccccccccccccccccccccccccccc" />
  </g>
</svg>
