<?xml version="1.0" encoding="UTF-8" standalone="no"?>
<!-- Created with Inkscape (http://www.inkscape.org/) -->

<svg
   xmlns:dc="http://purl.org/dc/elements/1.1/"
   xmlns:cc="http://creativecommons.org/ns#"
   xmlns:rdf="http://www.w3.org/1999/02/22-rdf-syntax-ns#"
   xmlns:svg="http://www.w3.org/2000/svg"
   xmlns="http://www.w3.org/2000/svg"
   xmlns:sodipodi="http://sodipodi.sourceforge.net/DTD/sodipodi-0.dtd"
   xmlns:inkscape="http://www.inkscape.org/namespaces/inkscape"
   width="16"
   height="16"
   viewBox="0 0 16 16"
   id="svg4169"
   version="1.1"
   inkscape:version="0.91 r"
   sodipodi:docname="taringa.svg">
  <defs
     id="defs4171" />
  <sodipodi:namedview
     id="base"
     pagecolor="#ffffff"
     bordercolor="#666666"
     borderopacity="1.0"
     inkscape:pageopacity="0.0"
     inkscape:pageshadow="2"
     inkscape:zoom="16"
     inkscape:cx="15.235294"
     inkscape:cy="8"
     inkscape:document-units="px"
     inkscape:current-layer="layer1"
     showgrid="false"
     inkscape:window-width="1366"
     inkscape:window-height="713"
     inkscape:window-x="0"
     inkscape:window-y="30"
     inkscape:window-maximized="1"
     units="px" />
  <metadata
     id="metadata4174">
    <rdf:RDF>
      <cc:Work
         rdf:about="">
        <dc:format>image/svg+xml</dc:format>
        <dc:type
           rdf:resource="http://purl.org/dc/dcmitype/StillImage" />
        <dc:title></dc:title>
      </cc:Work>
    </rdf:RDF>
  </metadata>
  <g
     inkscape:label="Capa 1"
     inkscape:groupmode="layer"
     id="layer1"
     transform="translate(0,-1036.3622)">
    <path
       style="fill:#000000;fill-opacity:1;fill-rule:nonzero;stroke:none"
       d="m 0.20850842,1037.4599 0,0 c -3.194e-4,1.1519 -3.194e-4,2.3051 0,3.4572 1.14639178,0 2.29316398,-0.01 3.43923638,0 3.129e-4,3.448 -3.129e-4,6.8971 0,10.3455 l 3.4591279,0 c 9.516e-4,-3.4484 -6.388e-4,-6.8985 0,-10.3475 1.1495725,-7e-4 2.2989567,0 3.4471923,0 0.002,-1.1521 0.0026,-2.3053 0.002,-3.4571 -3.4486919,0 -6.8991481,-3e-4 -10.34754658,0 z m 12.13380158,0.01 c -6.52e-4,3.161 -6.52e-4,6.3212 0,9.4823 l 3.449182,0 c -3.26e-4,-3.1611 3.26e-4,-6.3219 0,-9.4823 -1.148894,-5e-4 -2.300295,0 -3.449182,0 z m 0,10.3416 c -6.52e-4,1.1514 -6.52e-4,2.304 0,3.4551 l 3.449182,0 c 3.26e-4,-1.1511 3.26e-4,-2.3037 0,-3.4551 -1.148894,-7e-4 -2.300295,-7e-4 -3.449182,0 z"
       id="path14"
       inkscape:connector-curvature="0" />
  </g>
</svg>
