<?xml version="1.0" encoding="UTF-8" standalone="no"?>
<!-- Created with Inkscape (http://www.inkscape.org/) -->

<svg
   xmlns:dc="http://purl.org/dc/elements/1.1/"
   xmlns:cc="http://creativecommons.org/ns#"
   xmlns:rdf="http://www.w3.org/1999/02/22-rdf-syntax-ns#"
   xmlns:svg="http://www.w3.org/2000/svg"
   xmlns="http://www.w3.org/2000/svg"
   xmlns:sodipodi="http://sodipodi.sourceforge.net/DTD/sodipodi-0.dtd"
   xmlns:inkscape="http://www.inkscape.org/namespaces/inkscape"
   width="16"
   height="16"
   id="svg4257"
   version="1.1"
   inkscape:version="0.91 r"
   viewBox="0 0 16 16"
   sodipodi:docname="tmacro.svg">
  <defs
     id="defs4259" />
  <sodipodi:namedview
     id="base"
     pagecolor="#ffffff"
     bordercolor="#666666"
     borderopacity="1.0"
     inkscape:pageopacity="0.0"
     inkscape:pageshadow="2"
     inkscape:zoom="34"
     inkscape:cx="8"
     inkscape:cy="8"
     inkscape:current-layer="layer1"
     showgrid="true"
     inkscape:grid-bbox="true"
     inkscape:document-units="px"
     inkscape:window-width="1366"
     inkscape:window-height="713"
     inkscape:window-x="0"
     inkscape:window-y="30"
     inkscape:window-maximized="1"
     showborder="true" />
  <metadata
     id="metadata4262">
    <rdf:RDF>
      <cc:Work
         rdf:about="">
        <dc:format>image/svg+xml</dc:format>
        <dc:type
           rdf:resource="http://purl.org/dc/dcmitype/StillImage" />
        <dc:title></dc:title>
      </cc:Work>
    </rdf:RDF>
  </metadata>
  <g
     id="layer1"
     inkscape:label="Layer 1"
     inkscape:groupmode="layer">
    <path
       style="color:#000000;clip-rule:nonzero;display:inline;overflow:visible;visibility:visible;opacity:1;isolation:auto;mix-blend-mode:normal;color-interpolation:sRGB;color-interpolation-filters:linearRGB;solid-color:#000000;solid-opacity:1;fill:#000000;fill-opacity:1;fill-rule:nonzero;stroke:none;stroke-width:1px;stroke-linecap:butt;stroke-linejoin:miter;stroke-miterlimit:4;stroke-dasharray:none;stroke-dashoffset:0;stroke-opacity:1;color-rendering:auto;image-rendering:auto;shape-rendering:auto;text-rendering:auto;enable-background:accumulate"
       d="M 0.95703125 1.3144531 C 0.42688468 1.3144531 0 1.7413378 0 2.2714844 L 0 13.728516 C 0 14.258662 0.42688468 14.685547 0.95703125 14.685547 L 15.042969 14.685547 C 15.573115 14.685547 16 14.258662 16 13.728516 L 16 2.2714844 C 16 1.7413378 15.573115 1.3144531 15.042969 1.3144531 L 0.95703125 1.3144531 z M 7.9824219 2.5195312 C 12.880297 2.5034758 13.963757 7.3492012 13.859375 8.3046875 L 12.142578 8.3046875 C 12.142578 8.3046875 12.25401 4.434672 7.9824219 4.1777344 C 3.6787136 4.5952554 3.8398436 8.3046875 3.8398438 8.3046875 L 2.1367188 8.3203125 C 2.0644547 7.1721248 3.0363664 2.5677118 7.9824219 2.5195312 z M 8.0605469 4.578125 C 11.231371 4.5677278 11.932812 7.7036999 11.865234 8.3222656 L 10.117188 8.3222656 C 10.069006 7.7762725 9.7820916 6.2657333 7.9882812 6.2519531 C 6.3422674 6.2893939 5.8642968 7.8247215 5.9316406 8.3222656 L 4.2753906 8.3320312 C 4.2286064 7.5887055 4.8585439 4.6093167 8.0605469 4.578125 z M 7.9941406 6.6503906 A 1.7182708 1.710243 0 0 1 8.0136719 6.6503906 A 1.7182708 1.710243 0 0 1 9.7324219 8.3613281 A 1.7182708 1.710243 0 1 1 7.9941406 6.6503906 z M 3.2402344 10.419922 L 4.0058594 10.421875 L 4.4511719 12.232422 L 4.4804688 12.236328 L 4.9414062 10.419922 L 5.6777344 10.419922 L 5.8242188 12.759766 L 5.78125 12.759766 L 5.3671875 12.759766 L 5.2890625 10.792969 C 5.2834195 10.794969 5.2462906 10.785169 5.2441406 10.792969 L 4.6933594 12.783203 L 4.1601562 12.783203 L 3.6386719 10.804688 C 3.6343289 10.788187 3.6087994 10.798322 3.5996094 10.794922 L 3.5058594 12.472656 L 3.4824219 12.759766 L 3.0859375 12.759766 L 3.2402344 10.419922 z M 6.9296875 10.972656 C 7.3207887 10.943261 7.7460938 11.108684 7.7460938 11.457031 L 7.7460938 12.779297 L 7.3261719 12.804688 L 6.796875 12.804688 C 6.416961 12.804687 6.1113281 12.634617 6.1113281 12.251953 C 6.1113281 11.811826 6.5316148 11.701172 6.9726562 11.701172 L 7.2597656 11.701172 L 7.2597656 11.611328 C 7.2597656 11.357047 7.0813178 11.272006 6.8164062 11.291016 L 6.2441406 11.369141 L 6.2441406 11.037109 L 6.5625 10.996094 L 6.9296875 10.972656 z M 8.8945312 10.972656 C 9.1371013 10.971396 9.3443926 10.981615 9.4902344 11.015625 C 9.5315894 11.080814 9.5121046 11.244333 9.5117188 11.349609 L 9.4238281 11.324219 C 9.0089636 11.324219 8.5195312 11.315744 8.5195312 11.722656 L 8.5195312 12.054688 C 8.5195312 12.307088 8.8162791 12.451172 9.09375 12.451172 L 9.3144531 12.457031 L 9.5117188 12.429688 L 9.5136719 12.761719 L 9.1601562 12.804688 L 8.9160156 12.804688 C 8.4470722 12.804687 8.0117188 12.466134 8.0117188 12.009766 L 8.0117188 11.744141 C 8.0117188 11.316018 8.4658233 10.972656 8.8945312 10.972656 z M 11.986328 10.972656 C 12.494173 10.972656 12.914062 11.277593 12.914062 11.767578 L 12.914062 11.964844 C 12.914064 12.407688 12.520691 12.804688 12.095703 12.804688 L 11.919922 12.804688 C 11.391912 12.804688 11.037109 12.427853 11.037109 11.898438 C 11.037109 11.311284 11.394849 10.972656 11.986328 10.972656 z M 10.837891 10.994141 L 10.970703 10.994141 L 10.970703 11.390625 L 10.771484 11.390625 C 10.590163 11.390625 10.448724 11.439173 10.330078 11.501953 L 10.330078 12.759766 L 9.8652344 12.759766 L 9.8652344 11.015625 L 10.263672 11.015625 L 10.263672 11.173828 L 10.308594 11.148438 C 10.46025 11.068191 10.605175 10.994141 10.837891 10.994141 z M 11.941406 11.302734 C 11.635252 11.302734 11.544922 11.546696 11.544922 11.855469 L 11.544922 11.988281 C 11.544922 12.288793 11.661988 12.472656 11.962891 12.472656 L 12.007812 12.472656 C 12.355268 12.472656 12.427734 12.217629 12.427734 11.876953 L 12.427734 11.855469 C 12.427734 11.575 12.306658 11.302734 12.029297 11.302734 L 11.941406 11.302734 z M 6.8847656 12.009766 C 6.7412659 12.009766 6.6191406 12.099298 6.6191406 12.230469 C 6.6191406 12.405664 6.6863852 12.496094 6.8632812 12.496094 L 7.1054688 12.496094 C 7.1816079 12.496094 7.1906856 12.478356 7.2597656 12.472656 L 7.2597656 12.009766 L 6.8847656 12.009766 z "
       id="rect4838" />
  </g>
</svg>
