<?xml version="1.0" encoding="UTF-8" standalone="no"?>
<!-- Created with Inkscape (http://www.inkscape.org/) -->

<svg
   xmlns:dc="http://purl.org/dc/elements/1.1/"
   xmlns:cc="http://creativecommons.org/ns#"
   xmlns:rdf="http://www.w3.org/1999/02/22-rdf-syntax-ns#"
   xmlns:svg="http://www.w3.org/2000/svg"
   xmlns="http://www.w3.org/2000/svg"
   xmlns:sodipodi="http://sodipodi.sourceforge.net/DTD/sodipodi-0.dtd"
   xmlns:inkscape="http://www.inkscape.org/namespaces/inkscape"
   width="16"
   height="16"
   id="svg4600"
   version="1.1"
   inkscape:version="0.91 r"
   viewBox="0 0 16 16"
   sodipodi:docname="tnaranja.svg">
  <defs
     id="defs4602">
    <clipPath
       clipPathUnits="userSpaceOnUse"
       id="clipPath426">
      <path
         d="m 519.048,187.43 18.027,0 0,-16.465 -18.027,0 0,16.465 z"
         id="path428"
         inkscape:connector-curvature="0" />
    </clipPath>
    <radialGradient
       fx="0"
       fy="0"
       cx="0"
       cy="0"
       r="1"
       gradientUnits="userSpaceOnUse"
       gradientTransform="matrix(8.6369944,0.1814132,0.1814132,-8.6369944,528.08105,179.16406)"
       spreadMethod="pad"
       id="radialGradient434">
      <stop
         style="stop-opacity:1;stop-color:#707e86"
         offset="0"
         id="stop436" />
      <stop
         style="stop-opacity:1;stop-color:#707e86"
         offset="0.582418"
         id="stop438" />
      <stop
         style="stop-opacity:1;stop-color:#707e86"
         offset="0.81602453"
         id="stop440" />
      <stop
         style="stop-opacity:1;stop-color:#ffffff"
         offset="1"
         id="stop442" />
    </radialGradient>
  </defs>
  <sodipodi:namedview
     id="base"
     pagecolor="#ffffff"
     bordercolor="#666666"
     borderopacity="1.0"
     inkscape:pageopacity="0.0"
     inkscape:pageshadow="2"
     inkscape:zoom="24.041631"
     inkscape:cx="3.653337"
     inkscape:cy="8"
     inkscape:current-layer="layer1"
     showgrid="true"
     inkscape:grid-bbox="true"
     inkscape:document-units="px"
     inkscape:showpageshadow="false"
     showborder="true"
     inkscape:window-width="1366"
     inkscape:window-height="713"
     inkscape:window-x="0"
     inkscape:window-y="30"
     inkscape:window-maximized="1" />
  <metadata
     id="metadata4605">
    <rdf:RDF>
      <cc:Work
         rdf:about="">
        <dc:format>image/svg+xml</dc:format>
        <dc:type
           rdf:resource="http://purl.org/dc/dcmitype/StillImage" />
        <dc:title></dc:title>
      </cc:Work>
    </rdf:RDF>
  </metadata>
  <g
     id="layer1"
     inkscape:label="Layer 1"
     inkscape:groupmode="layer">
    <path
       style="fill:#000000;fill-opacity:1;fill-rule:nonzero;stroke:none"
       d="M 14.150391 0 C 13.93934 0.0011559717 13.700752 0.028231634 13.429688 0.087890625 C 10.785369 0.6694843 1.7324219 2.5292969 1.7324219 2.5292969 C 1.7324219 2.5292969 0.27539062 2.7266364 0.27539062 3.8496094 L 0.27539062 12.185547 C 0.27539062 12.185547 0.16805584 13.197101 1.7324219 13.505859 C 3.296788 13.814786 14.068359 15.976562 14.068359 15.976562 C 14.068359 15.976562 15.726562 16.308713 15.726562 14.490234 L 15.726562 1.2382812 C 15.726562 1.2382812 15.627747 -0.0080918016 14.150391 0 z M 1.2675781 8.40625 L 2.1289062 8.40625 L 3.2929688 10.605469 L 3.2871094 8.40625 L 3.9023438 8.40625 L 3.9023438 11.421875 L 3.0917969 11.421875 L 1.9394531 9.1679688 L 1.9296875 9.1679688 L 1.9296875 11.421875 L 1.5820312 11.433594 L 1.2675781 8.40625 z M 5.0136719 9.1464844 C 5.6920745 9.1464844 5.9726562 9.4275913 5.9726562 10.083984 L 5.9726562 10.369141 C 5.9726563 10.593945 5.9782219 10.761683 5.9824219 10.925781 C 5.9869269 11.094179 5.9946065 11.249382 6.0078125 11.421875 L 5.8222656 11.421875 C 5.5433089 11.421875 5.4774662 11.159254 5.4726562 11.089844 L 5.4628906 11.089844 C 5.3288889 11.336248 5.0406382 11.474609 4.7773438 11.474609 C 4.5826371 11.474609 4.3888911 11.416791 4.2441406 11.306641 L 4.109375 10.408203 C 4.1766318 10.306652 4.2702922 10.231174 4.3789062 10.177734 C 4.5996148 10.069939 4.885054 10.048828 5.1269531 10.048828 L 5.4453125 10.048828 C 5.4453125 9.6902274 5.2864077 9.5683594 4.9453125 9.5683594 C 4.6991139 9.5683594 4.4520056 9.6636457 4.2578125 9.8105469 L 4.2402344 9.3144531 C 4.4652426 9.2107529 4.767678 9.1464844 5.0136719 9.1464844 z M 7.3359375 9.1464844 C 7.3923435 9.1464844 7.4529668 9.1467625 7.5136719 9.1640625 L 7.5136719 9.7460938 C 7.4616679 9.7157927 7.3575042 9.6992186 7.2539062 9.6992188 C 6.7825971 9.6992188 6.7832031 10.285666 6.7832031 10.605469 L 6.7832031 11.421875 L 6.203125 11.421875 L 6.203125 9.1972656 L 6.8105469 9.2109375 L 6.8632812 9.5019531 C 6.8632812 9.5019531 6.9909523 9.1464844 7.3359375 9.1464844 z M 8.4824219 9.1464844 C 9.1606198 9.1464844 9.4414062 9.4275921 9.4414062 10.083984 L 9.4414062 10.369141 C 9.4414062 10.593842 9.4454287 10.761785 9.4492188 10.925781 C 9.4538287 11.094282 9.4635615 11.24928 9.4765625 11.421875 L 9.3066406 11.421875 C 9.040787 11.421875 8.9437527 11.159251 8.9394531 11.089844 L 8.9316406 11.089844 C 8.7974342 11.336145 8.5076397 11.474609 8.2441406 11.474609 C 7.8512465 11.474609 7.4667969 11.236003 7.4667969 10.8125 C 7.4667969 10.480209 7.6271524 10.285837 7.8476562 10.177734 C 8.0679554 10.069939 8.3539064 10.048828 8.5957031 10.048828 L 8.9140625 10.048828 C 8.9140625 9.6902282 8.75526 9.5683594 8.4140625 9.5683594 C 8.1679662 9.5683594 7.9205527 9.6635444 7.7265625 9.8105469 L 7.7089844 9.3144531 C 7.9334807 9.2107528 8.2360186 9.1464844 8.4824219 9.1464844 z M 11.037109 9.1464844 C 11.564005 9.1464844 11.792969 9.5182281 11.792969 10.019531 L 11.792969 11.421875 L 11.214844 11.421875 L 11.214844 10.234375 C 11.214844 9.9619694 11.211442 9.5957031 10.839844 9.5957031 C 10.420846 9.5957031 10.330078 10.048783 10.330078 10.333984 L 10.335938 11.416016 L 10.052734 11.419922 L 9.53125 9.1972656 L 10.298828 9.1972656 L 10.298828 9.5 L 10.306641 9.5 C 10.488654 9.2451 10.734607 9.1464844 11.037109 9.1464844 z M 13.90625 9.1464844 C 14.584243 9.1464844 14.865234 9.4275913 14.865234 10.083984 L 14.865234 10.369141 C 14.865234 10.593945 14.8706 10.761683 14.875 10.925781 C 14.87919 11.094179 14.887591 11.249382 14.900391 11.421875 L 14.730469 11.421875 C 14.424585 11.329743 14.369534 11.159254 14.365234 11.089844 L 14.355469 11.089844 C 14.221877 11.336248 13.93157 11.474609 13.667969 11.474609 C 13.567032 11.474609 13.46857 11.458244 13.375 11.427734 L 13.029297 10.373047 C 13.094097 10.289821 13.176074 10.224514 13.271484 10.177734 C 13.491886 10.069939 13.777529 10.048828 14.019531 10.048828 L 14.337891 10.048828 C 14.337891 9.6902274 14.178986 9.5683594 13.837891 9.5683594 C 13.59159 9.5683594 13.344995 9.6636467 13.150391 9.8105469 L 13.132812 9.3144531 C 13.357616 9.2107529 13.660154 9.1464844 13.90625 9.1464844 z M 12.144531 9.1777344 L 12.675781 9.1777344 L 12.724609 9.2402344 L 12.724609 11.574219 C 12.724609 11.890131 12.635533 12.371094 12.054688 12.371094 C 11.959277 12.371094 11.841182 12.357737 11.767578 12.335938 L 11.789062 12.185547 C 12.100983 12.168147 12.144531 12.108443 12.144531 11.761719 L 12.144531 9.1777344 z M 5.1953125 10.394531 C 4.9359082 10.394531 4.5527344 10.437997 4.5527344 10.779297 C 4.5527344 10.969397 4.7128284 11.050781 4.9199219 11.050781 C 5.0972258 11.050781 5.2337238 10.972563 5.3242188 10.851562 C 5.4193203 10.726264 5.4453125 10.56733 5.4453125 10.394531 L 5.1953125 10.394531 z M 8.6640625 10.394531 C 8.404863 10.394531 8.0195312 10.437994 8.0195312 10.779297 C 8.0195312 10.969294 8.1792157 11.050781 8.3867188 11.050781 C 8.5636131 11.050781 8.7024739 10.972461 8.7929688 10.851562 C 8.8883767 10.726264 8.9140625 10.567229 8.9140625 10.394531 L 8.6640625 10.394531 z M 14.087891 10.394531 C 13.828282 10.394531 13.443359 10.437997 13.443359 10.779297 C 13.443359 10.969397 13.603249 11.050781 13.810547 11.050781 C 13.987441 11.050781 14.125997 10.972563 14.216797 10.851562 C 14.312001 10.726264 14.337891 10.56733 14.337891 10.394531 L 14.087891 10.394531 z "
       id="path380" />
  </g>
</svg>
