<?xml version="1.0" encoding="UTF-8" standalone="no"?><svg xmlns="http://www.w3.org/2000/svg" xmlns:xlink="http://www.w3.org/1999/xlink"><symbol viewBox="0 0 16 16" id="clubcdn"><g transform="translate(0 -1036.362)" fill-rule="evenodd"><path d="M8 1036.626c-3.33 0-6.025 1.97-6.025 4.404v7.008c3.184 1.38 6.025 4.06 6.025 4.06s2.84-2.68 6.025-4.06v-7.008c0-2.434-2.694-4.404-6.025-4.404zm0 .582c.756 0 1.487.108 2.174.32a5.889 5.889 0 0 1 1.744.858c.983.718 1.525 1.658 1.525 2.644v6.631c-1.261.585-2.599 1.412-3.978 2.461-.636.484-1.141.91-1.465 1.193-.324-.283-.829-.71-1.465-1.193-1.38-1.049-2.717-1.876-3.978-2.461v-6.63c0-.987.542-1.927 1.525-2.645a5.889 5.889 0 0 1 1.744-.858 7.354 7.354 0 0 1 2.174-.32z" fill="#000200"/><path style="line-height:normal;text-indent:0;text-align:start;text-decoration-line:none;text-decoration-style:solid;text-decoration-color:#000;text-transform:none;block-progression:tb;isolation:auto;mix-blend-mode:normal" d="M8 1037.66c-1.54 0-2.938.41-3.963 1.088-1.025.677-1.685 1.636-1.685 2.713 0 1.077.66 2.038 1.685 2.715s2.423 1.088 3.963 1.088 2.938-.411 3.963-1.088 1.685-1.638 1.685-2.715-.66-2.036-1.685-2.713S9.54 1037.66 8 1037.66zm0 .414c1.466 0 2.79.394 3.734 1.018.945.624 1.502 1.46 1.502 2.369 0 .908-.557 1.747-1.502 2.371-.944.624-2.268 1.018-3.734 1.018-1.466 0-2.79-.394-3.734-1.018-.945-.624-1.502-1.463-1.502-2.371 0-.908.557-1.745 1.502-2.37.944-.623 2.268-1.017 3.734-1.017z" color="#000" font-weight="400" font-family="sans-serif" white-space="normal" overflow="visible"/><path d="M6.762 1039.339v.01H5.217a.799.799 0 0 0-.535.173h-.004a.693.693 0 0 0-.225.426l-.459 2.568c-.055.319-.035.556.06.749h.003c.104.195.267.304.459.304H6.08l.024-.12.195-.983.037-.182H6.15l-.578.012c-.045 0-.064-.012-.1-.051a.132.132 0 0 1-.029-.078l.295-1.414c.017-.08.123-.096.21-.096h.72l.023-.119.217-1.02.037-.18h-.183zM10.74 1039.335l-.967.012-.287 1.474v.012l-.232 1.22-.307 1.573h.955l.149-.758.154.748 1.004.01.287-1.467v-.01l.252-1.297v-.013l.287-1.504h-.955l-.178.805-.162-.805zM7.293 1039.306l-.75 4.312h1.498c.327 0 .602-.291.656-.603l.532-3.067c.056-.324-.134-.642-.479-.642H7.293zm.613 1.154h.178c.096 0 .16.088.14.195l-.023.127-.236 1.36-.026.14a.25.25 0 0 1-.074.139.202.202 0 0 1-.135.058H7.56l.056-.338.237-1.359.054-.322zM7.354 1047.535l-.851.19-.263-.835-.262.835-.851-.19.592.642-.592.642.85-.19.263.834.263-.835.851.191-.593-.642.593-.642zM5.121 1045.114l-.851.191-.263-.835-.262.835-.851-.19.592.642-.592.642.85-.19.263.834.263-.835.851.191-.593-.642.593-.643zM13.106 1045.114l-.851.191-.262-.835-.263.835-.851-.19.593.642-.593.642.851-.19.263.834.262-.835.851.191-.592-.642.592-.643zM10.77 1047.535l-.851.19-.263-.835-.262.835-.851-.19.592.642-.592.642.85-.19.263.834.263-.835.851.191-.593-.642.593-.642z"/></g></symbol><symbol viewBox="0 0 16 16" id="clubgaf"><g transform="translate(0 -1036.362)" color="#000" font-weight="400" font-family="sans-serif" white-space="normal"><path style="line-height:normal;text-indent:0;text-align:start;text-decoration-line:none;text-decoration-style:solid;text-decoration-color:#000;text-transform:none;block-progression:tb;isolation:auto;mix-blend-mode:normal" d="M3.795 1036.362l-.08.112-2.48 3.433.097.1c1.113 1.133 1.235 1.863 1.336 2.88.106 1.063-.307 2.184-.047 3.364.84 3.809 4.07 5.371 5.272 6.064l.084.047.082-.047c1.313-.758 4.48-2.257 5.32-6.064.26-1.18-.15-2.3-.045-3.363.101-1.018.221-1.748 1.334-2.881l.098-.1-2.56-3.545-.124.059c-1.226.576-2.082 1.324-4.078 1.293h-.006c-1.997.03-2.853-.717-4.08-1.293l-.123-.059zm.105.418c1.127.55 2.093 1.295 4.104 1.264 1.626.024 2.569-.458 3.467-.936l-2.5 2.297a3.878 3.878 0 0 0-5.01 3.707c.002.275.032.548.092.817l-1.157 1.064c.05-.693.173-1.402.1-2.139-.099-.993-.303-1.849-1.346-2.96l2.25-3.114zm9.79 3.95c-.477.737-.612 1.395-.684 2.124-.116 1.164.285 2.266.05 3.327-.794 3.6-3.703 5.008-5.08 5.794-.822-.47-2.35-1.265-3.544-2.736l2.552-2.348c.28.065.567.099.854.1a3.878 3.878 0 0 0 3.877-3.879 3.878 3.878 0 0 0-.041-.53l2.015-1.853z" overflow="visible"/><path style="line-height:normal;text-indent:0;text-align:start;text-decoration-line:none;text-decoration-style:solid;text-decoration-color:#000;text-transform:none;block-progression:tb;isolation:auto;mix-blend-mode:normal" d="M6.988 1039.584l.084 7.08.412-.011-.038-3.238h.888v3.268l.447-.01-.085-7.117c-.619-.28-1.246-.16-1.707.024zm-.261.01c-1.61.838-2.45 2.246-2.392 3.572.074 1.7 1.108 2.911 2.412 3.378v-3.45h-.872v.411h.46v2.29c-1.03-.58-1.5-1.643-1.588-2.63-.107-1.2.507-2.361 1.998-3.136zm2.262.107v6.862l.412-.2v-2.945h.642v-.412h-.642v-2.662c.188.114.387.223.612.481.314.362.596.8.71 1.092l.384-.152c-.146-.367-.443-.818-.784-1.21-.34-.392-.699-.73-1.088-.806zm-.655 3.307H7.44l-.037-3.11c.037-.113.814-.098.93 0z" overflow="visible" fill="#fff"/></g></symbol><symbol viewBox="0 0 16 16" id="correoarg"><path d="M8.063 1.564A6.435 6.435 0 0 0 1.626 8a6.438 6.438 0 1 0 11.875-3.447l-3.715 4.16a5.525 5.525 0 0 0-.705-.414 5.504 5.504 0 0 0-.767-.313 5.5 5.5 0 0 0-1.676-.257c-.915 0-1.779.223-2.538.617l5.388-6.03h1.601a6.414 6.414 0 0 0-3.026-.752zm3.026.753a6.46 6.46 0 0 1 2.413 2.236L15.5 2.317h-4.41z"/></symbol><symbol viewBox="0 0 16 16" id="dinmail"><g transform="matrix(6.4118 0 0 6.4118 -130.595 -6699.725)"><path d="M22.11 1046.23a.359.359 0 0 0-.075-.109.472.472 0 0 0-.107-.079c-.04-.021-.08-.04-.121-.057a4.277 4.277 0 0 0-.122-.048.847.847 0 0 1-.107-.047.274.274 0 0 1-.075-.058.11.11 0 0 1-.028-.076c0-.024.004-.045.013-.065a.118.118 0 0 1 .044-.049.238.238 0 0 1 .076-.031.485.485 0 0 1 .113-.011.791.791 0 0 1 .165.016 1.117 1.117 0 0 1 .153.043v-.243a1.458 1.458 0 0 0-.323-.044v-.145h-.153v.157a.573.573 0 0 0-.084.02.453.453 0 0 0-.16.09.337.337 0 0 0-.09.13.433.433 0 0 0 0 .312c.018.043.043.08.074.11.031.032.067.058.106.078.04.021.08.04.121.057l.12.046a.66.66 0 0 1 .107.049.27.27 0 0 1 .074.062.134.134 0 0 1 .029.087.163.163 0 0 1-.015.069.136.136 0 0 1-.046.054.249.249 0 0 1-.083.035.504.504 0 0 1-.123.013.807.807 0 0 1-.203-.024 1.484 1.484 0 0 1-.203-.059v.263a1.165 1.165 0 0 0 .35.055v.137h.152v-.142a.784.784 0 0 0 .12-.021.498.498 0 0 0 .175-.083.38.38 0 0 0 .114-.14.462.462 0 0 0 .012-.351"/><path d="M21.69 1044.983a1.129 1.129 0 0 0-.578.159l-.027.063.04.01a.907.907 0 0 1 .48-.137c.53 0 .96.458.96 1.023s-.43 1.024-.96 1.024-.96-.459-.96-1.024c0-.099.014-.195.038-.285l.115.135.224-.633-.098.063-.184.117-.085.054-.218.15v.084h.168a1.134 1.134 0 1 0 1.085-.803"/><path d="M20.52 1045.852s-.565 1.119.827 1.47c0 0-1.076-.37-.827-1.47"/></g></symbol><symbol viewBox="0 0 16 16" id="dinmail-dm"><g transform="translate(0 -1036.362)"><path d="M.1 1047.85l1.484-6.99c.928.01 1.856-.016 2.782.018.569.07 1.169.193 1.597.605.755.667.937 1.746.865 2.708-.092 1.232-.712 2.46-1.758 3.144-.684.428-1.506.539-2.298.53-.93.01-1.902 0-2.672-.015zM11.438 1047.849H9.975l-.271-5.84-1.192 5.84H7.12l1.566-6.99h2.2l.23 4.897 2.558-4.896H15.9l-1.571 6.989h-1.407l1.479-5.798-2.963 5.798z"/><path d="M3.832 1046.58c.724-.189 1.121-.97 1.367-1.645.202-.665.256-1.398.064-2.071-.15-.462-.584-.826-1.08-.834-.462-.037-.927-.017-1.39-.022-.332 1.572-.766 3.144-1.096 4.716.756.033 1.538.013 2.135-.143z" fill="#fff" fill-rule="evenodd"/></g></symbol><symbol viewBox="0 0 16 16" id="mate"><path style="isolation:auto;mix-blend-mode:normal" d="M12.538.1c-.988 1.073-1.817 2.658-2.423 3.987-.244.537-.418.973-.578 1.374H4.388s-1.764 3.958-1.603 5.798c.16 1.84 1.073 3.11 2.112 3.8.19.127.402.222.618.303a3.617 3.617 0 0 0-.558.538h5.355a2.95 2.95 0 0 0-.592-.542 3.03 3.03 0 0 0 .611-.298c1.039-.691 1.956-1.96 2.116-3.8.16-1.84-1.605-5.799-1.605-5.799h-.29c.132-.32.24-.6.415-.985.587-1.288 1.41-2.82 2.259-3.742L12.538.1z" color="#000" overflow="visible"/></symbol><symbol viewBox="0 0 16 16" id="mergus"><g transform="translate(0 -1036.362)" color="#000"><path style="isolation:auto;mix-blend-mode:normal" d="M8 1036.462l-5.138 3.95v7.9l5.138 3.95 5.138-3.95v-7.9L8 1036.462z" overflow="visible"/><path style="isolation:auto;mix-blend-mode:normal" d="M7.095 1038.5c.147.002.296.012.41.074.18.1.322.29.405.527.387.583.783.894 1.109.982.425.116.805-.108 1.152-.453-.099.217-.327.905-1.29.794-.686-.087-.749-.804-.962-1.296.076.235.096.513.036.793-.158.672-.788 1.751-.808 2.17-.01.227.096.558.106.589.403.407 1.349.222 1.934.534.065.035.128.075.189.117.129.08.253.178.372.294.414.358.81.736 1.473.665.382-.056.545-.329.613-.7.221.366.366.667.014 1.119.153.016.311-.012.515-.308-.004 1.12-.408 1.207-.766 1.414.301.065.33.176 0 .572-.224.27-.585.436-1.142.49-.153.097-.35.186-.25.335.03.17-.044.3-.172.405.049.678 0 1.434.435 2.038-.5.12-.938.291-1.308.567-.038-.185-.178-.318-.732-.244.187-.17.573-.217.02-.411.52.015 1.024-.025 1.493-.167.016-.58-.173-1.086-.354-1.569-.396.061-.624-.297-.903-.521h-.006a.316.316 0 0 1-.226.268c-.136.582-.076 1.078-.073 1.59-.527.072-1.065.086-1.669.262.209-.194.15-.315-.293-.352.19-.04.561-.045.371-.186.391.014.806.04 1.25-.076.073-.405.07-.827-.01-1.231-.343-.118-.434-.587-.452-.709-.938-.324-1.852-.68-1.946-1.869-.061-.764.256-1.554.167-2.318-.047-.394-.103-.789-.128-1.182l-.008-.101c-.549-.04-1.136-.161-1.57-.167-.17 0-.186-.023-.238-.091l-.002-.01c-.026 0-.05 0-.068-.01-.27-.153-.107-.506.012-.58a.718.718 0 0 1 .297-.115c.957-.07 1.123-.16 1.45-.263-.136-1.33.903-1.657 1.553-1.674z" overflow="visible" fill="#fff" fill-rule="evenodd"/><path style="isolation:auto;mix-blend-mode:normal" d="M5.766 1039.407c-.092.012-.18.122-.208.269-.031.168.029.32.134.34.106.02.217-.1.248-.268.032-.168-.028-.32-.134-.34l-.04-.001zM6.776 1039.56c-.117 0-.235.133-.27.319-.036.198.034.378.159.401.124.024.255-.118.292-.316.037-.198-.033-.378-.158-.401h-.023z" overflow="visible"/><path style="isolation:auto;mix-blend-mode:normal" d="M5.79 1039.611a.07.07 0 0 1 .018 0 .085.085 0 0 0-.022.045c-.007.034.005.063.027.067.02 0 .042-.02.048-.054.01.027.014.061.008.095-.014.074-.063.129-.11.12-.047-.01-.075-.078-.061-.152.012-.066.051-.114.093-.12zM6.771 1039.792h.015a.09.09 0 0 0-.02.042c-.007.04.007.076.032.081.025 0 .049-.024.056-.064a.218.218 0 0 1 .01.122c-.017.088-.076.153-.132.142-.055-.01-.087-.09-.07-.18.014-.078.06-.136.11-.143z" overflow="visible" fill="#fff" fill-rule="evenodd"/></g></symbol><symbol viewBox="0 0 16 16" id="mhands"><path d="M8 2.533C3.637 2.533.102 4.853.102 7.7L.1 8.002c0 3.02 3.092 5.465 7.9 5.465 4.837 0 7.9-2.445 7.9-5.465v-.303c0-2.846-3.537-5.166-7.9-5.166zm.002.305c4.195 0 7.596 2.176 7.596 4.86 0 2.683-3.401 4.859-7.596 4.859S.406 10.38.406 7.697c0-2.683 3.4-4.86 7.596-4.86z"/><path d="M7.418 10.985a.614.614 0 0 1-.618-.59c-.001-.03-.004-.104-.068-.104-.026 0-.049.015-.075.039a.434.434 0 0 1-.304.137.53.53 0 0 1-.2-.043c-.352-.143-.357-.385-.343-.483.004-.026.006-.053-.012-.074l-.022-.02h-.022c-.018 0-.037.008-.061.026a.515.515 0 0 1-.3.106.467.467 0 0 1-.167-.032c-.464-.181-.427-.62-.405-.751.003-.027-.003-.048-.02-.061l-.033-.027-.03.029a.483.483 0 1 1-.333-.829c.24 0 .445.18.475.42l.017.13.071-.11c.008-.012.203-.307.561-.306.068 0 .138.01.21.032.285.088.333.346.34.454.006.063.05.066.06.066.024 0 .042-.015.055-.029a.487.487 0 0 1 .355-.15.68.68 0 0 1 .266.06c.454.195.248.772.245.778-.039.095-.04.137-.004.162l.018.008h.013c.021 0 .047-.009.088-.023a.778.778 0 0 1 .243-.053c.341.004.62.282.62.62a.62.62 0 0 1-.62.618zm4.807-2.78c-.749-.653-2.48-2.16-2.95-2.511-.268-.202-.45-.308-.611-.356a1.017 1.017 0 0 0-.3-.047c-.12 0-.248.022-.382.064-.303.096-.605.336-.897.569l-.015.011c-.272.217-.553.44-.766.488a1.291 1.291 0 0 1-.284.032c-.238 0-.452-.07-.533-.172-.013-.017-.004-.044.027-.084l.004-.005.659-.71c.516-.517 1.004-1.004 2.127-1.03h.056c.699 0 1.397.313 1.475.349.656.32 1.332.482 2.012.482.708 0 1.44-.175 2.208-.529a5.952 5.952 0 0 0-.267-.211c-.675.292-1.319.44-1.94.44a4.28 4.28 0 0 1-1.882-.453c-.032-.015-.803-.379-1.606-.38l-.063.002c-.943.022-1.474.356-1.832.65-.347.008-.647.092-.914.167-.237.066-.443.123-.643.123-.083 0-.232-.008-.245-.008-.23-.007-1.392-.292-2.315-.642a5.98 5.98 0 0 0-.274.206c.965.396 2.14.702 2.51.726.103.007.213.018.323.018.245 0 .49-.068.727-.135.14-.039.294-.081.456-.113l-.13.13L5.29 6c-.052.053-.167.195-.091.37.03.07.09.138.176.196.16.107.446.18.71.18.102 0 .197-.01.285-.03.28-.063.575-.297.887-.545.248-.198.602-.449.872-.522a.992.992 0 0 1 .243-.034c.022 0 .043.001.063.004.179.023.351.084.66.315.55.413 2.983 2.541 3.006 2.562a.468.468 0 0 1 .146.358.39.39 0 0 1-.194.31.592.592 0 0 1-.32.1.527.527 0 0 1-.281-.081c-.01-.008-.843-.772-1.15-1.029-.048-.04-.096-.077-.144-.077a.08.08 0 0 0-.064.03c-.048.06.006.142.07.196l.974.979a.46.46 0 0 1 .134.264c.008.162-.07.298-.23.403a.627.627 0 0 1-.346.114.5.5 0 0 1-.278-.084l-.14-.137c-.255-.252-.518-.511-.711-.672-.047-.04-.098-.076-.146-.076a.083.083 0 0 0-.06.026c-.023.025-.038.069.017.142.022.03.049.055.049.055l.71.798c.006.007.147.174.016.34l-.025.032a.732.732 0 0 1-.066.064.568.568 0 0 1-.443.102c-.07-.013-.117-.032-.14-.06l-.009-.008c-.038-.04-.397-.406-.693-.653-.039-.033-.088-.074-.138-.074a.084.084 0 0 0-.064.028c-.059.064.03.16.066.196l.606.668a.14.14 0 0 1-.023.04c-.021.03-.095.104-.314.132a.616.616 0 0 1-.081.005c-.227 0-.468-.11-.593-.176a.905.905 0 0 0-.85-1.288c.016-.228-.016-.66-.459-.85a.951.951 0 0 0-.378-.083.77.77 0 0 0-.277.05.76.76 0 0 0-.443-.375.99.99 0 0 0-.324-.058A.855.855 0 0 0 5 8.31a.766.766 0 0 0-.595-.287.768.768 0 0 0-.54.223c-.188-.144-.937-.619-2.94-1.074-.097-.022-.32-.086-.456-.125a3.23 3.23 0 0 0-.05.328s.368.089.441.105c2.046.454 2.722.927 2.837 1.016a.768.768 0 0 0 .848 1.049c.063.311.267.547.578.668.09.035.183.053.273.053a.7.7 0 0 0 .175-.022c.057.146.186.328.475.445.102.041.203.062.302.062a.68.68 0 0 0 .234-.041.904.904 0 0 0 1.483.286c.146.081.454.228.765.228.04 0 .079-.002.116-.007.31-.039.453-.16.52-.254a.381.381 0 0 0 .031-.052.867.867 0 0 0 .246.038c.168 0 .33-.057.494-.176.161-.116.276-.283.292-.425v-.006a.82.82 0 0 0 .166.017.92.92 0 0 0 .509-.161c.315-.207.37-.477.364-.653a.829.829 0 0 0 .168.017c.163 0 .323-.05.476-.146a.696.696 0 0 0 .33-.54.728.728 0 0 0-.104-.434c.528-.227 1.734-.668 3.156-.988a3.188 3.188 0 0 0-.044-.327c-1.72.381-3.003.936-3.325 1.08"/></symbol><symbol viewBox="0 0 16 16" id="mlibre"><path d="M13.355 4.388c-.191.006-.37.108-.379.255v.774c-.094-.277-.4-.334-.592-.323-.727.042-.928.58-.928 1.191 0 .801.405 1.072 1.062 1.072.837 0 1.026-.68 1.026-.89v-2.05a.532.532 0 0 0-.189-.029z"/><path d="M12.48 5.58c.315 0 .51.318.51.678 0 .36-.18.634-.485.634-.304 0-.47-.236-.47-.667 0-.43.162-.646.446-.646z" fill="#fff"/><path d="M10.376 5.032c-.245 0-.46.109-.648.23-.175.113-.258.327-.284.53l.547.053c.005-.233.261-.314.465-.296.16.013.356.17.235.323-.115.143-.32.12-.484.144-.278.039-.6.104-.749.37-.17.306-.082.775.262.916.302.124.645.093.956.024.288-.062.552-.292.593-.598.037-.282.02-.56.018-.848-.003-.344-.128-.531-.277-.642a1.122 1.122 0 0 0-.634-.206z"/><path d="M10.684 6.269c.046.13.054.188.046.259-.041.349-.308.451-.492.438-.21-.015-.383-.221-.261-.411.18-.282.507-.23.707-.286z" fill="#fff"/><path d="M14.805 5.077c-.665 0-1.104.42-1.094 1.142.01.722.378 1.142 1.094 1.142.716 0 1.097-.415 1.095-1.142-.002-.726-.43-1.141-1.095-1.142z"/><path d="M14.805 5.55c.317 0 .509.314.509.67 0 .355-.175.67-.509.67-.333 0-.512-.268-.512-.67 0-.405.195-.67.512-.67z" fill="#fff"/><path d="M1.006 5.087c-.55 0-.906.405-.906.94v1.285h.515V6.015c0-.237.16-.4.391-.4.34 0 .374.281.374.4v1.297h.517V6.015c0-.237.163-.4.39-.4.34 0 .379.281.379.4v1.297h.515V6.028c0-.552-.332-.94-.894-.94a.819.819 0 0 0-.64.298.793.793 0 0 0-.64-.299zM8.195 5.098c-.811-.01-1.049.52-1.068 1.165-.024.764.467 1.091 1.06 1.1.663.011.946-.305 1.019-.85h-.604c.01.324-.276.383-.4.382-.364 0-.447-.393-.458-.646-.021-.46.26-.677.468-.677.306 0 .374.179.394.346h.605c-.053-.648-.476-.814-1.016-.82zM4.472 5.114c-.64 0-1.07.518-1.062 1.15.01.763.436 1.117 1.083 1.12.617 0 .989-.361 1.002-.637h-.6c-.07.161-.259.169-.39.173-.404.013-.534-.361-.53-.52h1.56c.05-.88-.424-1.286-1.063-1.286z"/><path d="M4.472 5.566c.36.01.479.338.482.455h-.965c.015-.33.326-.458.483-.455z" fill="#fff"/><path d="M7.036 5.082c-1.114-.05-1.213.64-1.244 1.097v1.117h.564V6.248c0-.58.304-.593.68-.592zM2.89 7.907h.195v3.91h-.742V8.386c0-.112.23-.478.548-.478M4.624 8.583h-.742v-.676h.742v.676zM4.624 11.818h-.742V8.923h.742v2.895zM12.16 8.633c-.896 0-1.499.727-1.488 1.612.013 1.07.611 1.567 1.518 1.573.865 0 1.387-.508 1.405-.895h-.84c-.099.227-.364.237-.548.243-.566.018-.749-.506-.744-.73h2.19c.07-1.232-.596-1.802-1.492-1.803z"/><path d="M12.16 9.267c.505.015.672.474.676.638h-1.353c.022-.463.457-.642.678-.638z" fill="#fff"/><path d="M10.309 8.713c-1.562-.07-1.7.897-1.745 1.537v1.568h.792v-1.47c0-.813.426-.832.953-.83zM5.606 8.045c.252.007.489.142.5.337v1.021c.125-.365.528-.441.782-.426.96.055 1.226.766 1.226 1.573 0 1.058-.535 1.416-1.402 1.416-1.107 0-1.356-.898-1.356-1.177V8.083a.703.703 0 0 1 .25-.038z"/><path d="M6.76 9.618c-.415 0-.673.421-.673.897 0 .475.239.836.64.836.403 0 .623-.312.623-.88 0-.568-.216-.853-.59-.853z" fill="#fff"/></symbol><symbol viewBox="0 0 16 16" id="mpago"><g transform="translate(0 -1036.362)"><path d="M13.378 1040.153c-.2 0-.395.1-.403.254v.774c-.095-.277-.4-.334-.592-.322-.727.042-.928.58-.928 1.19 0 .802.405 1.072 1.061 1.072.838 0 1.027-.68 1.027-.89v-2.05a.539.539 0 0 0-.165-.027z"/><path d="M12.48 1041.343c.315 0 .51.32.51.68 0 .36-.181.634-.486.634-.304 0-.47-.237-.47-.667 0-.43.163-.647.446-.647z" fill="#fff" fill-rule="evenodd"/><path d="M10.377 1040.73c-.26 0-.487.115-.687.244-.184.118-.273.345-.3.559l.58.058c.004-.246.275-.333.491-.314.169.015.377.18.248.341-.121.152-.338.128-.512.152-.295.041-.634.112-.792.393-.18.324-.087.818.277.967.32.131.683.1 1.012.027.304-.066.583-.309.626-.633.04-.298.021-.592.019-.897-.003-.363-.134-.561-.292-.679a1.185 1.185 0 0 0-.67-.218z"/><path d="M10.702 1042.039c.048.138.057.199.048.274-.043.369-.325.476-.52.462-.223-.016-.405-.233-.276-.434.19-.297.536-.243.748-.302z" fill="#fff" fill-rule="evenodd"/><path d="M14.805 1040.841c-.666 0-1.104.422-1.095 1.144.01.721.379 1.14 1.095 1.14s1.097-.414 1.095-1.14c-.002-.727-.43-1.143-1.095-1.144z"/><path d="M14.804 1041.315c.317 0 .508.314.508.669 0 .355-.175.671-.508.671s-.512-.269-.512-.671c0-.405.195-.67.512-.67z" fill="#fff" fill-rule="evenodd"/><path d="M1.006 1040.851c-.55 0-.906.405-.906.94v1.285h.515v-1.297c0-.237.16-.4.391-.4.34 0 .374.282.374.4v1.297h.517v-1.297c0-.237.163-.4.39-.4.34 0 .379.282.379.4v1.297h.515v-1.284c0-.552-.332-.94-.894-.94a.818.818 0 0 0-.64.298.793.793 0 0 0-.64-.299zM4.47 1040.862c-.64 0-1.07.52-1.063 1.151.01.763.436 1.117 1.082 1.121.617 0 .99-.362 1.002-.638h-.599c-.07.162-.26.168-.391.172-.404.013-.533-.36-.53-.52h1.561c.05-.879-.423-1.285-1.063-1.286z"/><path d="M4.47 1041.315c.359.01.477.337.48.454h-.965c.016-.33.327-.458.484-.454z" fill="#fff" fill-rule="evenodd"/><path d="M8.195 1040.862c-.812-.01-1.05.52-1.069 1.165-.023.764.467 1.092 1.06 1.101.663.01.947-.305 1.019-.85h-.603c.009.323-.277.382-.401.38-.364 0-.446-.392-.458-.645-.021-.459.261-.676.469-.677.306 0 .373.179.393.346h.606c-.054-.647-.477-.814-1.016-.82zM7.039 1040.862c-1.114-.05-1.213.64-1.244 1.096v1.118h.564v-1.048c0-.58.304-.593.68-.592zM6.312 1043.772h-.065a1.96 1.96 0 0 0-.974.302c-.261.169-.388.49-.426.793l.82.081c.008-.349.393-.472.7-.445.238.02.533.255.35.484-.171.215-.48.18-.726.215-.417.058-.899.159-1.122.557-.256.46-.123 1.16.392 1.371.454.186.969.14 1.435.039.431-.094.826-.437.887-.897.057-.421.03-.839.027-1.27-.004-.516-.19-.798-.415-.964a1.473 1.473 0 0 0-.883-.268z"/><path d="M6.766 1045.618c.022.158.021.294.002.411-.078.486-.461.629-.73.61-.315-.022-.574-.33-.392-.615.27-.421.818-.334 1.12-.407z" fill="#fff"/><path d="M12.937 1043.786c-.9 0-1.614.697-1.614 1.818s.818 1.65 1.616 1.637c.797-.012 1.668-.611 1.668-1.714s-.77-1.741-1.67-1.741z"/><path d="M12.959 1044.49c.541 0 .795.506.795 1.058s-.313.982-.8.993c-.487.011-.777-.432-.77-.964.006-.533.233-1.086.775-1.086z" fill="#fff"/><path d="M9.507 1043.773c-.282 0-.5.067-.89.197s-.672.8-.697 1.403c-.021.536.097 1.103.503 1.486.285.269.666.363 1.042.393.28.022.52-.152.69-.292.18.155-.086.842-.882.804a1.462 1.462 0 0 1-.726-.311c-.153-.137-.535.035-.423.362.302.874 1.674.974 2.365.385.473-.404.504-1.05.503-1.646-.002-.696.028-1.682-.204-2.086-.28-.487-.91-.695-1.28-.695z"/><path d="M9.625 1044.557c.352.01.525.47.533.791.012.495-.1 1.063-.603 1.166-.507.104-.875-.415-.799-.97.077-.554.181-.942.834-.987h.035z" fill="#fff"/><path d="M2.919 1043.83c-.147 0-.292.014-.501.044-.373.052-.995.466-1 1.06l-.027 2.547c-.003.246-.055.774.132.786.298.016.713-.05.716-.422l.008-1.02s.32.302.54.358c.568.144 1.2-.068 1.477-.579.33-.607.353-1.386.062-2.017-.218-.475-.7-.704-1.033-.736a3.83 3.83 0 0 0-.374-.021z"/><path d="M2.946 1044.54c.516 0 .727.561.717 1.003-.01.428-.183.949-.69.965-.539.017-.746-.564-.737-1.02.01-.434.203-.947.71-.947z" fill="#fff"/></g></symbol><symbol viewBox="0 0 16 16" id="oca"><path d="M.5 3.285l4.636 4.829-4.636 4.6h4.513l4.53-4.5-4.39-4.929H.5zm5.974 0l4.618 4.829-4.618 4.6h4.513l4.513-4.5-4.378-4.929H6.474z" fill-rule="evenodd"/></symbol><symbol viewBox="0 0 16 16" id="olx"><g transform="translate(0 -1036.362)"><path d="M15.703 1048.154l-2.265-3.393 1.735-2.555c.204-.3.158-.633-.101-.742-.26-.107-.668.027-.906.302l-1.544 1.773-1.067-1.6c-.201-.302-.643-.46-.98-.352a.596.596 0 0 0-.364.808l1.242 2.522-1.786 2.02a.943.943 0 0 0-.08 1.056l.445.707c.194.306.521.311.724.012l1.5-2.212 1.217 2.232a.767.767 0 0 0 .886.438l1.074-.293c.35-.096.471-.421.27-.723M3.215 1040.503c-1.666 0-3.016 1.59-3.016 3.553 0 1.963 1.35 3.554 3.016 3.554 1.665 0 3.015-1.59 3.015-3.554 0-1.963-1.35-3.553-3.015-3.553zm0 1.138c.775 0 1.404 1.08 1.404 2.415s-.63 2.418-1.404 2.418c-.775 0-1.402-1.083-1.402-2.418 0-1.334.627-2.415 1.402-2.415z"/><path d="M7.149 1039.534c-.418 0-.562.343-.536.696v4.558c.014.428.225.69.706.698H9.83c.398.012.614-.085.651-.412v-.79c-.004-.366-.376-.364-.63-.358H8.82c-.41 0-.504-.07-.52-.476l.004-3.237c.008-.378-.123-.679-.542-.682l-.613.001"/></g></symbol><symbol viewBox="0 0 16 16" id="patente"><path style="line-height:normal;text-indent:0;text-align:start;text-decoration-line:none;text-decoration-style:solid;text-decoration-color:#000;text-transform:none;block-progression:tb;isolation:auto;mix-blend-mode:normal" d="M.643 3.662C.29 3.662 0 4.15 0 4.74v6.52c0 .591.29 1.078.643 1.078h14.714c.353 0 .643-.487.643-1.078V4.74c0-.591-.29-1.078-.643-1.078H.643zM.574 6.211h14.951v5.049c0 .253-.116.447-.267.447H.844c-.151 0-.275-.194-.27-.447V6.21z" color="#000" font-weight="400" font-family="sans-serif" white-space="normal" overflow="visible"/><path style="line-height:125%;-inkscape-font-specification:'San Francisco Display Bold';text-align:center" d="M1.539 10.616h-.441l.689-3.46h.525l.686 3.46h-.473l-.151-.858h-.68l-.155.858zm.508-2.772h-.02L1.78 9.215h.505l-.24-1.371zM3.235 10.616v-3.46h.887q.284 0 .453.227.172.223.172.62 0 .214-.052.379-.05.16-.129.252t-.18.13v.03q.198.033.329.256.134.218.134.587 0 .46-.204.722-.204.257-.52.257h-.89zm.438-2.923v.887h.262q.377 0 .377-.45 0-.141-.038-.238-.038-.102-.105-.15-.064-.049-.152-.049h-.344zm0 1.386v.999h.295q.432 0 .432-.49 0-.164-.044-.276-.041-.116-.123-.174-.079-.059-.192-.059h-.368zM6.617 10.616h-.435V7.848h-.017l-.228.243q-.19.203-.248.276v-.678q.064-.073.254-.277.19-.208.248-.257h.426v3.46zM7.411 8.202h-.417v-.039q0-.203.044-.387.046-.19.131-.344.088-.155.228-.247.143-.097.324-.097.321 0 .52.276.201.276.201.698 0 .092-.012.179-.008.087-.02.15-.009.063-.04.15l-.045.131q-.011.04-.058.131-.044.092-.058.117-.012.024-.07.126l-.065.116-.452.838v.024h.858v.592H7.023v-.456l.75-1.337q.076-.131.114-.209.038-.077.08-.213.04-.136.04-.267 0-.203-.085-.33-.084-.13-.213-.13-.134 0-.216.14-.082.141-.082.345v.044zM9.253 9.113v-.557h.216q.143 0 .23-.13.088-.132.088-.335 0-.194-.088-.315-.087-.126-.224-.126-.144 0-.225.14-.082.136-.088.32H8.75q.01-.446.202-.732.196-.29.537-.29.315 0 .52.256.207.252.21.65.003.334-.117.547-.12.209-.257.243v.029q.059.005.117.044.061.033.12.101.058.068.102.165.047.092.073.228.03.136.03.295.002.46-.234.752-.237.286-.578.286-.187 0-.336-.083-.146-.087-.237-.232-.09-.146-.14-.33-.047-.184-.05-.397h.406q.012.208.108.339.1.13.257.13.17 0 .266-.14.1-.14.096-.363 0-.218-.096-.354-.096-.14-.269-.14h-.227zM11.59 8.697v.392q0 .485.114.732.117.242.324.242.19 0 .295-.184.105-.184.105-.465h.423v.073q0 .499-.225.848-.221.349-.604.349-.417 0-.651-.422-.23-.422-.23-1.178v-.387q0-.761.233-1.183.233-.426.648-.426.377 0 .602.353.227.354.227.878v.072h-.423q0-.286-.108-.484-.105-.2-.295-.2-.131 0-.23.108-.097.106-.152.334-.053.223-.053.548zM13.189 7.155h.78q.248 0 .429.126.18.122.289.354.11.233.163.543.053.305.053.698 0 .392-.053.703-.052.31-.16.547-.108.233-.292.364-.181.126-.43.126h-.78v-3.46zm.44.592v2.277h.275q.269 0 .406-.261.14-.262.14-.873 0-.203-.017-.368-.015-.165-.056-.31-.038-.15-.1-.247-.06-.102-.157-.16-.093-.058-.216-.058h-.274z" font-weight="700" font-family="San Francisco Display" letter-spacing="0" word-spacing="0" text-anchor="middle"/></symbol><symbol viewBox="0 0 16 16" id="patente-sq"><g transform="translate(0 -1036.362)"><path d="M.643 1036.362c-.353 0-.643.49-.643 1.087v13.827c0 .596.29 1.086.643 1.086h14.714c.353 0 .643-.49.643-1.086v-13.827c0-.596-.29-1.087-.643-1.087zm-.069 2.569h14.951v12.345c0 .255-.116.45-.267.45H.844c-.151 0-.275-.195-.27-.45z" style="line-height:normal;text-indent:0;text-align:start;text-decoration-line:none;text-decoration-style:solid;text-decoration-color:#000;text-transform:none;block-progression:tb;isolation:auto;mix-blend-mode:normal" color="#000" font-weight="400" font-family="sans-serif" white-space="normal" overflow="visible"/><g transform="matrix(1.43755 0 0 1.43755 2.454 -460.241)" font-weight="700" font-family="San Francisco Display" letter-spacing="0" word-spacing="0" text-anchor="middle"><path style="line-height:125%;-inkscape-font-specification:'San Francisco Display Bold';text-align:center" d="M1.539 1046.978h-.441l.689-3.46h.525l.686 3.46h-.473l-.151-.858h-.68l-.155.858zm.508-2.772h-.02l-.246 1.371h.505l-.24-1.371zM3.235 1046.978v-3.46h.887q.284 0 .453.227.172.223.172.62 0 .214-.052.379-.05.16-.129.252t-.18.13v.03q.198.034.329.256.134.218.134.587 0 .46-.204.722-.204.257-.52.257h-.89zm.438-2.922v.887h.262q.377 0 .377-.451 0-.14-.038-.238-.038-.101-.105-.15-.064-.048-.152-.048h-.344zm0 1.386v.998h.295q.432 0 .432-.49 0-.164-.044-.276-.041-.116-.123-.174-.079-.058-.192-.058h-.368zM6.617 1046.978h-.435v-2.767h-.017l-.228.242q-.19.203-.248.276v-.678q.064-.073.254-.276.19-.209.248-.257h.426v3.46z"/></g><g transform="matrix(1.43755 0 0 1.43755 -7.739 -454.091)" font-weight="700" font-family="San Francisco Display" letter-spacing="0" word-spacing="0" text-anchor="middle"><path style="line-height:125%;-inkscape-font-specification:'San Francisco Display Bold';text-align:center" d="M7.411 1044.564h-.417v-.039q0-.203.044-.387.046-.19.131-.344.088-.156.228-.248.143-.097.324-.097.321 0 .52.277.201.276.201.697 0 .092-.012.18-.008.087-.02.15-.009.063-.04.15l-.045.131q-.011.04-.058.131-.044.092-.058.116-.012.024-.07.126l-.065.117-.452.838v.024h.858v.591H7.023v-.455l.75-1.338q.076-.13.114-.208.038-.078.08-.214.04-.135.04-.266 0-.204-.085-.33-.084-.13-.213-.13-.134 0-.216.14-.082.14-.082.344v.044zM9.253 1045.476v-.558h.216q.143 0 .23-.13.088-.131.088-.335 0-.194-.088-.315-.087-.126-.224-.126-.144 0-.225.14-.082.136-.088.32H8.75q.01-.445.202-.731.196-.291.537-.291.315 0 .52.257.207.252.21.65.003.334-.117.547-.12.208-.257.242v.029q.059 0 .117.044.061.034.12.102.058.068.102.165.047.092.073.227.03.136.03.296.002.46-.234.751-.237.286-.578.286-.187 0-.336-.082-.146-.087-.237-.233-.09-.145-.14-.33-.047-.183-.05-.397h.406q.012.209.108.34.1.13.257.13.17 0 .266-.14.1-.14.096-.363 0-.219-.096-.354-.096-.14-.269-.14h-.227zM11.59 1045.059v.392q0 .485.114.732.117.242.324.242.19 0 .295-.184.105-.184.105-.465h.423v.073q0 .5-.225.848-.221.35-.604.35-.417 0-.651-.423-.23-.421-.23-1.177v-.388q0-.76.233-1.182.233-.427.648-.427.377 0 .602.354.227.354.227.877v.073h-.423q0-.286-.108-.485-.105-.198-.295-.198-.131 0-.23.106-.097.107-.152.335-.053.223-.053.547zM13.189 1043.518h.78q.248 0 .429.126.18.12.289.353.11.233.163.543.053.305.053.698 0 .393-.053.703-.052.31-.16.547-.108.233-.292.364-.181.126-.43.126h-.78v-3.46zm.44.59v2.279h.275q.269 0 .406-.262.14-.262.14-.872 0-.204-.017-.369-.015-.165-.056-.31-.038-.15-.1-.247-.06-.102-.157-.16-.093-.058-.216-.058h-.274z"/></g></g></symbol><symbol viewBox="0 0 16 16" id="pmc"><path style="isolation:auto;mix-blend-mode:normal" d="M3.699 2.949c-.614.12-.798.37-.868.625l-.185 1.254h3.338c.386-.04.737-.141.883-.626l.174-1.253H3.699zm5.6 0c-.606.08-.655.201-.799.809L7.29 13.05h2.056l.543-3.636h2.506c2.089-.244 3.245-1.84 3.342-3.139.138-1.846-.85-3.328-2.163-3.327H9.299zm1.189 2.092h2.319c.613.115.738.865.646 1.385-.09.502-.442 1.075-1.316 1.229h-2.02l.371-2.614zM1.301 7.06c-.614.12-.798.371-.867.627L.25 8.941h5.217c.386-.04.738-.143.884-.628l.173-1.253H1.301zm1.27 4.113c-.614.12-.798.37-.868.625l-.184 1.253h3.336c.387-.039.738-.14.884-.625l.174-1.253H2.57z" color="#000" overflow="visible"/></symbol><symbol viewBox="0 0 16 16" id="pokeball"><path style="line-height:normal;text-indent:0;text-align:start;text-decoration-line:none;text-decoration-style:solid;text-decoration-color:#000;text-transform:none;block-progression:tb;isolation:auto;mix-blend-mode:normal" d="M8 .5A7.506 7.506 0 0 0 .5 8c0 4.138 3.363 7.5 7.5 7.5 4.137 0 7.5-3.362 7.5-7.5S12.137.5 8 .5zm0 5.22A2.274 2.274 0 0 1 10.28 8 2.274 2.274 0 0 1 8 10.28 2.274 2.274 0 0 1 5.72 8 2.274 2.274 0 0 1 8 5.72zM1.29 8.24h3.6A3.127 3.127 0 0 0 8 11.12a3.127 3.127 0 0 0 3.11-2.88h3.6A6.708 6.708 0 0 1 8 14.714 6.708 6.708 0 0 1 1.29 8.24z" color="#000" font-weight="400" font-family="sans-serif" white-space="normal" overflow="visible"/></symbol><symbol viewBox="0 0 16 16" id="sintacc"><g transform="translate(0 -1036.362)"><path d="M12.158 1036.366l-.123.06a1.745 1.745 0 0 0-.59.452 1.851 1.851 0 0 0-.357.664 1.854 1.854 0 0 0-.072.717 1.783 1.783 0 0 0-.717-.584l-.125-.055-.07.12c-.044.121-.103.237-.155.357a7.212 7.212 0 0 0-2.428-.25l-.12-.227a1.645 1.645 0 0 0-.489-.504l-.113-.074-.09.106a1.637 1.637 0 0 0-.37.918c.002-.014 0-.029 0-.042a7.216 7.216 0 0 0-2.48 1.104c.01.01.018.016.028.022a1.44 1.44 0 0 0-.225-.117l-.129-.05-.062.124-.14.428c-.467.392-.88.841-1.233 1.334-1.05 1.465-1.672 3.337-1.246 5.36.866 4.108 4.13 6.381 8.27 6.024 4.091-.352 6.575-4.436 6.05-8.159-.273-1.922-1.177-3.413-2.416-4.485-.003 0-.009.01-.012.012.065-.083.127-.168.176-.258.12-.225.19-.469.205-.713l.008-.137-.135-.025a1.745 1.745 0 0 0-.941.1c.152-.184.271-.405.345-.651.077-.254.097-.508.069-.75a1.74 1.74 0 0 0-.24-.703z"/><path d="M8.553 1039.788c.303.031.6.089.888.17l-.002.03a1.853 1.853 0 0 0 .135.882c-.106-.065-.2-.096-.312-.15-.18.243-.214.568-.29.802-.129.01-.23.033-.312.045.292-.587.217-1.091.072-1.602L8.6 1040a1.688 1.688 0 0 0-.168.057l.039-.072c.025-.066.054-.132.082-.197zM6.107 1040.388h-.263c-.04.642.293 1.307.533 1.511h-.309c.032-.13-.191-.655-.326-.79-.073.03-.146.08-.21.115.118-.295.045-.615-.018-.85.134-.07.304-.17.377-.21 0 0 .163.161.216.224zM12.213 1041.753c-.001.02-.004.039-.006.059.247.317.46.665.633 1.037l-1.196.086c.151-.141.272-.302.364-.473.12-.223.19-.466.205-.709zM3.404 1042.39l.166.355a1.7 1.7 0 0 0 .438.461c.181.133.339.199.498.242l-1.615.115-.004.01v-.01h.004c.124-.412.297-.807.513-1.174zM9.105 1042.43c.082.197.193.372.327.522.042.048.084.091.127.133l-.705.05a1.765 1.765 0 0 0 .252-.705zM13.113 1046.63c-.17.567-.434 1.1-.775 1.576a5.314 5.314 0 0 1-3.297 2.121c.107-.276.185-.488.299-.78.232-.594.464-1.188.639-1.653l.457 1.658c.013.057.064.1.125.1.07 0 .125-.06.125-.13l-.016-1.93c-.001-.11.057-.438-.115-.442l-.59.035c-.016 0-.031-.001-.047 0-.092.025-.126.19-.154.27-.178.495-.464 1.218-.754 1.96-.114.292-.229.583-.336.86a40.185 40.185 0 0 1 .588-3.368zM8.895 1046.932a40.71 40.71 0 0 0-.547 3.115c-.01-.457-.03-.947-.055-1.435a47.185 47.185 0 0 0-.107-1.629zM7.832 1047.009a50.667 50.667 0 0 1 .164 3.226 18.826 18.826 0 0 0-1.07-3.162zM6.55 1047.1a18.246 18.246 0 0 1 1.125 3.322h-.01l-.825-1.62a.124.124 0 0 0-.04-.066.124.124 0 0 0-.046-.023H6.74l-.525-.21a.13.13 0 0 0-.164.07c-.188.412-.379.821-.569 1.231a5.318 5.318 0 0 1-2.322-2.457z" fill="#fff" fill-rule="evenodd"/><path d="M6.617 1049.147l.623 1.23a5.299 5.299 0 0 1-1.353-.38zM2.14 1044.815c.15-.104.331-.164.55-.172.22-.01.328.015.428.06.178.08.167.28.153.427l-.461.031c.061-.148-.076-.195-.204-.187-.255.016-.206.18-.206.18.012.045.047.09.138.112.42.097.635.144.69.35a.473.473 0 0 1-.171.51c-.161.134-.34.216-.624.236-.246.018-.397-.028-.49-.094-.18-.126-.132-.271-.133-.428l.458-.035c-.031.255.14.246.27.225.174-.028.215-.132.19-.214-.06-.197-.296-.18-.489-.233-.23-.062-.289-.206-.289-.364 0-.15.04-.3.19-.404zm1.2 1.444l.164-1.187.443-.032-.146 1.185-.46.033zm.187-1.365l.05-.289.442-.032-.049.289-.443.032zm.476 1.317l.11-.728c.021-.151.034-.297.037-.438l.443-.034-.01.125a.525.525 0 0 1 .396-.187c.232 0 .364.14.361.258-.007.321-.07.616-.116.915l-.443.032c.048-.255.091-.527.102-.78.005-.105-.05-.113-.13-.107-.066.01-.127.024-.143.076-.078.262-.119.54-.164.828-.142 0-.316.029-.443.04zm2.52-.181l.19-1.332-.495.036.047-.322 1.47-.106-.031.321-.513.037-.189 1.332-.479.035zm.644-.046l.037-.305.362-.026-.038.304zm.506-.036l.857-1.699.567-.04.418 1.606-.515.037-.075-.316-.638.046-.153.332-.46.033zm1.192-.744l-.12-.685-.305.716.425-.031zm.776.602l.038-.305.361-.026-.037.305zm.472-.622a1.625 1.625 0 0 1-.001-.198 1.113 1.113 0 0 1 .292-.704c.133-.15.346-.238.64-.266H11.273c.115.01.222.037.322.087.1.05.155.14.164.269a.543.543 0 0 1-.006.127l-.495.033.002-.024v-.021c-.005-.054-.023-.093-.056-.116a.249.249 0 0 0-.103-.044H10.995c-.013 0-.027 0-.04.01-.013 0-.027.01-.04.011a.417.417 0 0 0-.184.168c-.096.144-.087.286-.127.417-.046.144.043.293.061.419.038.058.104.083.197.076H10.913c.015 0 .03 0 .046-.01.016 0 .032-.012.05-.021a.383.383 0 0 0 .114-.098.233.233 0 0 0 .056-.141l.476-.037c.002 0 .004.01.005.012l.002.012a.325.325 0 0 1-.021.114.596.596 0 0 1-.084.158.875.875 0 0 1-.256.224.984.984 0 0 1-.449.125h-.038c-.252.018-.424-.021-.517-.119a.624.624 0 0 1-.179-.392 1.658 1.658 0 0 1-.005-.06zm1.554.476l.038-.305.36-.026-.037.305-.361.026zm.457-.62a1.622 1.622 0 0 1-.001-.198 1.113 1.113 0 0 1 .292-.704c.133-.15.346-.24.64-.266H13.284c.115.01.223.037.323.088.1.05.154.14.164.268a.59.59 0 0 1-.007.127l-.495.033.002-.024v-.02c-.004-.055-.023-.094-.055-.117a.249.249 0 0 0-.104-.044H13.006c-.013.001-.026 0-.04.01-.013 0-.026.01-.04.011a.417.417 0 0 0-.184.168.937.937 0 0 0-.127.417 1.179 1.179 0 0 0-.005.204.44.44 0 0 0 .067.215c.038.058.103.083.196.076H12.925c.015 0 .03 0 .045-.01.016 0 .032-.012.05-.021a.383.383 0 0 0 .115-.098.233.233 0 0 0 .055-.14l.477-.038.004.012.002.012a.328.328 0 0 1-.021.115.596.596 0 0 1-.084.157.876.876 0 0 1-.256.224.984.984 0 0 1-.449.125h-.038c-.252.018-.424-.02-.517-.118a.625.625 0 0 1-.179-.393 1.658 1.658 0 0 1-.005-.059zm1.664.467l.038-.304.361-.026-.037.304zM6.84 1037.331c-.53.942-.347 1.66.313 2.103.589-.929.3-1.509-.312-2.103zM8.34 1038.771c-1.008.35-1.107.997-.914 1.836.948-.403.993-1.014.914-1.836zM5.826 1039.135c.066 1.07.614 1.35 1.424 1.507-.18-1.017-.515-1.429-1.424-1.507zM3.686 1039.382c-.36.838-.064 1.19.558 1.468.394-.866.028-1.16-.558-1.468zM9.863 1039.56c-.39.895-.15 1.413.631 1.921.358-.99.216-1.439-.63-1.921zM4.77 1041.825c.639-.417.623-.844.379-1.49-.743.457-.634.856-.38 1.49zM10.77 1041.565c1.156.061 1.499-.502 1.61-1.238-.928-.145-1.5.312-1.61 1.238zM8.578 1040.268c-.953.369-1.137 1.158-.91 1.821.92-.381 1.068-.965.91-1.821zM6.086 1040.646c.063.986.57 1.311 1.385 1.465-.127-1.088-.56-1.343-1.385-1.465zM3.207 1041.042c.185.863.634.969 1.3.885-.215-.715-.518-1.006-1.3-.885zM9.395 1041.118c-.34.887-.157 1.443.63 1.922.447-1.097.19-1.462-.63-1.922zM5.639 1041.522c-.736.432-.715.942-.385 1.524.63-.425.693-.872.385-1.524zM4.992 1043.145c-.205-.98-.789-.91-1.286-.88.19.76.589.945 1.286.88zM8.766 1041.856c.202.595-.017.999-.319 1.309l-.57.04c-.102-.789.262-1.047.889-1.349zM11.047 1042.977l-.727.053c.22-.954.79-1.22 1.636-1.218-.057.606-.39.954-.91 1.165zM6.36 1042.141c.681.066 1.258.377 1.32 1.081l-.738.052c-.412-.295-.536-.62-.583-1.133zM6.232 1043.323l-.656.041c.011-.262.312-.659.543-.734.16.108.195.499.113.693zM10.272 1038.024c-.39.895-.15 1.414.63 1.922.36-.991.217-1.44-.63-1.922zM11.178 1040.03c1.157.06 1.5-.503 1.611-1.239-.929-.144-1.5.312-1.61 1.239zM12.077 1036.727c.358 1.02.052 1.695-.675 2.016-.417-1.018-.031-1.538.675-2.016z" fill="#fff" fill-rule="evenodd"/></g></symbol><symbol viewBox="0 0 16 16" id="subemis"><path style="isolation:auto;mix-blend-mode:normal" d="M8.182 0v5.122L13.164 0H8.182zm-.426.107L2.724 5.122h5.032c-.005-1.672.005-3.343 0-5.015zm5.68.11L8.551 5.28h4.883zM2.68 5.496l5.075 5.046V5.496H2.681zm5.501-.037v4.984h5.152L8.182 5.46zm-5.617 5.182l-.1 5.079 4.998-5.079zm5.617.177v4.973l5.07-4.973h-5.07zm-.426.049L2.772 16h4.984c-.005-1.712.005-3.423 0-5.134z" color="#000" overflow="visible"/></symbol><symbol viewBox="0 0 16 16" id="taringa"><path d="M.209 1.098v3.457c1.146 0 2.293-.01 3.439 0V14.9h3.459V4.553h3.447c.002-1.152.003-2.305.002-3.457H.21zm12.133.01v9.482h3.45V1.108h-3.45zm0 10.341v3.455h3.45V11.45h-3.45z"/></symbol><symbol viewBox="0 0 16 16" id="tmacro"><path style="isolation:auto;mix-blend-mode:normal" d="M.957 1.314A.955.955 0 0 0 0 2.271V13.73c0 .53.427.957.957.957h14.086c.53 0 .957-.427.957-.957V2.27a.955.955 0 0 0-.957-.957H.957zM7.982 2.52c4.898-.017 5.982 4.83 5.877 5.785h-1.716s.111-3.87-4.16-4.127C3.678 4.595 3.84 8.305 3.84 8.305l-1.703.015c-.073-1.148.9-5.752 5.845-5.8zm.079 2.058c3.17-.01 3.872 3.126 3.804 3.744h-1.748c-.048-.546-.335-2.056-2.129-2.07-1.646.037-2.124 1.573-2.056 2.07l-1.657.01c-.046-.743.584-3.723 3.786-3.754zM7.994 6.65a1.718 1.71 0 0 1 .02 0 1.718 1.71 0 0 1 1.718 1.711 1.718 1.71 0 1 1-1.738-1.71zM3.24 10.42l.766.002.445 1.81.03.004.46-1.816h.737l.146 2.34H5.367l-.078-1.967c-.006.002-.043-.008-.045 0l-.55 1.99H4.16l-.521-1.978c-.005-.017-.03-.007-.04-.01l-.093 1.678-.024.287h-.396l.154-2.34zm3.69.553c.39-.03.816.136.816.484v1.322l-.42.026h-.53c-.379 0-.685-.17-.685-.553 0-.44.42-.55.862-.55h.287v-.09c0-.255-.179-.34-.444-.321l-.572.078v-.332l.319-.04.367-.024zm1.965 0c.242-.002.45.009.595.043.042.065.022.228.022.334l-.088-.026c-.415 0-.904-.008-.904.399v.332c0 .252.296.396.574.396l.22.006.198-.027.002.332-.354.043h-.244c-.469 0-.904-.339-.904-.795v-.266c0-.428.454-.771.883-.771zm3.091 0c.508 0 .928.305.928.795v.197c0 .443-.393.84-.818.84h-.176c-.528 0-.883-.377-.883-.907 0-.587.358-.925.95-.925zm-1.148.021h.133v.397h-.2a.916.916 0 0 0-.44.111v1.258h-.466v-1.744h.399v.158l.045-.026c.151-.08.296-.154.529-.154zm1.103.309c-.306 0-.396.244-.396.552v.133c0 .3.117.485.418.485h.045c.347 0 .42-.255.42-.596v-.022c0-.28-.121-.552-.399-.552h-.088zm-5.056.707c-.144 0-.266.09-.266.22 0 .176.067.266.244.266h.242c.077 0 .086-.018.155-.023v-.463h-.375z" color="#000" overflow="visible"/></symbol><symbol viewBox="0 0 16 16" id="tnaranja"><path d="M14.15 0c-.21.001-.45.028-.72.088C10.785.669 1.732 2.529 1.732 2.529S.275 2.727.275 3.85v8.337s-.107 1.011 1.457 1.32c1.565.309 12.336 2.47 12.336 2.47s1.659.333 1.659-1.486V1.238S15.627-.008 14.15 0zM1.268 8.406h.86l1.165 2.2-.006-2.2h.615v3.016h-.81L1.939 9.168h-.01v2.254l-.347.012-.314-3.028zm3.746.74c.678 0 .959.282.959.938v.285c0 .225.005.393.01.557a9.7 9.7 0 0 0 .025.496h-.186c-.279 0-.345-.263-.35-.332h-.01c-.133.246-.421.385-.685.385a.89.89 0 0 1-.533-.168l-.135-.899a.673.673 0 0 1 .27-.23c.22-.108.506-.13.748-.13h.318c0-.358-.159-.48-.5-.48-.246 0-.493.096-.687.243l-.018-.497c.225-.103.528-.168.774-.168zm2.322 0c.056 0 .117 0 .178.018v.582a.593.593 0 0 0-.26-.047c-.471 0-.47.587-.47.906v.817h-.58V9.197l.607.014.052.291s.128-.356.473-.356zm1.146 0c.679 0 .96.282.96.938v.285c0 .225.003.393.007.557.005.168.015.323.028.496h-.17c-.266 0-.363-.263-.368-.332h-.007c-.135.246-.424.385-.688.385-.393 0-.777-.239-.777-.662 0-.333.16-.527.38-.635.221-.108.507-.13.749-.13h.318c0-.358-.159-.48-.5-.48-.246 0-.493.096-.687.243l-.018-.497a1.99 1.99 0 0 1 .773-.168zm2.555 0c.527 0 .756.372.756.874v1.402h-.578v-1.188c0-.272-.004-.638-.375-.638-.42 0-.51.453-.51.738l.006 1.082-.283.004-.522-2.223h.768V9.5h.008c.182-.255.428-.354.73-.354zm2.87 0c.677 0 .958.282.958.938v.285c0 .225.006.393.01.557.004.168.013.323.025.496h-.17c-.305-.092-.36-.263-.365-.332h-.01c-.133.246-.423.385-.687.385-.101 0-.2-.017-.293-.047l-.346-1.055a.687.687 0 0 1 .242-.195c.22-.108.507-.13.749-.13h.318c0-.358-.159-.48-.5-.48-.246 0-.493.096-.688.243l-.017-.497c.225-.103.527-.168.773-.168zm-1.762.032h.53l.05.062v2.334c0 .316-.09.797-.67.797a1.15 1.15 0 0 1-.287-.035l.021-.15c.312-.018.356-.078.356-.424V9.178zm-6.95 1.217c-.26 0-.642.043-.642.384 0 .19.16.272.367.272a.488.488 0 0 0 .404-.2c.095-.125.121-.284.121-.456h-.25zm3.47 0c-.26 0-.645.043-.645.384 0 .19.16.272.367.272a.492.492 0 0 0 .406-.2c.095-.125.121-.284.121-.456h-.25zm5.423 0c-.26 0-.645.043-.645.384 0 .19.16.272.368.272a.492.492 0 0 0 .406-.2c.095-.125.12-.284.12-.456h-.25z"/></symbol><symbol viewBox="0 0 16 16" id="tnativa"><path style="isolation:auto;mix-blend-mode:normal" d="M.957 1.314A.955.955 0 0 0 0 2.271V13.73c0 .53.427.957.957.957h14.086c.53 0 .957-.427.957-.957V2.27a.955.955 0 0 0-.957-.957H.957zm8.463.516a15.282 15.282 0 0 0-.889 2.414 14.294 14.294 0 0 0-.506 3.776 14.349 14.349 0 0 0 1.395 6.15 11.443 11.443 0 0 1-.889-1.635l-.127-.306a10.93 10.93 0 0 1-.564-1.797 11.142 11.142 0 0 1-.254-2.412c0-.872.085-1.685.254-2.432.12-.57.31-1.168.564-1.797l.127-.309c.29-.629.585-1.18.889-1.652zM7.006 3.318l.656 2.27a11.33 11.33 0 0 0-.275 2.432c0 .785.095 1.587.275 2.412l-.656 2.25v-2.397l-1.303 2.088.686-2.32-1.852 1.703 1.328-2.067-2.27 1.196 1.85-1.703-2.52.634 2.268-1.2H2.58l2.524-.596-2.524-.635 2.613.017-2.267-1.2 2.52.634-1.85-1.703 2.27 1.195-1.329-2.066L6.39 5.969l-.686-2.324 1.303 2.087V3.318z" color="#000" overflow="visible"/></symbol><symbol viewBox="0 0 16 16" id="yerba"><path style="isolation:auto;mix-blend-mode:normal" d="M2.951.1a.412.412 0 0 0-.414.41v2.076h10.926V.51a.412.412 0 0 0-.414-.41H2.95zm-.414 2.8v10.2h10.926V2.9H2.537zm7.318 1.81a.752.752 0 0 1 .282 0c.3.295.75.046 1.052.298.333.272.094.623.063.918.118.41-.075.776-.225 1.136-.025.332-.25.579-.466.807-.204.307-.145.763-.538.957-.434.122-.419.616-.822.791-.374.148-.54.569-.877.785-.924.774-2.184.914-3.345.903a30.343 30.343 0 0 1 2.498-2.979c.844-.906 1.77-1.733 2.675-2.576.247-.166-.008-.154-.142-.037-2.035 1.343-3.822 3.037-5.4 4.889.093-.848.204-1.698.43-2.522.061-.329.307-.573.41-.88.088-.289.279-.666.638-.604.315-.297.358-.878.842-.977.483.064.569-.546 1.006-.533.445.117.7-.372 1.128-.354.265.164.519.025.791-.021zm-7.318 8.704v2.076c0 .227.185.41.414.41H13.05c.23 0 .414-.183.414-.41v-2.076H2.537z" color="#000" overflow="visible"/></symbol></svg>