<?xml version="1.0" encoding="UTF-8" standalone="no"?><svg xmlns="http://www.w3.org/2000/svg" xmlns:xlink="http://www.w3.org/1999/xlink"><symbol viewBox="0 0 16 16" id="correoarg"><path d="M8.063 1.564A6.435 6.435 0 0 0 1.626 8a6.438 6.438 0 1 0 11.875-3.447l-3.715 4.16a5.525 5.525 0 0 0-.705-.414 5.504 5.504 0 0 0-.767-.313 5.5 5.5 0 0 0-1.676-.257c-.915 0-1.779.223-2.538.617l5.388-6.03h1.601a6.414 6.414 0 0 0-3.026-.752zm3.026.753a6.46 6.46 0 0 1 2.413 2.236L15.5 2.317h-4.41z"/></symbol><symbol viewBox="0 0 16 16" id="mergus"><path d="M8 .1L2.862 4.05v7.9L8 15.9l5.138-3.95v-7.9L8 .1zm-.905 2.038c.147.001.296.011.41.073.18.1.322.291.405.528.387.583.783.893 1.109.982.425.116.805-.108 1.152-.454-.099.218-.327.906-1.29.795-.686-.087-.749-.804-.962-1.297.076.236.096.514.036.794-.158.672-.788 1.751-.808 2.17-.01.227.096.557.106.588.403.407 1.349.223 1.934.534.065.035.128.075.189.117.129.081.253.178.372.295.414.358.81.735 1.473.665.382-.056.545-.329.613-.7.221.365.366.666.014 1.118.153.016.311-.012.515-.308-.004 1.12-.408 1.208-.766 1.414.301.065.33.177 0 .573-.224.27-.585.436-1.142.49-.153.096-.35.186-.25.335.03.17-.044.3-.172.405.049.678 0 1.434.435 2.038-.5.12-.938.291-1.308.567-.038-.185-.178-.318-.732-.244.187-.17.573-.217.02-.412.52.015 1.024-.025 1.493-.166.016-.58-.173-1.087-.354-1.569-.396.061-.624-.297-.903-.522h-.006a.316.316 0 0 1-.226.27c-.136.581-.076 1.077-.073 1.589-.527.072-1.065.086-1.669.262.209-.195.15-.315-.293-.353.19-.04.561-.045.371-.186.391.014.806.041 1.25-.076.073-.404.07-.826-.01-1.23-.343-.118-.434-.587-.452-.709-.938-.324-1.852-.681-1.946-1.869-.061-.764.256-1.554.167-2.319-.047-.393-.103-.788-.128-1.181l-.008-.102c-.549-.039-1.136-.16-1.57-.167-.17 0-.186-.023-.238-.09l-.002-.01c-.026 0-.05 0-.068-.01-.27-.153-.107-.506.012-.58a.718.718 0 0 1 .297-.115c.957-.07 1.123-.16 1.45-.263-.136-1.33.903-1.658 1.553-1.674zm-1.329.906c-.092.012-.18.123-.208.27-.031.168.029.32.134.34.106.02.217-.1.248-.269.032-.168-.028-.32-.134-.34h-.04zm1.01.154c-.117 0-.235.133-.27.319-.036.198.034.378.159.401.124.024.255-.118.292-.316.037-.199-.033-.378-.158-.402h-.023zm-.985.05a.07.07 0 0 1 .017 0 .085.085 0 0 0-.022.046c-.007.034.005.063.027.067.02 0 .042-.02.048-.054.01.027.014.06.008.095-.014.074-.063.128-.11.12-.047-.01-.075-.079-.061-.152.012-.066.051-.115.093-.12zm.98.182h.015a.09.09 0 0 0-.02.042c-.007.04.007.076.032.081.025 0 .049-.024.056-.064a.218.218 0 0 1 .01.122c-.017.088-.076.153-.132.142-.055-.01-.087-.09-.07-.181.014-.077.06-.135.11-.142z" style="isolation:auto;mix-blend-mode:normal" color="#000" overflow="visible"/></symbol><symbol viewBox="0 0 16 16" id="ml-hands"><path d="M8 3.688C3.638 3.688.1 5.617.1 8c0 2.381 3.538 4.313 7.9 4.313S15.9 10.38 15.9 8 12.362 3.687 8 3.687zm-.074.351c4.044 0 7.324 1.682 7.324 3.758 0 1.175-.934 2.01-2.4 2.787-.069.036-.131.052-.178.072-.104.046-.14-.018-.068-.066.56-.372 1.01-.8 1.359-1.192.582-.654.508-1.82.508-1.82l-.528.016c-.093.002-1.291.18-1.619.31-.245.027-1.061.323-1.441.5-.155.073-.2.067-.29-.047-.038-.05-.08-.1-.118-.15l-.606-.486-1.092-.903a2.245 2.245 0 0 0-.59-.28c-.35-.06-.886.11-.826.146.078-.092.862-.09.918 0 .784.573 1.562 1.164 2.278 1.941.12.129.08.299-.024.42-.101.117-.323.07-.53-.084-.107-.081-1.202-.854-1.202-.854.203.35.646.652.902.875.183.125.319.432.145.604-.137.135-.423.042-.551-.063-.242-.141-.453-.373-.736-.476 0 0 .405.4.513.494.108.094.156.302.102.396-.054.095-.183.143-.278.143-.258 0-.316-.202-.525-.324.07.161.257.25.203.418 0 .108-.448.184-.601.097-.173-.143.214-.642-.557-.863-.023-.592-.458-.615-.68-.615 0 0-.133.064-.18-.059-.096-.17-.388-.232-.585-.158-.175.065-.229.203-.336.203-.053 0-.063-.084-.076-.14-.192-.314-.53-.165-.668-.182-.14-.017-.886-.355-1.215-.459-.33-.104-1.474-.4-1.664-.469-.207-.075-.492-.162-.535-.062-.037.179-.268 1.668 1.722 3.066.181.132.217.223-.088.096-1.538-.69-2.51-1.702-2.51-2.832 0-2.075 3.279-3.758 7.323-3.758zm.369.291c-1.697-.056-3.465.258-5.004 1.037.648.404 1.475 1.023 2.254 1.078.17.012.648 0 .723.016.074.016.128.226.128.226s.153-.414.573-.638c.394-.275 1.518-.177 1.896.02.362.175 1.244.378 1.905.279.717.035 2.127-.795 2.109-.832-1.26-.702-2.887-1.13-4.584-1.186zM5.14 8.592c.164 0 .416.167.416.324s-.034.205-.198.205-.416-.167-.416-.324.034-.205.198-.205zm1.064.164a.322.322 0 0 1 .145.056c.059.045.099.11.119.184.184-.093.41-.099.547.002.194.145.221.438.046.674-.174.235-.48.34-.675.195a.548.548 0 0 1-.198-.312c-.13.06-.277.061-.378-.014a.443.443 0 0 1-.079-.594.523.523 0 0 1 .473-.191zm1.229.828c.059 0 .12.018.183.055.25.148.236.445.135.593-.101.149-.407.197-.586.075-.18-.123-.244-.333-.143-.48.076-.112.232-.246.41-.243z" fill-rule="evenodd"/></symbol><symbol viewBox="0 0 16 16" id="oca"><path d="M.5 3.285l4.636 4.829-4.636 4.6h4.513l4.53-4.5-4.39-4.929H.5zm5.974 0l4.618 4.829-4.618 4.6h4.513l4.513-4.5-4.378-4.929H6.474z" fill-rule="evenodd"/></symbol><symbol viewBox="0 0 16 16" id="taringa"><path d="M.209 1.098v3.457c1.146 0 2.293-.01 3.439 0V14.9h3.459V4.553h3.447c.002-1.152.003-2.305.002-3.457H.21zm12.133.01v9.482h3.45V1.108h-3.45zm0 10.341v3.455h3.45V11.45h-3.45z"/></symbol></svg>