<?xml version="1.0" encoding="UTF-8" standalone="no"?><svg xmlns="http://www.w3.org/2000/svg" xmlns:xlink="http://www.w3.org/1999/xlink"><symbol viewBox="0 0 16 16" id="correoarg"><path d="M8.063 1.564A6.435 6.435 0 0 0 1.626 8a6.438 6.438 0 1 0 11.875-3.447l-3.715 4.16a5.525 5.525 0 0 0-.705-.414 5.504 5.504 0 0 0-.767-.313 5.5 5.5 0 0 0-1.676-.257c-.915 0-1.779.223-2.538.617l5.388-6.03h1.601a6.414 6.414 0 0 0-3.026-.752zm3.026.753a6.46 6.46 0 0 1 2.413 2.236L15.5 2.317h-4.41z"/></symbol><symbol viewBox="0 0 16 16" id="dineromail"><g transform="matrix(6.4118 0 0 6.4118 -130.595 -6699.725)"><path d="M22.11 1046.23a.359.359 0 0 0-.075-.109.472.472 0 0 0-.107-.079c-.04-.021-.08-.04-.121-.057a4.277 4.277 0 0 0-.122-.048.847.847 0 0 1-.107-.047.274.274 0 0 1-.075-.058.11.11 0 0 1-.028-.076c0-.024.004-.045.013-.065a.118.118 0 0 1 .044-.049.238.238 0 0 1 .076-.031.485.485 0 0 1 .113-.011.791.791 0 0 1 .165.016 1.117 1.117 0 0 1 .153.043v-.243a1.458 1.458 0 0 0-.323-.044v-.145h-.153v.157a.573.573 0 0 0-.084.02.453.453 0 0 0-.16.09.337.337 0 0 0-.09.13.433.433 0 0 0 0 .312c.018.043.043.08.074.11.031.032.067.058.106.078.04.021.08.04.121.057l.12.046a.66.66 0 0 1 .107.049.27.27 0 0 1 .074.062.134.134 0 0 1 .029.087.163.163 0 0 1-.015.069.136.136 0 0 1-.046.054.249.249 0 0 1-.083.035.504.504 0 0 1-.123.013.807.807 0 0 1-.203-.024 1.484 1.484 0 0 1-.203-.059v.263a1.165 1.165 0 0 0 .35.055v.137h.152v-.142a.784.784 0 0 0 .12-.021.498.498 0 0 0 .175-.083.38.38 0 0 0 .114-.14.462.462 0 0 0 .012-.351"/><path d="M21.69 1044.983a1.129 1.129 0 0 0-.578.159l-.027.063.04.01a.907.907 0 0 1 .48-.137c.53 0 .96.458.96 1.023s-.43 1.024-.96 1.024-.96-.459-.96-1.024c0-.099.014-.195.038-.285l.115.135.224-.633-.098.063-.184.117-.085.054-.218.15v.084h.168a1.134 1.134 0 1 0 1.085-.803"/><path d="M20.52 1045.852s-.565 1.119.827 1.47c0 0-1.076-.37-.827-1.47"/></g></symbol><symbol viewBox="0 0 16 16" id="dineromail-dm"><g transform="translate(0 -1036.362)"><path d="M3.832 1046.58c.724-.189 1.121-.97 1.367-1.645.202-.665.256-1.398.064-2.071-.15-.462-.584-.826-1.08-.834-.462-.037-.927-.017-1.39-.022-.332 1.572-.766 3.144-1.096 4.716.756.033 1.538.013 2.135-.143zM.1 1047.85l1.484-6.99c.928.01 1.856-.016 2.782.018.569.07 1.169.193 1.597.605.755.667.937 1.746.865 2.708-.092 1.232-.712 2.46-1.758 3.144-.684.428-1.506.539-2.298.53-.93.01-1.902 0-2.672-.015zM11.438 1047.849H9.975l-.271-5.84-1.192 5.84H7.12l1.566-6.99h2.2l.23 4.897 2.558-4.896H15.9l-1.571 6.989h-1.407l1.479-5.798-2.963 5.798z"/></g></symbol><symbol viewBox="0 0 16 16" id="mate"><path style="isolation:auto;mix-blend-mode:normal" d="M12.538.1c-.988 1.073-1.817 2.658-2.423 3.987-.244.537-.418.973-.578 1.374H4.388s-1.764 3.958-1.603 5.798c.16 1.84 1.073 3.11 2.112 3.8.19.127.402.222.618.303a3.617 3.617 0 0 0-.558.538h5.355a2.95 2.95 0 0 0-.592-.542 3.03 3.03 0 0 0 .611-.298c1.039-.691 1.956-1.96 2.116-3.8.16-1.84-1.605-5.799-1.605-5.799h-.29c.132-.32.24-.6.415-.985.587-1.288 1.41-2.82 2.259-3.742L12.538.1z" color="#000" overflow="visible"/></symbol><symbol viewBox="0 0 16 16" id="mergus"><path d="M8 .1L2.862 4.05v7.9L8 15.9l5.138-3.95v-7.9L8 .1zm-.905 2.038c.147.001.296.011.41.073.18.1.322.291.405.528.387.583.783.893 1.109.982.425.116.805-.108 1.152-.454-.099.218-.327.906-1.29.795-.686-.087-.749-.804-.962-1.297.076.236.096.514.036.794-.158.672-.788 1.751-.808 2.17-.01.227.096.557.106.588.403.407 1.349.223 1.934.534.065.035.128.075.189.117.129.081.253.178.372.295.414.358.81.735 1.473.665.382-.056.545-.329.613-.7.221.365.366.666.014 1.118.153.016.311-.012.515-.308-.004 1.12-.408 1.208-.766 1.414.301.065.33.177 0 .573-.224.27-.585.436-1.142.49-.153.096-.35.186-.25.335.03.17-.044.3-.172.405.049.678 0 1.434.435 2.038-.5.12-.938.291-1.308.567-.038-.185-.178-.318-.732-.244.187-.17.573-.217.02-.412.52.015 1.024-.025 1.493-.166.016-.58-.173-1.087-.354-1.569-.396.061-.624-.297-.903-.522h-.006a.316.316 0 0 1-.226.27c-.136.581-.076 1.077-.073 1.589-.527.072-1.065.086-1.669.262.209-.195.15-.315-.293-.353.19-.04.561-.045.371-.186.391.014.806.041 1.25-.076.073-.404.07-.826-.01-1.23-.343-.118-.434-.587-.452-.709-.938-.324-1.852-.681-1.946-1.869-.061-.764.256-1.554.167-2.319-.047-.393-.103-.788-.128-1.181l-.008-.102c-.549-.039-1.136-.16-1.57-.167-.17 0-.186-.023-.238-.09l-.002-.01c-.026 0-.05 0-.068-.01-.27-.153-.107-.506.012-.58a.718.718 0 0 1 .297-.115c.957-.07 1.123-.16 1.45-.263-.136-1.33.903-1.658 1.553-1.674zm-1.329.906c-.092.012-.18.123-.208.27-.031.168.029.32.134.34.106.02.217-.1.248-.269.032-.168-.028-.32-.134-.34h-.04zm1.01.154c-.117 0-.235.133-.27.319-.036.198.034.378.159.401.124.024.255-.118.292-.316.037-.199-.033-.378-.158-.402h-.023zm-.985.05a.07.07 0 0 1 .017 0 .085.085 0 0 0-.022.046c-.007.034.005.063.027.067.02 0 .042-.02.048-.054.01.027.014.06.008.095-.014.074-.063.128-.11.12-.047-.01-.075-.079-.061-.152.012-.066.051-.115.093-.12zm.98.182h.015a.09.09 0 0 0-.02.042c-.007.04.007.076.032.081.025 0 .049-.024.056-.064a.218.218 0 0 1 .01.122c-.017.088-.076.153-.132.142-.055-.01-.087-.09-.07-.181.014-.077.06-.135.11-.142z" style="isolation:auto;mix-blend-mode:normal" color="#000" overflow="visible"/></symbol><symbol viewBox="0 0 16 16" id="ml"><path d="M12.943 3.723l-1.431 8.058h4.054l.334-1.86h-2.146l1.144-6.198h-1.955zm-7.54 1.195c-1.053.02-1.657.467-2.21 1.059.005-.003-.098.04-.093 0 0-.314-.012-.63-.012-.944H1.297s.056.439.012.707c-.045.269-1.21 6.041-1.21 6.041h2.003c.191-1.168.816-5.332 2.316-5.295.435.009.74.383.598 1.371-.27 1.308-.487 2.616-.754 3.924H6.24c.206-1.152.728-5.466 2.256-5.29.398-.002.802.334.656 1.341-.27 1.317-.49 2.632-.76 3.95h2.003c.428-1.886.662-3.833.857-5.468.011-.5-.528-1.382-1.604-1.367-.867-.063-1.807.303-2.363 1.016-.093.037-.142.061-.234 0-.353-.602-.661-1.031-1.649-1.045z" fill-rule="evenodd"/></symbol><symbol viewBox="0 0 16 16" id="ml-hands"><path d="M8 3.688C3.638 3.688.1 5.617.1 8c0 2.381 3.538 4.313 7.9 4.313S15.9 10.38 15.9 8 12.362 3.687 8 3.687zm-.074.351c4.044 0 7.324 1.682 7.324 3.758 0 1.175-.934 2.01-2.4 2.787-.069.036-.131.052-.178.072-.104.046-.14-.018-.068-.066.56-.372 1.01-.8 1.359-1.192.582-.654.508-1.82.508-1.82l-.528.016c-.093.002-1.291.18-1.619.31-.245.027-1.061.323-1.441.5-.155.073-.2.067-.29-.047-.038-.05-.08-.1-.118-.15l-.606-.486-1.092-.903a2.245 2.245 0 0 0-.59-.28c-.35-.06-.886.11-.826.146.078-.092.862-.09.918 0 .784.573 1.562 1.164 2.278 1.941.12.129.08.299-.024.42-.101.117-.323.07-.53-.084-.107-.081-1.202-.854-1.202-.854.203.35.646.652.902.875.183.125.319.432.145.604-.137.135-.423.042-.551-.063-.242-.141-.453-.373-.736-.476 0 0 .405.4.513.494.108.094.156.302.102.396-.054.095-.183.143-.278.143-.258 0-.316-.202-.525-.324.07.161.257.25.203.418 0 .108-.448.184-.601.097-.173-.143.214-.642-.557-.863-.023-.592-.458-.615-.68-.615 0 0-.133.064-.18-.059-.096-.17-.388-.232-.585-.158-.175.065-.229.203-.336.203-.053 0-.063-.084-.076-.14-.192-.314-.53-.165-.668-.182-.14-.017-.886-.355-1.215-.459-.33-.104-1.474-.4-1.664-.469-.207-.075-.492-.162-.535-.062-.037.179-.268 1.668 1.722 3.066.181.132.217.223-.088.096-1.538-.69-2.51-1.702-2.51-2.832 0-2.075 3.279-3.758 7.323-3.758zm.369.291c-1.697-.056-3.465.258-5.004 1.037.648.404 1.475 1.023 2.254 1.078.17.012.648 0 .723.016.074.016.128.226.128.226s.153-.414.573-.638c.394-.275 1.518-.177 1.896.02.362.175 1.244.378 1.905.279.717.035 2.127-.795 2.109-.832-1.26-.702-2.887-1.13-4.584-1.186zM5.14 8.592c.164 0 .416.167.416.324s-.034.205-.198.205-.416-.167-.416-.324.034-.205.198-.205zm1.064.164a.322.322 0 0 1 .145.056c.059.045.099.11.119.184.184-.093.41-.099.547.002.194.145.221.438.046.674-.174.235-.48.34-.675.195a.548.548 0 0 1-.198-.312c-.13.06-.277.061-.378-.014a.443.443 0 0 1-.079-.594.523.523 0 0 1 .473-.191zm1.229.828c.059 0 .12.018.183.055.25.148.236.445.135.593-.101.149-.407.197-.586.075-.18-.123-.244-.333-.143-.48.076-.112.232-.246.41-.243z" fill-rule="evenodd"/></symbol><symbol viewBox="0 0 16 16" id="oca"><path d="M.5 3.285l4.636 4.829-4.636 4.6h4.513l4.53-4.5-4.39-4.929H.5zm5.974 0l4.618 4.829-4.618 4.6h4.513l4.513-4.5-4.378-4.929H6.474z" fill-rule="evenodd"/></symbol><symbol viewBox="0 0 16 16" id="olx"><g transform="translate(-.062 -1086.002) scale(1.04698)"><path d="M15.057 1048.534l-2.163-3.241 1.657-2.44c.195-.287.15-.605-.097-.71-.248-.101-.637.027-.865.29l-1.475 1.693-1.018-1.529c-.193-.288-.614-.438-.936-.335a.57.57 0 0 0-.349.772l1.187 2.408-1.706 1.93a.9.9 0 0 0-.077 1.008l.426.675c.186.293.497.298.691.01l1.433-2.112 1.162 2.133a.733.733 0 0 0 .846.418l1.027-.28c.334-.093.45-.402.257-.69M3.13 1046.928c-.74 0-1.34-1.033-1.34-2.308 0-1.274.6-2.306 1.34-2.306.74 0 1.34 1.032 1.34 2.306 0 1.275-.6 2.309-1.34 2.309m0-5.703c-1.59 0-2.88 1.52-2.88 3.394 0 1.875 1.29 3.395 2.88 3.395 1.59 0 2.88-1.52 2.88-3.395 0-1.874-1.29-3.394-2.88-3.394"/><path d="M6.887 1040.3c-.4 0-.537.328-.512.665v4.354c.013.408.215.66.674.666h2.4c.38.011.586-.08.622-.393v-.754c-.005-.35-.36-.348-.601-.342h-.987c-.39 0-.481-.068-.497-.455l.004-3.092c.008-.36-.117-.648-.517-.65h-.586"/></g></symbol><symbol viewBox="0 0 16 16" id="pagomiscuentas"><path style="isolation:auto;mix-blend-mode:normal" d="M3.699 2.949c-.614.12-.798.37-.868.625l-.185 1.254h3.338c.386-.04.737-.141.883-.626l.174-1.253H3.699zm5.6 0c-.606.08-.655.201-.799.809L7.29 13.05h2.056l.543-3.636h2.506c2.089-.244 3.245-1.84 3.342-3.139.138-1.846-.85-3.328-2.163-3.327H9.299zm1.189 2.092h2.319c.613.115.738.865.646 1.385-.09.502-.442 1.075-1.316 1.229h-2.02l.371-2.614zM1.301 7.06c-.614.12-.798.371-.867.627L.25 8.941h5.217c.386-.04.738-.143.884-.628l.173-1.253H1.301zm1.27 4.113c-.614.12-.798.37-.868.625l-.184 1.253h3.336c.387-.039.738-.14.884-.625l.174-1.253H2.57z" color="#000" overflow="visible"/></symbol><symbol viewBox="0 0 16 16" id="patente"><path style="line-height:normal;text-indent:0;text-align:start;text-decoration-line:none;text-decoration-style:solid;text-decoration-color:#000;text-transform:none;block-progression:tb;isolation:auto;mix-blend-mode:normal" d="M.643 3.662C.29 3.662 0 4.15 0 4.74v6.52c0 .591.29 1.078.643 1.078h14.714c.353 0 .643-.487.643-1.078V4.74c0-.591-.29-1.078-.643-1.078H.643zM.574 6.211h14.951v5.049c0 .253-.116.447-.267.447H.844c-.151 0-.275-.194-.27-.447V6.21z" color="#000" font-weight="400" font-family="sans-serif" white-space="normal" overflow="visible"/><path style="line-height:125%;-inkscape-font-specification:'San Francisco Display Bold';text-align:center" d="M1.539 10.616h-.441l.689-3.46h.525l.686 3.46h-.473l-.151-.858h-.68l-.155.858zm.508-2.772h-.02L1.78 9.215h.505l-.24-1.371zM3.235 10.616v-3.46h.887q.284 0 .453.227.172.223.172.62 0 .214-.052.379-.05.16-.129.252t-.18.13v.03q.198.033.329.256.134.218.134.587 0 .46-.204.722-.204.257-.52.257h-.89zm.438-2.923v.887h.262q.377 0 .377-.45 0-.141-.038-.238-.038-.102-.105-.15-.064-.049-.152-.049h-.344zm0 1.386v.999h.295q.432 0 .432-.49 0-.164-.044-.276-.041-.116-.123-.174-.079-.059-.192-.059h-.368zM6.617 10.616h-.435V7.848h-.017l-.228.243q-.19.203-.248.276v-.678q.064-.073.254-.277.19-.208.248-.257h.426v3.46zM7.411 8.202h-.417v-.039q0-.203.044-.387.046-.19.131-.344.088-.155.228-.247.143-.097.324-.097.321 0 .52.276.201.276.201.698 0 .092-.012.179-.008.087-.02.15-.009.063-.04.15l-.045.131q-.011.04-.058.131-.044.092-.058.117-.012.024-.07.126l-.065.116-.452.838v.024h.858v.592H7.023v-.456l.75-1.337q.076-.131.114-.209.038-.077.08-.213.04-.136.04-.267 0-.203-.085-.33-.084-.13-.213-.13-.134 0-.216.14-.082.141-.082.345v.044zM9.253 9.113v-.557h.216q.143 0 .23-.13.088-.132.088-.335 0-.194-.088-.315-.087-.126-.224-.126-.144 0-.225.14-.082.136-.088.32H8.75q.01-.446.202-.732.196-.29.537-.29.315 0 .52.256.207.252.21.65.003.334-.117.547-.12.209-.257.243v.029q.059.005.117.044.061.033.12.101.058.068.102.165.047.092.073.228.03.136.03.295.002.46-.234.752-.237.286-.578.286-.187 0-.336-.083-.146-.087-.237-.232-.09-.146-.14-.33-.047-.184-.05-.397h.406q.012.208.108.339.1.13.257.13.17 0 .266-.14.1-.14.096-.363 0-.218-.096-.354-.096-.14-.269-.14h-.227zM11.59 8.697v.392q0 .485.114.732.117.242.324.242.19 0 .295-.184.105-.184.105-.465h.423v.073q0 .499-.225.848-.221.349-.604.349-.417 0-.651-.422-.23-.422-.23-1.178v-.387q0-.761.233-1.183.233-.426.648-.426.377 0 .602.353.227.354.227.878v.072h-.423q0-.286-.108-.484-.105-.2-.295-.2-.131 0-.23.108-.097.106-.152.334-.053.223-.053.548zM13.189 7.155h.78q.248 0 .429.126.18.122.289.354.11.233.163.543.053.305.053.698 0 .392-.053.703-.052.31-.16.547-.108.233-.292.364-.181.126-.43.126h-.78v-3.46zm.44.592v2.277h.275q.269 0 .406-.261.14-.262.14-.873 0-.203-.017-.368-.015-.165-.056-.31-.038-.15-.1-.247-.06-.102-.157-.16-.093-.058-.216-.058h-.274z" font-weight="700" font-family="San Francisco Display" letter-spacing="0" word-spacing="0" text-anchor="middle"/></symbol><symbol viewBox="0 0 16 16" id="taringa"><path d="M.209 1.098v3.457c1.146 0 2.293-.01 3.439 0V14.9h3.459V4.553h3.447c.002-1.152.003-2.305.002-3.457H.21zm12.133.01v9.482h3.45V1.108h-3.45zm0 10.341v3.455h3.45V11.45h-3.45z"/></symbol><symbol viewBox="0 0 16 16" id="yerba"><path style="isolation:auto;mix-blend-mode:normal" d="M2.951.1a.412.412 0 0 0-.414.41v2.076h10.926V.51a.412.412 0 0 0-.414-.41H2.95zm-.414 2.8v10.2h10.926V2.9H2.537zm7.318 1.81a.752.752 0 0 1 .282 0c.3.295.75.046 1.052.298.333.272.094.623.063.918.118.41-.075.776-.225 1.136-.025.332-.25.579-.466.807-.204.307-.145.763-.538.957-.434.122-.419.616-.822.791-.374.148-.54.569-.877.785-.924.774-2.184.914-3.345.903a30.343 30.343 0 0 1 2.498-2.979c.844-.906 1.77-1.733 2.675-2.576.247-.166-.008-.154-.142-.037-2.035 1.343-3.822 3.037-5.4 4.889.093-.848.204-1.698.43-2.522.061-.329.307-.573.41-.88.088-.289.279-.666.638-.604.315-.297.358-.878.842-.977.483.064.569-.546 1.006-.533.445.117.7-.372 1.128-.354.265.164.519.025.791-.021zm-7.318 8.704v2.076c0 .227.185.41.414.41H13.05c.23 0 .414-.183.414-.41v-2.076H2.537z" color="#000" overflow="visible"/></symbol></svg>