<?xml version="1.0" encoding="UTF-8" standalone="no"?><svg xmlns="http://www.w3.org/2000/svg" xmlns:xlink="http://www.w3.org/1999/xlink"><symbol viewBox="0 0 16 16" id="mergus"><path d="M8 .1L2.862 4.05v7.9L8 15.9l5.138-3.95v-7.9L8 .1zm-.905 2.038c.147.001.296.011.41.073.18.1.322.291.405.528.387.583.783.893 1.109.982.425.116.805-.108 1.152-.454-.099.218-.327.906-1.29.795-.686-.087-.749-.804-.962-1.297.076.236.096.514.036.794-.158.672-.788 1.751-.808 2.17-.01.227.096.557.106.588.403.407 1.349.223 1.934.534.065.035.128.075.189.117.129.081.253.178.372.295.414.358.81.735 1.473.665.382-.056.545-.329.613-.7.221.365.366.666.014 1.118.153.016.311-.012.515-.308-.004 1.12-.408 1.208-.766 1.414.301.065.33.177 0 .573-.224.27-.585.436-1.142.49-.153.096-.35.186-.25.335.03.17-.044.3-.172.405.049.678 0 1.434.435 2.038-.5.12-.938.291-1.308.567-.038-.185-.178-.318-.732-.244.187-.17.573-.217.02-.412.52.015 1.024-.025 1.493-.166.016-.58-.173-1.087-.354-1.569-.396.061-.624-.297-.903-.522h-.006a.316.316 0 0 1-.226.27c-.136.581-.076 1.077-.073 1.589-.527.072-1.065.086-1.669.262.209-.195.15-.315-.293-.353.19-.04.561-.045.371-.186.391.014.806.041 1.25-.076.073-.404.07-.826-.01-1.23-.343-.118-.434-.587-.452-.709-.938-.324-1.852-.681-1.946-1.869-.061-.764.256-1.554.167-2.319-.047-.393-.103-.788-.128-1.181l-.008-.102c-.549-.039-1.136-.16-1.57-.167-.17 0-.186-.023-.238-.09l-.002-.01c-.026 0-.05 0-.068-.01-.27-.153-.107-.506.012-.58a.718.718 0 0 1 .297-.115c.957-.07 1.123-.16 1.45-.263-.136-1.33.903-1.658 1.553-1.674zm-1.329.906c-.092.012-.18.123-.208.27-.031.168.029.32.134.34.106.02.217-.1.248-.269.032-.168-.028-.32-.134-.34h-.04zm1.01.154c-.117 0-.235.133-.27.319-.036.198.034.378.159.401.124.024.255-.118.292-.316.037-.199-.033-.378-.158-.402h-.023zm-.985.05a.07.07 0 0 1 .017 0 .085.085 0 0 0-.022.046c-.007.034.005.063.027.067.02 0 .042-.02.048-.054.01.027.014.06.008.095-.014.074-.063.128-.11.12-.047-.01-.075-.079-.061-.152.012-.066.051-.115.093-.12zm.98.182h.015a.09.09 0 0 0-.02.042c-.007.04.007.076.032.081.025 0 .049-.024.056-.064a.218.218 0 0 1 .01.122c-.017.088-.076.153-.132.142-.055-.01-.087-.09-.07-.181.014-.077.06-.135.11-.142z" style="isolation:auto;mix-blend-mode:normal" color="#000" overflow="visible"/></symbol><symbol viewBox="0 0 16 16" id="taringa"><path d="M.209 1.098v3.457c1.146 0 2.293-.01 3.439 0V14.9h3.459V4.553h3.447c.002-1.152.003-2.305.002-3.457H.21zm12.133.01v9.482h3.45V1.108h-3.45zm0 10.341v3.455h3.45V11.45h-3.45z"/></symbol></svg>